<?xml version="1.0" encoding="UTF-8"?>
<!DOCTYPE svg PUBLIC "-//W3C//DTD SVG 1.1//EN" "http://www.w3.org/Graphics/SVG/1.1/DTD/svg11.dtd">
<!-- Creator: CorelDRAW X7 -->
<svg xmlns="http://www.w3.org/2000/svg" xml:space="preserve" width="113.244mm" height="79.006mm" version="1.1" style="shape-rendering:geometricPrecision; text-rendering:geometricPrecision; image-rendering:optimizeQuality; fill-rule:evenodd; clip-rule:evenodd"
viewBox="0 0 7570 5281"
 xmlns:xlink="http://www.w3.org/1999/xlink">
 <defs>
  <style type="text/css">
   <![CDATA[
    .str1 {stroke:#898989;stroke-width:13.3693}
    .str0 {stroke:#898989;stroke-width:5.0937}
    .str6 {stroke:#898989;stroke-width:5.0937}
    .str7 {stroke:#898989;stroke-width:5.0937}
    .str5 {stroke:#2870B7;stroke-width:5.0937}
    .str4 {stroke:#2A54A3;stroke-width:5.0937}
    .str3 {stroke:#2B4C9E;stroke-width:5.0937}
    .str2 {stroke:#2B4C9E;stroke-width:5.0937}
    .fil16 {fill:none;fill-rule:nonzero}
    .fil11 {fill:#C5C6C6}
    .fil4 {fill:#055CA7}
    .fil19 {fill:#FEFEFE;fill-rule:nonzero}
    .fil8 {fill:#EBECEC;fill-rule:nonzero}
    .fil1 {fill:#EBECEC;fill-rule:nonzero}
    .fil9 {fill:#C5C6C6;fill-rule:nonzero}
    .fil2 {fill:#C5C6C6;fill-rule:nonzero}
    .fil3 {fill:#9D9E9E;fill-rule:nonzero}
    .fil24 {fill:#898989;fill-rule:nonzero}
    .fil13 {fill:#727271;fill-rule:nonzero}
    .fil12 {fill:#5B5B5B;fill-rule:nonzero}
    .fil6 {fill:#2694CF;fill-rule:nonzero}
    .fil22 {fill:#2784C5;fill-rule:nonzero}
    .fil7 {fill:#2870B7;fill-rule:nonzero}
    .fil18 {fill:#2A54A3;fill-rule:nonzero}
    .fil17 {fill:#2A54A3;fill-rule:nonzero}
    .fil5 {fill:#2B4C9E;fill-rule:nonzero}
    .fil15 {fill:#2B4C9E;fill-rule:nonzero}
    .fil10 {fill:url(#id0)}
    .fil23 {fill:url(#id1)}
    .fil20 {fill:url(#id2)}
    .fil25 {fill:url(#id3)}
    .fil14 {fill:url(#id4)}
    .fil21 {fill:url(#id5)}
    .fil0 {fill:url(#id6);fill-rule:nonzero}
   ]]>
  </style>
  <linearGradient id="id0" gradientUnits="userSpaceOnUse" x1="5603.56" y1="1877.82" x2="5796.61" y2="1877.82">
   <stop offset="0" style="stop-opacity:1; stop-color:#2B3F95"/>
   <stop offset="1" style="stop-opacity:1; stop-color:#24AADF"/>
  </linearGradient>
  <linearGradient id="id1" gradientUnits="userSpaceOnUse" xlink:href="#id0" x1="6245.92" y1="2669.22" x2="6625.66" y2="2669.22">
  </linearGradient>
  <linearGradient id="id2" gradientUnits="userSpaceOnUse" xlink:href="#id0" x1="4707.61" y1="2676.05" x2="4970.08" y2="2676.05">
  </linearGradient>
  <linearGradient id="id3" gradientUnits="userSpaceOnUse" xlink:href="#id0" x1="4322.11" y1="2917.93" x2="7189.03" y2="2917.93">
  </linearGradient>
  <linearGradient id="id4" gradientUnits="userSpaceOnUse" xlink:href="#id0" x1="4687.27" y1="2004.04" x2="6097.64" y2="2004.04">
  </linearGradient>
  <linearGradient id="id5" gradientUnits="userSpaceOnUse" xlink:href="#id0" x1="3545.7" y1="2796.99" x2="5228.37" y2="2796.99">
  </linearGradient>
  <linearGradient id="id6" gradientUnits="objectBoundingBox" xlink:href="#id0" x1="0%" y1="50.0003%" x2="100%" y2="50.0003%">
  </linearGradient>
 </defs>
 <g id="Слой_x0020_1">
  <metadata id="CorelCorpID_0Corel-Layer"/>
  <g id="_851198489712">
   <path class="fil0" d="M366 3987c-147,0 -280,75 -366,191l96 85c62,-89 161,-149 270,-149 168,0 308,136 336,312l-377 0 0 120 378 0c-25,180 -166,318 -337,318 -109,0 -208,-58 -270,-148l-96 86c86,115 219,190 366,190 258,0 468,-225 468,-501 0,-279 -210,-504 -468,-504z"/>
   <path id="1" class="fil0" d="M1109 4638l0 360 134 0 0 -372 -69 110 -65 -98zm-225 -651l0 120 225 0 0 249 65 -122 69 137 0 -264 225 0 0 -120 -584 0zm182 525l108 161 100 -161 -100 -201 -108 201z"/>
   <path id="2" class="fil0" d="M1511 4851l0 141 120 0 0 -145 -58 103 -62 -99zm62 -246l-84 169 84 135 77 -135 -77 -169zm379 -618l0 286 -321 0 0 -286 0 0 -120 0 0 692 62 -123 58 129 0 -292 321 0 0 599 120 0 0 -1005 -120 0z"/>
   <path id="3" class="fil0" d="M2581 3987c-259,0 -467,225 -467,503 0,278 208,502 467,502 256,0 465,-224 465,-502 0,-278 -209,-503 -465,-503zm0 877c-187,0 -339,-168 -339,-374 0,-206 152,-374 339,-374 186,0 338,168 338,374 0,206 -152,374 -338,374zm-108 -379l112 186 105 -186 -105 -231 -112 231z"/>
   <path id="4" class="fil0" d="M3872 4928l0 -821 60 0 0 -21 0 -99 -60 0 -101 0 -19 0 -524 0 0 120 72 0 0 509c0,204 -61,286 -88,312l-84 0 0 353 119 0 0 -233 604 0 0 233 120 0 0 -353 -99 0zm-452 -312l0 -509 332 0 0 821 -394 0c32,-65 62,-165 62,-312z"/>
   <polygon id="5" class="fil0" points="4482,4686 4482,4566 4152,4566 4152,4107 4468,4107 4468,3987 4152,3987 4032,3987 4032,4107 4032,4992 4482,4992 4482,4873 4152,4873 4152,4686 "/>
   <path id="6" class="fil0" d="M4716 3987l-170 0 0 1005 119 0 0 -344c18,2 34,3 51,3 184,0 333,-149 333,-331 0,-184 -149,-333 -333,-333zm0 544c-17,0 -35,-1 -51,-5l0 -413c16,-5 34,-6 51,-6 119,0 213,95 213,213 0,117 -94,211 -213,211z"/>
   <polygon id="7" class="fil0" points="5541,4686 5541,4566 5211,4566 5211,4107 5528,4107 5528,3987 5211,3987 5091,3987 5091,4107 5091,4992 5541,4992 5541,4873 5211,4873 5211,4686 "/>
   <path id="8" class="fil0" d="M6091 4384c4,-20 6,-42 6,-66 0,-182 -149,-331 -332,-331l-170 0 0 1005 119 0c16,3 174,0 190,0 184,0 333,-149 333,-332 0,-114 -59,-216 -146,-276zm-377 -271c16,-5 34,-6 51,-6 117,0 212,95 212,211 0,119 -95,213 -212,213 -17,0 -35,-1 -51,-5l0 -413zm190 760c-18,0 -174,3 -190,-2l0 -224c16,3 34,4 51,4 117,0 219,-61 279,-152 44,40 73,97 73,161 0,117 -95,213 -213,213z"/>
   <polygon id="9" class="fil0" points="6756,3987 6756,4272 6435,4272 6435,3987 6435,3986 6315,3986 6315,4992 6435,4992 6435,4391 6756,4391 6756,4992 6876,4992 6876,3987 "/>
   <path id="10" class="fil0" d="M6976 4933l107 59 232 -353c27,8 55,11 84,11 18,0 35,-2 51,-3l0 345 120 0 0 -1006 -171 0c-182,0 -331,149 -331,332 0,111 54,209 137,269l-229 346zm474 -409c-16,5 -33,6 -51,6 -116,0 -211,-95 -211,-212 0,-116 95,-213 211,-213 18,0 35,3 51,6l0 413z"/>
   <g>
    <path class="fil1" d="M3245 3200c5,-5 10,-11 15,-16 -1,-1 -2,-3 -2,-4 -5,6 -10,12 -14,19 0,0 1,0 1,1zm-1184 140c-15,6 -30,12 -44,18 1,1 2,2 4,3 13,-7 26,-14 40,-21zm-419 42c-2,-1 -4,-3 -5,-5 -7,4 -13,9 -19,14 8,-3 16,-6 24,-9zm446 -425c1,1 3,2 4,3 6,-10 11,-19 17,-28 -7,8 -14,17 -21,25zm1615 -379c-68,377 -376,710 -689,934 -4,3 -8,4 -11,6 -6,17 -21,32 -47,32 -107,2 -211,-19 -316,-31 -113,-13 -225,-26 -337,-35 -225,-18 -452,-19 -671,35 -223,55 -413,161 -617,258 -66,31 -130,66 -199,92 -46,18 -95,43 -147,35 -8,-2 -13,-6 -16,-11 -43,-6 -55,-74 -4,-91 17,-6 34,-12 51,-18 73,-55 149,-106 218,-167 78,-68 151,-140 229,-207 20,-17 58,-12 64,16 5,22 11,44 16,66 124,-30 237,-95 340,-166 119,-82 230,-177 331,-279 219,-223 394,-461 507,-747 16,-39 78,-35 79,10 4,188 -135,375 -228,533 -77,130 -157,278 -263,399 59,-18 120,-37 178,-58 34,-18 67,-37 98,-56 97,-58 185,-126 275,-193 33,-25 76,5 58,41 -10,20 -21,40 -33,58 0,8 -3,15 -10,20 -2,2 -5,4 -7,6 -87,121 -218,214 -352,293 170,-32 345,-112 441,-234 30,-39 91,-7 69,38 -35,70 -81,137 -138,193 81,-13 161,-47 231,-84 99,-51 195,-109 289,-168 222,-137 430,-315 537,-549 20,-42 81,-10 74,29z"/>
    <g>
     <path class="fil2" d="M5549 1376c0,-54 11,-111 37,-172 -189,-46 -201,-223 -205,-385 -49,73 -94,147 -132,227 -51,107 -95,219 -162,318 -164,243 -335,481 -528,703 -192,220 -398,430 -632,610 -216,167 -471,286 -674,467 -23,20 -53,-10 -34,-32 105,-127 210,-296 229,-463 -140,202 -284,413 -488,561 -196,142 -441,272 -692,290 -25,2 -29,-29 -12,-40 99,-65 173,-163 232,-266 -191,167 -444,317 -704,287 -21,-2 -36,-31 -12,-42 187,-79 350,-200 495,-336 73,-68 143,-139 209,-213 17,-19 175,-192 173,-196 -86,-109 -196,-233 -325,-296 -25,-13 -83,-42 -109,-16 -23,25 -30,60 -37,91 -8,39 -17,77 -36,112 -73,229 -275,407 -440,577 -193,199 -438,365 -701,471 -16,7 -31,-4 -28,-20 9,-50 20,-136 -57,-89 -46,29 -86,65 -125,102 -117,109 -243,208 -360,317 -10,9 -24,-5 -15,-15 4,-5 9,-10 13,-15 -1,0 -1,0 -1,0 -4,3 -8,7 -11,10 -8,5 -17,2 -18,-7 -6,-50 42,-111 68,-150 38,-57 78,-112 119,-166 69,-91 133,-183 196,-278 49,-74 104,-161 193,-197 73,-30 143,4 197,52 85,-52 153,-127 216,-200 75,-87 142,-178 207,-271 67,-96 124,-191 168,-299 41,-102 76,-208 131,-304 28,-49 76,-152 153,-126 43,15 79,60 114,85 56,40 112,78 169,115 175,116 400,241 480,439 386,-201 553,-580 748,-932 31,-56 69,-127 132,-156 54,-25 101,19 121,63 28,62 29,130 21,196 130,68 270,134 382,228 -33,-69 -82,-129 -132,-192 -34,-43 -64,-86 -90,-133 -11,-18 -39,-47 -33,-70 18,-67 99,-124 154,-162 120,-83 234,-173 347,-264 110,-88 230,-174 329,-275 97,-98 179,-207 265,-314 39,-48 78,-98 121,-143 19,-20 37,-40 65,-49 50,-16 95,63 120,102 91,-78 170,-162 252,-248 45,-47 96,-82 159,-43 40,25 68,73 93,109 36,51 70,102 105,153l236 308c172,182 854,611 993,816l-222 229 -287 1161 -815 -586 -325 -1038z"/>
     <g>
      <path class="fil1" d="M5228 1235c12,-16 23,-33 35,-49 -1,0 -1,0 -1,0 -1,-2 -2,-3 -2,-5 -12,20 -24,40 -36,59 1,-2 3,-3 4,-5zm-686 945c-24,15 -49,48 -71,69 12,-10 23,-21 34,-32 13,-12 25,-25 37,-37zm-159 150c-41,35 -84,69 -127,102 2,0 4,0 6,1 41,-34 82,-68 121,-103zm1610 -1385c-31,101 -81,200 -166,271 -558,559 381,-183 47,189 -70,116 480,1730 -2016,1345 -26,-4 -22,-36 -2,-44 -1,-35 53,-69 77,-86 14,-10 28,-20 43,-29 100,-109 240,-189 352,-286 170,-147 302,-320 432,-499 131,-182 255,-369 377,-556 53,-81 102,-164 138,-254 13,-33 25,-68 44,-98 16,-26 34,-46 44,-75 10,-26 60,-34 65,0 17,115 68,282 203,318 176,48 238,-100 307,-218 16,-28 64,-9 55,22z"/>
      <path class="fil3" d="M6350 1257c-157,-74 -322,-133 -460,-237l0 0 0 0c-2,-1 -3,-2 -5,-3 -20,-16 6,-42 27,-33 1,1 2,1 4,2 4,-3 9,-5 15,-3 84,28 163,72 247,101 47,16 99,35 150,38 8,0 18,1 27,1 5,-10 4,-20 1,-30 -59,-46 -127,-84 -185,-117 -83,-47 -166,-95 -255,-133 -96,-41 -195,-79 -285,-131 -43,-25 -121,-64 -118,-121 1,-11 10,-21 23,-21 109,-3 211,48 319,36 -12,-117 -53,-239 -120,-339 -129,111 -235,243 -364,354 -11,9 -31,9 -38,-5 -29,-55 -47,-114 -87,-163 -104,86 -151,211 -233,314 -96,122 -205,233 -316,344 -197,197 -471,308 -642,531 42,52 75,111 104,171 8,17 -10,40 -29,27 -84,-53 -158,-166 -257,-196 -21,273 -122,529 -356,703 -17,12 -47,-4 -33,-24 85,-113 155,-241 205,-371 45,-117 99,-279 31,-398 -85,63 -119,182 -165,269 -69,131 -152,257 -239,378 -147,207 -324,425 -588,503 -12,3 -20,-8 -19,-17 -1,-4 0,-9 4,-13 19,-15 37,-31 54,-48 -125,-133 -242,-290 -406,-384 -65,-38 -148,-59 -208,-103 -48,-35 -87,-93 -145,-112 -180,473 -439,997 -909,1268 -14,8 -31,-5 -27,-20 7,-29 29,-130 -35,-127 -51,2 -96,29 -127,65 -52,58 -85,127 -127,191 -113,175 -232,348 -361,512 0,1 -1,1 -1,1 -2,4 -5,8 -7,12 -9,14 -31,1 -23,-13 1,-2 2,-4 3,-6 0,-2 0,-5 2,-8 5,-6 9,-12 13,-17 93,-161 205,-312 303,-470 103,-166 192,-340 314,-494 7,-8 17,-10 26,-3 44,35 84,73 119,116 15,-41 50,-77 76,-109 40,-49 83,-95 119,-146 76,-107 144,-221 210,-334 67,-116 134,-233 190,-354 36,-77 57,-187 124,-247 1,-1 2,-1 2,-2 4,-5 12,-8 18,-4 68,47 136,90 213,121 6,3 10,11 10,16 -3,56 106,93 149,112 53,23 110,44 158,77 74,51 137,127 197,191 66,69 131,140 197,209 159,-156 295,-335 423,-515 165,-234 294,-489 464,-720 7,-10 20,-15 31,-8 88,52 166,123 228,203 59,-49 125,-86 189,-128 70,-46 136,-97 199,-152 116,-101 227,-208 336,-315 113,-112 223,-227 323,-349 83,-100 146,-224 247,-308 12,-10 27,-8 36,4 30,38 61,76 91,114 140,-95 215,-253 318,-379 11,-14 30,-16 41,0 308,450 1100,1134 1422,1577 -180,-143 -623,-232 -832,-331z"/>
     </g>
    </g>
    <line class="fil4" x1="6142" y1="1258" x2="6142" y2= "1258" />
    <line class="fil4" x1="5765" y1="899" x2="5765" y2= "899" />
    <path class="fil2" d="M972 3177c-1,-1 -2,-2 -2,-4 -15,11 -29,21 -43,31 15,-9 30,-18 45,-27z"/>
    <path class="fil2" d="M5937 1430c-21,-13 -40,-26 -56,-39 -9,-6 -17,-12 -24,-19 20,24 46,44 80,58z"/>
    <path class="fil2" d="M6606 1060c-10,-10 -19,-22 -28,-33 8,12 16,24 24,35 1,0 2,-1 4,-2z"/>
    <path class="fil2" d="M6875 1395c13,19 25,39 37,59 2,0 4,1 6,1 -14,-20 -29,-40 -43,-60z"/>
    <path class="fil3" d="M6468 904c-9,-20 -19,-40 -28,-59 0,2 0,5 -1,7 10,17 19,34 29,52z"/>
    <polygon class="fil5" points="2691,3369 2852,3634 3004,3369 2854,3035 "/>
    <polygon class="fil5" points="4449,2281 4560,2465 4666,2281 4562,2048 "/>
    <polygon class="fil6" points="3041,2981 3115,3103 3185,2981 3116,2827 "/>
    <polygon class="fil6" points="4692,2011 4743,2096 4792,2011 4744,1904 "/>
    <polygon class="fil7" points="2466,2809 2626,3074 2778,2809 2629,2475 "/>
    <polygon class="fil7" points="4292,1892 4403,2076 4509,1892 4405,1659 "/>
    <path class="fil2" d="M5853 1648c-2,-3 -4,-6 -5,-9 0,0 0,0 0,0 0,3 0,6 0,9 1,0 3,0 5,0z"/>
    <polygon class="fil8" points="5631,1789 5576,1851 5576,1741 5631,1741 "/>
    <path class="fil9 str0" d="M5082 2396c-11,15 -22,30 -33,45 12,-14 23,-29 33,-45z"/>
    <polygon class="fil10" points="5605,1834 5604,1772 5795,1773 5797,1984 "/>
    <polygon class="fil11 str0" points="5830,2470 5831,2229 5339,1844 4892,2223 4894,2468 "/>
    <rect class="fil11 str1" x="4914" y="2220" width="951.173" height="66.2802"/>
    <rect class="fil11 str1" x="4914" y="2154" width="951.173" height="66.2802"/>
    <rect class="fil11 str1" x="4914" y="2087" width="951.173" height="66.2802"/>
    <polygon class="fil11 str0" points="4984,2021 5730,2021 5730,2087 4984,2087 "/>
    <polygon class="fil12 str0" points="5033,2019 5728,2019 5730,2019 5730,2021 5730,2087 5730,2090 5728,2090 5033,2090 5033,2085 5726,2085 5726,2023 5033,2023 "/>
    <polygon class="fil11 str0" points="5052,1955 5682,1955 5682,2021 5052,2021 "/>
    <polygon class="fil13 str0" points="5052,1952 5667,1952 5669,1952 5669,1955 5669,2021 5669,2023 5667,2023 5052,2023 5052,2019 5666,2019 5666,1957 5052,1957 "/>
    <polygon class="fil11 str0" points="5168,1888 5590,1888 5590,1955 5168,1955 "/>
    <polygon class="fil11 str0" points="5535,1846 5535,1887 5204,1887 5204,1846 "/>
    <rect class="fil11 str1" x="4914" y="2286" width="951.173" height="66.2802"/>
    <rect class="fil11 str1" x="4914" y="2352" width="951.173" height="66.2802"/>
    <polygon class="fil14" points="5378,1680 4687,2245 4786,2328 5374,1847 5990,2325 6098,2242 "/>
    <path class="fil15" d="M4972 2258c0,5 -1,10 -3,15 -2,5 -4,10 -8,15 -3,5 -8,10 -12,13 -5,3 -11,6 -16,8 -2,0 -4,1 -5,1 -2,1 -4,1 -6,1 -2,0 -4,0 -6,0 -2,0 -3,0 -5,-1 -2,0 -4,-1 -7,-2 -3,-1 -6,-3 -9,-4 -4,-2 -7,-4 -10,-7 -3,-2 -6,-5 -9,-8 -2,-3 -4,-6 -5,-9 -1,-3 -2,-7 -2,-10 0,-6 0,-11 1,-17 0,-5 2,-10 4,-15 1,-3 3,-6 5,-8 2,-3 5,-6 8,-9 3,-2 7,-5 11,-7 4,-2 10,-4 16,-6 3,0 6,0 10,0 3,0 7,0 11,1 3,1 6,2 9,4 2,1 5,3 8,5 2,2 5,3 6,5 2,2 4,4 5,5 3,4 5,9 7,13 1,5 2,11 2,17zm-54 26c3,0 6,0 8,-1 2,0 4,-1 6,-2 5,-3 9,-7 11,-12 2,-5 3,-10 2,-16 -1,-3 -2,-6 -3,-8 -2,-3 -4,-5 -6,-6 -2,-2 -5,-3 -8,-4 -3,-1 -5,-1 -8,-1 -3,1 -6,1 -9,2 -3,1 -5,3 -7,5 -4,4 -6,9 -8,14 -1,5 -1,10 1,16 0,1 0,2 1,3 1,1 2,2 3,3 2,2 5,4 8,5 3,1 6,2 9,2z"/>
    <path id="1" class="fil16 str2" d="M4972 2258c0,5 -1,10 -3,15 -2,5 -4,10 -8,15 -3,5 -8,10 -12,13 -5,3 -11,6 -16,8 -2,0 -4,1 -5,1 -2,1 -4,1 -6,1 -2,0 -4,0 -6,0 -2,0 -3,0 -5,-1 -2,0 -4,-1 -7,-2 -3,-1 -6,-3 -9,-4 -4,-2 -7,-4 -10,-7 -3,-2 -6,-5 -9,-8 -2,-3 -4,-6 -5,-9 -1,-3 -2,-7 -2,-10 0,-6 0,-11 1,-17 0,-5 2,-10 4,-15 1,-3 3,-6 5,-8 2,-3 5,-6 8,-9 3,-2 7,-5 11,-7 4,-2 10,-4 16,-6 3,0 6,0 10,0 3,0 7,0 11,1 3,1 6,2 9,4 2,1 5,3 8,5 2,2 5,3 6,5 2,2 4,4 5,5 3,4 5,9 7,13 1,5 2,11 2,17zm-54 26c3,0 6,0 8,-1 2,0 4,-1 6,-2 5,-3 9,-7 11,-12 2,-5 3,-10 2,-16 -1,-3 -2,-6 -3,-8 -2,-3 -4,-5 -6,-6 -2,-2 -5,-3 -8,-4 -3,-1 -5,-1 -8,-1 -3,1 -6,1 -9,2 -3,1 -5,3 -7,5 -4,4 -6,9 -8,14 -1,5 -1,10 1,16 0,1 0,2 1,3 1,1 2,2 3,3 2,2 5,4 8,5 3,1 6,2 9,2z"/>
    <path class="fil15" d="M4972 2347c0,5 -1,10 -3,15 -2,5 -4,10 -8,15 -3,6 -8,10 -12,13 -5,3 -11,6 -16,8 -2,0 -4,1 -5,1 -2,1 -4,1 -6,1 -2,0 -4,0 -6,0 -2,0 -3,0 -5,0 -2,-1 -4,-2 -7,-3 -3,-1 -6,-2 -9,-4 -4,-2 -7,-4 -10,-7 -3,-2 -6,-5 -9,-8 -2,-3 -4,-6 -5,-9 -1,-3 -2,-7 -2,-10 0,-6 0,-11 1,-16 0,-6 2,-11 4,-16 1,-3 3,-5 5,-8 2,-3 5,-6 8,-9 3,-2 7,-5 11,-7 4,-2 10,-4 16,-5 3,-1 6,-1 10,-1 3,0 7,0 11,2 3,0 6,1 9,3 2,1 5,3 8,5 2,2 5,4 6,5 2,2 4,4 5,5 3,4 5,9 7,14 1,4 2,10 2,16zm-54 26c3,0 6,0 8,-1 2,0 4,-1 6,-2 5,-3 9,-7 11,-12 2,-5 3,-10 2,-16 -1,-3 -2,-6 -3,-8 -2,-2 -4,-5 -6,-6 -2,-2 -5,-3 -8,-4 -3,-1 -5,-1 -8,-1 -3,1 -6,1 -9,2 -3,1 -5,3 -7,5 -4,4 -6,9 -8,14 -1,5 -1,10 1,16 0,1 0,2 1,3 1,1 2,2 3,3 2,2 5,4 8,5 3,2 6,2 9,2z"/>
    <path id="1" class="fil16 str2" d="M4972 2347c0,5 -1,10 -3,15 -2,5 -4,10 -8,15 -3,6 -8,10 -12,13 -5,3 -11,6 -16,8 -2,0 -4,1 -5,1 -2,1 -4,1 -6,1 -2,0 -4,0 -6,0 -2,0 -3,0 -5,0 -2,-1 -4,-2 -7,-3 -3,-1 -6,-2 -9,-4 -4,-2 -7,-4 -10,-7 -3,-2 -6,-5 -9,-8 -2,-3 -4,-6 -5,-9 -1,-3 -2,-7 -2,-10 0,-6 0,-11 1,-16 0,-6 2,-11 4,-16 1,-3 3,-5 5,-8 2,-3 5,-6 8,-9 3,-2 7,-5 11,-7 4,-2 10,-4 16,-5 3,-1 6,-1 10,-1 3,0 7,0 11,2 3,0 6,1 9,3 2,1 5,3 8,5 2,2 5,4 6,5 2,2 4,4 5,5 3,4 5,9 7,14 1,4 2,10 2,16zm-54 26c3,0 6,0 8,-1 2,0 4,-1 6,-2 5,-3 9,-7 11,-12 2,-5 3,-10 2,-16 -1,-3 -2,-6 -3,-8 -2,-2 -4,-5 -6,-6 -2,-2 -5,-3 -8,-4 -3,-1 -5,-1 -8,-1 -3,1 -6,1 -9,2 -3,1 -5,3 -7,5 -4,4 -6,9 -8,14 -1,5 -1,10 1,16 0,1 0,2 1,3 1,1 2,2 3,3 2,2 5,4 8,5 3,2 6,2 9,2z"/>
    <path class="fil5 str3" d="M4919 2284c2,0 5,0 7,0 2,-1 4,-1 6,-3 6,-3 9,-7 12,-12 2,-4 2,-10 1,-16 0,-3 -1,-5 -3,-8 -2,-2 -3,-4 -6,-6 -2,-2 -5,-3 -7,-4 -3,-1 -6,-1 -9,-1 -3,1 -6,2 -9,2 -2,1 -5,3 -6,5 -4,4 -7,9 -8,14 -2,5 -2,11 0,16 0,1 1,2 1,3 1,1 2,2 3,3 3,2 5,4 8,5 3,2 7,2 10,2z"/>
    <path class="fil6 str3" d="M4919 2284c2,0 5,0 7,0 2,-1 4,-1 6,-3 6,-3 9,-7 12,-12 2,-4 2,-10 1,-16 0,-3 -1,-5 -3,-8 -2,-2 -3,-4 -6,-6 -2,-2 -5,-3 -7,-4 -3,-1 -6,-1 -9,-1 -3,1 -6,2 -9,2 -2,1 -5,3 -6,5 -4,4 -7,9 -8,14 -2,5 -2,11 0,16 0,1 1,2 1,3 1,1 2,2 3,3 3,2 5,4 8,5 3,2 7,2 10,2z"/>
    <path class="fil6 str3" d="M4918 2373c3,1 5,0 8,0 2,0 4,-1 6,-2 5,-3 9,-7 11,-12 2,-5 3,-10 2,-16 -1,-3 -2,-6 -3,-8 -2,-3 -4,-5 -6,-7 -3,-1 -5,-3 -8,-4 -3,0 -6,-1 -9,0 -2,0 -5,1 -8,2 -3,1 -5,2 -7,5 -4,4 -6,8 -8,14 -1,5 -1,10 0,16 1,1 1,2 2,3 1,1 2,2 2,2 3,3 6,4 9,6 3,1 6,2 9,1z"/>
    <path class="fil15" d="M4971 2439c0,5 -1,9 -3,15 -2,5 -5,10 -8,15 -4,5 -8,10 -13,13 -5,3 -10,5 -15,8 -2,0 -4,1 -6,1 -2,1 -3,1 -5,1 -2,0 -4,0 -6,0 -2,0 -4,0 -5,-1 -2,0 -5,-1 -7,-2 -3,-1 -6,-3 -10,-5 -3,-1 -6,-3 -9,-6 -4,-2 -6,-5 -9,-8 -2,-3 -4,-6 -5,-9 -2,-3 -2,-7 -2,-11 -1,-5 -1,-10 0,-16 1,-5 3,-10 5,-15 1,-3 3,-6 5,-9 2,-2 4,-5 8,-8 3,-3 6,-5 11,-7 4,-2 9,-4 15,-6 3,0 7,-1 10,0 4,0 8,0 12,1 3,1 5,2 8,4 3,1 6,3 8,5 3,1 5,3 7,5 2,2 4,4 5,5 3,4 5,9 7,13 1,5 2,10 2,17zm-54 26c3,0 5,0 7,-1 3,0 5,-1 7,-2 5,-3 9,-7 11,-12 2,-5 3,-10 2,-16 -1,-3 -2,-6 -4,-8 -1,-3 -3,-5 -5,-7 -3,-1 -5,-3 -8,-3 -3,-1 -6,-1 -9,-1 -3,0 -5,1 -8,2 -3,1 -5,2 -7,5 -4,4 -6,9 -8,14 -1,5 -1,10 0,16 1,1 1,2 2,3 1,1 1,2 2,3 3,2 6,4 9,5 3,1 6,2 9,2z"/>
    <path id="1" class="fil16 str2" d="M4971 2439c0,5 -1,9 -3,15 -2,5 -5,10 -8,15 -4,5 -8,10 -13,13 -5,3 -10,5 -15,8 -2,0 -4,1 -6,1 -2,1 -3,1 -5,1 -2,0 -4,0 -6,0 -2,0 -4,0 -5,-1 -2,0 -5,-1 -7,-2 -3,-1 -6,-3 -10,-5 -3,-1 -6,-3 -9,-6 -4,-2 -6,-5 -9,-8 -2,-3 -4,-6 -5,-9 -2,-3 -2,-7 -2,-11 -1,-5 -1,-10 0,-16 1,-5 3,-10 5,-15 1,-3 3,-6 5,-9 2,-2 4,-5 8,-8 3,-3 6,-5 11,-7 4,-2 9,-4 15,-6 3,0 7,-1 10,0 4,0 8,0 12,1 3,1 5,2 8,4 3,1 6,3 8,5 3,1 5,3 7,5 2,2 4,4 5,5 3,4 5,9 7,13 1,5 2,10 2,17zm-54 26c3,0 5,0 7,-1 3,0 5,-1 7,-2 5,-3 9,-7 11,-12 2,-5 3,-10 2,-16 -1,-3 -2,-6 -4,-8 -1,-3 -3,-5 -5,-7 -3,-1 -5,-3 -8,-3 -3,-1 -6,-1 -9,-1 -3,0 -5,1 -8,2 -3,1 -5,2 -7,5 -4,4 -6,9 -8,14 -1,5 -1,10 0,16 1,1 1,2 2,3 1,1 1,2 2,3 3,2 6,4 9,5 3,1 6,2 9,2z"/>
    <path class="fil6 str3" d="M4917 2465c3,0 5,0 7,0 3,-1 5,-1 7,-2 5,-4 9,-8 11,-13 2,-4 3,-10 1,-16 0,-3 -1,-5 -3,-8 -1,-2 -3,-4 -6,-6 -2,-2 -4,-3 -7,-4 -3,-1 -6,-1 -9,0 -3,0 -6,1 -8,1 -3,1 -5,3 -7,5 -4,5 -7,9 -8,14 -1,5 -1,11 0,16 0,1 1,3 2,4 1,1 1,1 2,2 3,2 6,4 9,5 3,2 6,2 9,2z"/>
    <path class="fil17" d="M5895 2237c0,5 -1,10 -3,15 -2,5 -5,10 -8,15 -3,5 -8,10 -13,13 -4,3 -10,6 -15,8 -2,0 -4,1 -5,1 -2,1 -4,1 -6,1 -2,0 -4,0 -6,0 -2,0 -4,0 -5,-1 -2,0 -4,-1 -7,-2 -3,-1 -6,-3 -9,-4 -4,-2 -7,-4 -10,-7 -3,-2 -6,-5 -9,-8 -2,-3 -4,-6 -5,-9 -1,-3 -2,-7 -2,-10 -1,-6 0,-11 0,-17 1,-5 3,-10 5,-15 1,-3 3,-6 5,-8 2,-3 5,-6 8,-9 3,-2 7,-5 11,-7 4,-2 10,-4 16,-6 3,0 6,0 10,0 3,0 7,0 11,1 3,1 6,2 9,4 2,1 5,3 8,5 2,2 4,3 6,5 2,2 4,4 5,5 3,4 5,9 7,13 1,5 2,11 2,17zm-54 26c3,0 5,0 8,-1 2,0 4,-1 6,-2 5,-3 9,-7 11,-12 2,-5 3,-10 2,-16 -1,-3 -2,-6 -3,-8 -2,-3 -4,-5 -6,-6 -3,-2 -5,-3 -8,-4 -3,-1 -6,-1 -8,-1 -3,1 -6,1 -9,2 -3,1 -5,3 -7,5 -4,4 -6,9 -8,14 -1,5 -1,10 1,16 0,1 0,2 1,3 1,1 2,2 2,3 3,2 6,4 9,5 3,1 6,2 9,2z"/>
    <path id="1" class="fil16 str4" d="M5895 2237c0,5 -1,10 -3,15 -2,5 -5,10 -8,15 -3,5 -8,10 -13,13 -4,3 -10,6 -15,8 -2,0 -4,1 -5,1 -2,1 -4,1 -6,1 -2,0 -4,0 -6,0 -2,0 -4,0 -5,-1 -2,0 -4,-1 -7,-2 -3,-1 -6,-3 -9,-4 -4,-2 -7,-4 -10,-7 -3,-2 -6,-5 -9,-8 -2,-3 -4,-6 -5,-9 -1,-3 -2,-7 -2,-10 -1,-6 0,-11 0,-17 1,-5 3,-10 5,-15 1,-3 3,-6 5,-8 2,-3 5,-6 8,-9 3,-2 7,-5 11,-7 4,-2 10,-4 16,-6 3,0 6,0 10,0 3,0 7,0 11,1 3,1 6,2 9,4 2,1 5,3 8,5 2,2 4,3 6,5 2,2 4,4 5,5 3,4 5,9 7,13 1,5 2,11 2,17zm-54 26c3,0 5,0 8,-1 2,0 4,-1 6,-2 5,-3 9,-7 11,-12 2,-5 3,-10 2,-16 -1,-3 -2,-6 -3,-8 -2,-3 -4,-5 -6,-6 -3,-2 -5,-3 -8,-4 -3,-1 -6,-1 -8,-1 -3,1 -6,1 -9,2 -3,1 -5,3 -7,5 -4,4 -6,9 -8,14 -1,5 -1,10 1,16 0,1 0,2 1,3 1,1 2,2 2,3 3,2 6,4 9,5 3,1 6,2 9,2z"/>
    <path class="fil17" d="M5895 2326c0,5 -1,10 -3,15 -2,5 -5,10 -8,15 -3,6 -8,10 -13,13 -4,3 -10,6 -15,8 -2,0 -4,1 -5,1 -2,1 -4,1 -6,1 -2,0 -4,0 -6,0 -2,0 -4,0 -5,0 -2,-1 -4,-2 -7,-3 -3,-1 -6,-2 -9,-4 -4,-2 -7,-4 -10,-7 -3,-2 -6,-5 -9,-8 -2,-3 -4,-6 -5,-9 -1,-3 -2,-7 -2,-10 -1,-6 0,-11 0,-16 1,-6 3,-11 5,-16 1,-3 3,-5 5,-8 2,-3 5,-6 8,-9 3,-2 7,-5 11,-7 4,-2 10,-4 16,-5 3,-1 6,-1 10,-1 3,0 7,1 11,2 3,0 6,1 9,3 2,1 5,3 8,5 2,2 4,4 6,5 2,2 4,4 5,5 3,4 5,9 7,14 1,4 2,10 2,16zm-54 26c3,0 5,0 8,-1 2,0 4,-1 6,-2 5,-3 9,-7 11,-12 2,-5 3,-10 2,-16 -1,-3 -2,-6 -3,-8 -2,-2 -4,-5 -6,-6 -3,-2 -5,-3 -8,-4 -3,-1 -6,-1 -8,-1 -3,1 -6,1 -9,2 -3,1 -5,3 -7,5 -4,4 -6,9 -8,14 -1,5 -1,10 1,16 0,1 0,2 1,3 1,1 2,2 2,3 3,2 6,4 9,5 3,2 6,2 9,2z"/>
    <path id="1" class="fil16 str4" d="M5895 2326c0,5 -1,10 -3,15 -2,5 -5,10 -8,15 -3,6 -8,10 -13,13 -4,3 -10,6 -15,8 -2,0 -4,1 -5,1 -2,1 -4,1 -6,1 -2,0 -4,0 -6,0 -2,0 -4,0 -5,0 -2,-1 -4,-2 -7,-3 -3,-1 -6,-2 -9,-4 -4,-2 -7,-4 -10,-7 -3,-2 -6,-5 -9,-8 -2,-3 -4,-6 -5,-9 -1,-3 -2,-7 -2,-10 -1,-6 0,-11 0,-16 1,-6 3,-11 5,-16 1,-3 3,-5 5,-8 2,-3 5,-6 8,-9 3,-2 7,-5 11,-7 4,-2 10,-4 16,-5 3,-1 6,-1 10,-1 3,0 7,1 11,2 3,0 6,1 9,3 2,1 5,3 8,5 2,2 4,4 6,5 2,2 4,4 5,5 3,4 5,9 7,14 1,4 2,10 2,16zm-54 26c3,0 5,0 8,-1 2,0 4,-1 6,-2 5,-3 9,-7 11,-12 2,-5 3,-10 2,-16 -1,-3 -2,-6 -3,-8 -2,-2 -4,-5 -6,-6 -3,-2 -5,-3 -8,-4 -3,-1 -6,-1 -8,-1 -3,1 -6,1 -9,2 -3,1 -5,3 -7,5 -4,4 -6,9 -8,14 -1,5 -1,10 1,16 0,1 0,2 1,3 1,1 2,2 2,3 3,2 6,4 9,5 3,2 6,2 9,2z"/>
    <path class="fil9 str0" d="M5842 2263c2,0 5,0 7,0 2,-1 4,-1 6,-3 6,-3 9,-7 11,-12 3,-4 3,-10 2,-16 0,-3 -1,-5 -3,-8 -2,-2 -4,-4 -6,-6 -2,-2 -5,-3 -8,-4 -2,-1 -5,-1 -8,-1 -3,1 -6,2 -9,2 -2,1 -5,3 -7,5 -3,4 -6,9 -7,14 -2,5 -2,11 0,16 0,1 1,2 1,3 1,1 2,2 3,3 3,2 5,4 8,5 3,2 6,2 10,2z"/>
    <path class="fil6 str5" d="M5841 2352c3,0 5,0 8,0 2,0 4,-1 6,-2 5,-3 9,-7 11,-12 2,-5 3,-10 2,-16 -1,-3 -2,-6 -3,-8 -2,-3 -4,-5 -6,-7 -3,-1 -5,-3 -8,-4 -3,0 -6,-1 -9,0 -3,0 -5,1 -8,2 -3,1 -5,2 -7,5 -4,4 -6,8 -8,14 -1,5 -1,10 0,16 1,1 1,2 2,3 1,1 2,2 2,2 3,3 6,4 9,6 3,1 6,2 9,1z"/>
    <path class="fil6 str5" d="M5842 2263c2,0 5,0 7,0 2,-1 4,-1 6,-3 6,-3 9,-7 11,-12 3,-4 3,-10 2,-16 0,-3 -1,-5 -3,-8 -2,-2 -4,-4 -6,-6 -2,-2 -5,-3 -8,-4 -2,-1 -5,-1 -8,-1 -3,1 -6,2 -9,2 -2,1 -5,3 -7,5 -3,4 -6,9 -7,14 -2,5 -2,11 0,16 0,1 1,2 1,3 1,1 2,2 3,3 3,2 5,4 8,5 3,2 6,2 10,2z"/>
    <path class="fil17" d="M5894 2418c-1,5 -2,9 -3,15 -2,5 -5,10 -8,15 -4,5 -8,10 -13,13 -5,3 -10,5 -16,8 -1,0 -3,1 -5,1 -2,1 -4,1 -5,1 -2,0 -4,0 -6,0 -2,0 -4,0 -5,-1 -2,0 -5,-1 -7,-2 -3,-1 -6,-3 -10,-5 -3,-1 -6,-3 -9,-6 -4,-2 -7,-5 -9,-8 -3,-3 -4,-6 -5,-9 -2,-3 -2,-7 -2,-11 -1,-5 -1,-10 0,-16 1,-5 2,-10 5,-15 1,-3 3,-6 5,-9 2,-2 4,-5 7,-8 4,-3 7,-5 12,-7 4,-2 9,-4 15,-6 3,0 7,-1 10,0 4,0 8,0 12,1 2,1 5,2 8,4 3,1 6,3 8,5 3,1 5,3 7,5 2,2 4,4 5,5 3,4 5,9 6,13 2,5 3,10 3,17zm-54 26c3,0 5,0 7,-1 3,0 5,-1 7,-2 5,-3 9,-7 11,-12 2,-5 3,-10 2,-16 -1,-3 -2,-6 -4,-8 -1,-3 -3,-5 -5,-7 -3,-1 -5,-3 -8,-3 -3,-1 -6,-1 -9,-1 -3,0 -6,1 -8,2 -3,1 -5,2 -7,5 -4,4 -6,9 -8,14 -1,5 -1,10 0,16 1,1 1,2 2,3 1,1 1,2 2,3 3,2 6,4 9,5 3,1 6,2 9,2z"/>
    <path id="1" class="fil16 str4" d="M5894 2418c-1,5 -2,9 -3,15 -2,5 -5,10 -8,15 -4,5 -8,10 -13,13 -5,3 -10,5 -16,8 -1,0 -3,1 -5,1 -2,1 -4,1 -5,1 -2,0 -4,0 -6,0 -2,0 -4,0 -5,-1 -2,0 -5,-1 -7,-2 -3,-1 -6,-3 -10,-5 -3,-1 -6,-3 -9,-6 -4,-2 -7,-5 -9,-8 -3,-3 -4,-6 -5,-9 -2,-3 -2,-7 -2,-11 -1,-5 -1,-10 0,-16 1,-5 2,-10 5,-15 1,-3 3,-6 5,-9 2,-2 4,-5 7,-8 4,-3 7,-5 12,-7 4,-2 9,-4 15,-6 3,0 7,-1 10,0 4,0 8,0 12,1 2,1 5,2 8,4 3,1 6,3 8,5 3,1 5,3 7,5 2,2 4,4 5,5 3,4 5,9 6,13 2,5 3,10 3,17zm-54 26c3,0 5,0 7,-1 3,0 5,-1 7,-2 5,-3 9,-7 11,-12 2,-5 3,-10 2,-16 -1,-3 -2,-6 -4,-8 -1,-3 -3,-5 -5,-7 -3,-1 -5,-3 -8,-3 -3,-1 -6,-1 -9,-1 -3,0 -6,1 -8,2 -3,1 -5,2 -7,5 -4,4 -6,9 -8,14 -1,5 -1,10 0,16 1,1 1,2 2,3 1,1 1,2 2,3 3,2 6,4 9,5 3,1 6,2 9,2z"/>
    <path class="fil6 str5" d="M5840 2444c3,0 5,0 7,0 2,-1 5,-1 7,-2 5,-4 8,-8 11,-13 2,-4 3,-10 1,-16 0,-3 -1,-5 -3,-8 -1,-2 -3,-4 -6,-6 -2,-2 -4,-3 -7,-4 -3,-1 -6,-1 -9,0 -3,0 -6,1 -8,1 -3,1 -5,3 -7,5 -4,5 -7,9 -8,14 -1,5 -1,11 0,16 0,1 1,3 2,4 0,1 1,1 2,2 3,2 6,4 9,5 3,2 6,2 9,2z"/>
    <path class="fil18 str0" d="M5505 2315c0,6 0,11 0,14 1,4 1,9 1,15 0,2 -1,4 -2,5 -2,1 -5,1 -9,1 -10,0 -19,-1 -29,-1 -9,0 -19,0 -28,0 -51,0 -78,2 -129,0 -3,0 -6,0 -9,0 -9,-1 -18,-1 -27,0 -9,0 -18,0 -27,-1 -6,0 -10,-1 -11,-2 -2,-1 -3,-3 -3,-7 0,-14 0,-26 0,-37 0,-12 0,-24 0,-37 0,-21 1,-42 1,-63 1,-20 1,-41 2,-62l0 -11c0,-4 3,-7 9,-7 5,0 10,0 14,0 5,0 10,0 15,0 6,1 13,1 19,1 48,1 85,0 131,0l61 0c4,0 6,0 8,0 5,1 8,1 10,2 1,1 2,4 2,8 1,17 2,33 2,50 0,9 0,18 -1,28 0,9 0,18 -1,27 0,0 0,3 0,8 0,6 0,13 0,21 0,8 0,16 1,25 0,9 0,16 0,23z"/>
    <path class="fil19" d="M5366 2221c1,2 1,4 1,5 0,2 0,3 0,6 0,0 -1,1 -1,1 -1,1 -2,1 -3,1 -4,0 -7,0 -11,-1 -3,0 -6,0 -10,0 -18,0 -28,1 -46,0 -1,0 -2,0 -4,0 -3,0 -6,0 -9,0 -4,0 -7,0 -10,0 -2,0 -3,0 -4,-1 -1,0 -1,-1 -1,-2 0,-5 0,-10 0,-14 0,-4 0,-8 0,-13 0,-8 0,-15 0,-23 0,-7 1,-15 1,-22l0 -4c0,-2 1,-2 3,-2 2,0 4,-1 5,-1 2,0 4,0 6,1 2,0 4,0 7,0 17,0 30,0 47,0l22 0c1,0 2,0 3,0 2,0 3,0 3,1 1,0 1,1 1,2 1,6 1,12 1,18 0,4 0,7 0,10 -1,4 -1,7 -1,10 0,0 0,1 0,3 0,2 0,5 0,8 0,2 0,6 0,9 0,3 0,6 0,8z"/>
    <path class="fil19" d="M5366 2313c0,2 0,4 0,5 0,1 0,3 0,5 0,1 0,2 -1,2 0,0 -1,0 -3,0 -3,0 -7,0 -10,0 -3,0 -7,0 -10,0 -19,0 -28,1 -47,0 -1,0 -2,0 -3,0 -3,0 -7,0 -10,0 -3,0 -6,0 -9,0 -3,0 -4,-1 -5,-1 0,0 0,-1 0,-3 0,-4 0,-9 -1,-13 0,-4 0,-9 0,-13 1,-8 1,-15 1,-23 0,-7 0,-15 0,-22l0 -4c0,-2 2,-3 4,-3 2,0 3,0 5,0 2,0 3,0 5,0 3,0 5,0 7,0 17,1 31,0 47,0l22 0c2,0 3,0 3,0 2,1 3,1 4,1 0,1 1,2 1,3 0,6 0,12 0,18 0,3 0,7 0,10 0,3 0,7 0,10 0,0 0,1 0,3 0,2 0,4 0,7 0,3 0,6 0,9 0,4 0,6 0,9z"/>
    <path class="fil19" d="M5474 2222c0,2 0,4 0,5 1,1 1,3 1,5 0,1 -1,2 -1,2 -1,1 -2,1 -3,1 -4,0 -7,-1 -11,-1 -3,0 -7,0 -10,0 -18,0 -28,1 -46,0 -2,0 -3,0 -4,0 -3,0 -6,0 -10,0 -3,0 -6,0 -9,0 -2,0 -4,0 -4,-1 -1,0 -1,-1 -1,-2 0,-5 0,-10 0,-14 0,-4 0,-8 0,-13 0,-8 0,-15 0,-23 0,-7 0,-15 1,-22l0 -4c0,-2 1,-3 3,-3 2,0 3,0 5,0 2,0 4,0 5,0 3,1 5,1 7,1 18,0 31,0 48,0l22 0c1,0 2,0 3,0 1,0 2,0 3,1 1,0 1,1 1,2 0,6 1,12 1,18 0,4 -1,7 -1,10 0,4 0,7 0,10 0,0 0,1 0,3 0,2 0,5 0,8 0,2 0,5 0,9 0,3 0,6 0,8z"/>
    <path class="fil19" d="M5475 2314c0,2 0,4 0,5 0,1 0,3 0,5 0,1 0,2 -1,2 0,0 -1,0 -3,0 -3,0 -7,0 -10,0 -4,0 -7,0 -11,0 -18,0 -27,1 -46,0 -1,0 -2,0 -3,0 -4,0 -7,0 -10,0 -3,0 -6,0 -10,0 -2,0 -3,-1 -4,-1 0,0 -1,-1 -1,-3 0,-4 0,-9 0,-13 0,-4 0,-9 0,-13 0,-8 0,-15 1,-23 0,-7 0,-15 0,-22l0 -4c0,-2 1,-3 4,-3 1,0 3,0 5,0 1,0 3,0 5,0 2,0 5,0 7,0 17,1 31,0 47,0l22 0c2,0 3,0 3,0 2,1 3,1 4,1 0,1 0,2 1,3 0,6 0,12 0,18 0,3 0,7 0,10 0,3 0,7 0,10 0,0 0,1 0,3 0,2 0,4 0,7 0,3 0,6 0,9 0,4 0,6 0,9z"/>
    <path class="fil9 str0" d="M4017 3265c-13,18 -27,36 -39,54 13,-18 26,-36 39,-54z"/>
    <polygon class="fil20" points="4710,2617 4708,2532 4968,2533 4970,2820 "/>
    <polygon class="fil11 str0" points="4909,3359 4910,3071 4323,2612 3790,3065 3793,3356 "/>
    <rect class="fil11 str1" x="3816" y="3054" width="1134.82" height="79.0772"/>
    <rect class="fil11 str1" x="3816" y="2975" width="1134.82" height="79.0772"/>
    <rect class="fil11 str1" x="3816" y="2896" width="1134.82" height="79.0772"/>
    <polygon class="fil11 str0" points="3900,2817 4790,2817 4790,2896 3900,2896 "/>
    <polygon class="fil12 str0" points="3958,2814 4787,2814 4790,2814 4790,2817 4790,2896 4790,2899 4787,2899 3958,2899 3958,2893 4785,2893 4785,2820 3958,2820 "/>
    <polygon class="fil11 str0" points="3981,2738 4732,2738 4732,2817 3981,2817 "/>
    <polygon class="fil13 str0" points="3981,2735 4715,2735 4717,2735 4717,2738 4717,2817 4717,2820 4715,2820 3981,2820 3981,2814 4713,2814 4713,2741 3981,2741 "/>
    <polygon class="fil11 str0" points="4119,2659 4622,2659 4622,2738 4119,2738 "/>
    <polygon class="fil11 str0" points="4557,2609 4557,2657 4162,2657 4162,2609 "/>
    <rect class="fil11 str1" x="3816" y="3134" width="1134.82" height="79.0772"/>
    <rect class="fil11 str1" x="3816" y="3213" width="1134.82" height="79.0772"/>
    <polygon class="fil21" points="4370,2410 3546,3085 3663,3184 4365,2610 5099,3180 5228,3081 "/>
    <path class="fil15" d="M3885 3100c0,5 -1,11 -3,18 -2,6 -6,12 -10,18 -4,6 -9,11 -15,15 -5,4 -12,7 -18,9 -2,1 -4,2 -7,2 -2,1 -4,1 -6,1 -3,0 -5,0 -7,0 -2,0 -5,0 -7,-1 -2,0 -4,-1 -8,-2 -3,-2 -7,-4 -11,-6 -4,-2 -8,-4 -11,-7 -4,-3 -8,-6 -11,-10 -3,-3 -5,-7 -6,-11 -2,-4 -2,-8 -3,-12 0,-7 0,-13 1,-20 1,-6 3,-12 6,-18 1,-3 3,-7 6,-10 2,-3 5,-7 9,-10 4,-3 8,-6 13,-9 5,-2 12,-4 19,-6 3,-1 7,-1 12,-1 4,0 9,1 13,2 4,1 7,2 10,4 4,2 7,4 10,6 3,2 6,4 8,7 3,2 4,4 6,5 3,5 6,11 8,16 1,6 2,12 2,20zm-64 31c4,0 7,0 9,-1 3,0 5,-1 8,-2 6,-4 10,-9 13,-15 3,-6 3,-12 2,-19 -1,-4 -2,-7 -4,-10 -2,-3 -4,-5 -7,-7 -2,-2 -6,-4 -9,-5 -3,-1 -7,-1 -10,0 -4,0 -7,1 -10,2 -3,1 -6,3 -8,6 -5,5 -8,10 -10,16 -1,6 -1,13 0,20 1,1 1,2 2,3 1,1 2,2 3,3 3,3 7,5 10,7 4,1 8,2 11,2z"/>
    <path id="1" class="fil16 str2" d="M3885 3100c0,5 -1,11 -3,18 -2,6 -6,12 -10,18 -4,6 -9,11 -15,15 -5,4 -12,7 -18,9 -2,1 -4,2 -7,2 -2,1 -4,1 -6,1 -3,0 -5,0 -7,0 -2,0 -5,0 -7,-1 -2,0 -4,-1 -8,-2 -3,-2 -7,-4 -11,-6 -4,-2 -8,-4 -11,-7 -4,-3 -8,-6 -11,-10 -3,-3 -5,-7 -6,-11 -2,-4 -2,-8 -3,-12 0,-7 0,-13 1,-20 1,-6 3,-12 6,-18 1,-3 3,-7 6,-10 2,-3 5,-7 9,-10 4,-3 8,-6 13,-9 5,-2 12,-4 19,-6 3,-1 7,-1 12,-1 4,0 9,1 13,2 4,1 7,2 10,4 4,2 7,4 10,6 3,2 6,4 8,7 3,2 4,4 6,5 3,5 6,11 8,16 1,6 2,12 2,20zm-64 31c4,0 7,0 9,-1 3,0 5,-1 8,-2 6,-4 10,-9 13,-15 3,-6 3,-12 2,-19 -1,-4 -2,-7 -4,-10 -2,-3 -4,-5 -7,-7 -2,-2 -6,-4 -9,-5 -3,-1 -7,-1 -10,0 -4,0 -7,1 -10,2 -3,1 -6,3 -8,6 -5,5 -8,10 -10,16 -1,6 -1,13 0,20 1,1 1,2 2,3 1,1 2,2 3,3 3,3 7,5 10,7 4,1 8,2 11,2z"/>
    <path class="fil15" d="M3885 3206c0,6 -1,12 -3,18 -2,6 -6,12 -10,18 -4,7 -9,12 -15,15 -5,4 -12,7 -18,10 -2,1 -4,1 -7,2 -2,0 -4,0 -6,1 -3,0 -5,0 -7,0 -2,0 -5,-1 -7,-1 -2,-1 -4,-2 -8,-3 -3,-1 -7,-3 -11,-5 -4,-2 -8,-5 -11,-8 -4,-3 -8,-6 -11,-10 -3,-3 -5,-6 -6,-10 -2,-4 -2,-9 -3,-13 0,-6 0,-13 1,-19 1,-6 3,-13 6,-19 1,-3 3,-6 6,-10 2,-3 5,-6 9,-9 4,-4 8,-7 13,-9 5,-3 12,-5 19,-7 3,0 7,-1 12,-1 4,0 9,1 13,2 4,1 7,3 10,4 4,2 7,4 10,6 3,3 6,5 8,7 3,2 4,4 6,6 3,5 6,10 8,15 1,6 2,13 2,20zm-64 31c4,0 7,0 9,0 3,-1 5,-2 8,-3 6,-4 10,-9 13,-14 3,-6 3,-13 2,-20 -1,-3 -2,-6 -4,-9 -2,-3 -4,-6 -7,-8 -2,-2 -6,-3 -9,-4 -3,-1 -7,-2 -10,-1 -4,0 -7,1 -10,2 -3,1 -6,3 -8,6 -5,5 -8,11 -10,17 -1,6 -1,12 0,19 1,1 1,2 2,4 1,1 2,2 3,3 3,2 7,4 10,6 4,2 8,2 11,2z"/>
    <path id="1" class="fil16 str2" d="M3885 3206c0,6 -1,12 -3,18 -2,6 -6,12 -10,18 -4,7 -9,12 -15,15 -5,4 -12,7 -18,10 -2,1 -4,1 -7,2 -2,0 -4,0 -6,1 -3,0 -5,0 -7,0 -2,0 -5,-1 -7,-1 -2,-1 -4,-2 -8,-3 -3,-1 -7,-3 -11,-5 -4,-2 -8,-5 -11,-8 -4,-3 -8,-6 -11,-10 -3,-3 -5,-6 -6,-10 -2,-4 -2,-9 -3,-13 0,-6 0,-13 1,-19 1,-6 3,-13 6,-19 1,-3 3,-6 6,-10 2,-3 5,-6 9,-9 4,-4 8,-7 13,-9 5,-3 12,-5 19,-7 3,0 7,-1 12,-1 4,0 9,1 13,2 4,1 7,3 10,4 4,2 7,4 10,6 3,3 6,5 8,7 3,2 4,4 6,6 3,5 6,10 8,15 1,6 2,13 2,20zm-64 31c4,0 7,0 9,0 3,-1 5,-2 8,-3 6,-4 10,-9 13,-14 3,-6 3,-13 2,-20 -1,-3 -2,-6 -4,-9 -2,-3 -4,-6 -7,-8 -2,-2 -6,-3 -9,-4 -3,-1 -7,-2 -10,-1 -4,0 -7,1 -10,2 -3,1 -6,3 -8,6 -5,5 -8,11 -10,17 -1,6 -1,12 0,19 1,1 1,2 2,4 1,1 2,2 3,3 3,2 7,4 10,6 4,2 8,2 11,2z"/>
    <path class="fil5 str3" d="M3822 3131c3,0 6,0 9,0 2,-1 5,-2 7,-3 6,-4 11,-9 13,-14 3,-6 4,-13 2,-20 0,-3 -1,-6 -3,-9 -2,-3 -5,-6 -7,-8 -3,-2 -6,-3 -9,-4 -4,-1 -7,-2 -11,-1 -3,0 -7,1 -10,2 -3,1 -6,3 -8,6 -5,5 -8,11 -9,17 -2,6 -2,12 0,19 0,1 1,2 2,4 1,1 2,2 3,3 3,2 6,4 10,6 3,2 7,2 11,2z"/>
    <path class="fil6 str3" d="M3822 3131c3,0 6,0 9,0 2,-1 5,-2 7,-3 6,-4 11,-9 13,-14 3,-6 4,-13 2,-20 0,-3 -1,-6 -3,-9 -2,-3 -5,-6 -7,-8 -3,-2 -6,-3 -9,-4 -4,-1 -7,-2 -11,-1 -3,0 -7,1 -10,2 -3,1 -6,3 -8,6 -5,5 -8,11 -9,17 -2,6 -2,12 0,19 0,1 1,2 2,4 1,1 2,2 3,3 3,2 6,4 10,6 3,2 7,2 11,2z"/>
    <path class="fil6 str3" d="M3821 3238c4,0 6,0 9,-1 3,0 5,-1 8,-2 6,-4 10,-9 13,-15 3,-5 3,-12 2,-19 -1,-4 -2,-7 -4,-10 -2,-3 -4,-5 -7,-7 -3,-2 -6,-4 -9,-5 -3,-1 -7,-1 -10,0 -4,0 -7,1 -10,2 -4,1 -6,3 -9,6 -4,5 -7,10 -9,16 -2,6 -2,13 0,20 1,1 1,2 2,3 1,1 2,2 3,3 3,3 7,5 10,7 4,1 7,2 11,2z"/>
    <path class="fil15" d="M3884 3316c0,5 -2,11 -4,17 -2,7 -5,13 -9,19 -4,6 -9,11 -15,15 -6,4 -12,7 -19,9 -2,1 -4,2 -6,2 -2,1 -5,1 -7,1 -2,0 -5,0 -7,0 -2,0 -4,0 -6,-1 -2,0 -5,-1 -8,-3 -4,-1 -7,-3 -11,-5 -4,-2 -8,-4 -12,-7 -4,-3 -7,-7 -10,-10 -3,-3 -5,-7 -7,-11 -1,-4 -2,-8 -2,-12 -1,-7 0,-13 1,-20 1,-6 2,-12 5,-18 2,-3 4,-7 6,-10 2,-4 6,-7 9,-10 4,-3 9,-6 14,-9 5,-2 11,-5 18,-6 4,-1 8,-1 12,-1 5,0 9,1 14,2 3,1 7,2 10,4 3,2 7,4 10,6 3,2 5,4 8,6 2,3 4,5 5,6 4,5 7,10 8,16 2,6 3,12 3,20zm-64 30c3,1 6,0 9,0 2,0 5,-1 7,-3 6,-4 11,-8 14,-14 2,-6 3,-12 2,-19 -1,-4 -2,-7 -4,-10 -2,-3 -4,-5 -7,-7 -3,-2 -6,-4 -9,-5 -4,-1 -7,-1 -11,-1 -3,1 -7,2 -10,3 -3,1 -6,3 -8,5 -5,5 -8,11 -9,17 -2,6 -2,12 0,19 0,2 1,3 2,4 1,1 2,2 3,3 3,3 6,5 10,6 3,2 7,3 11,2z"/>
    <path id="1" class="fil16 str2" d="M3884 3316c0,5 -2,11 -4,17 -2,7 -5,13 -9,19 -4,6 -9,11 -15,15 -6,4 -12,7 -19,9 -2,1 -4,2 -6,2 -2,1 -5,1 -7,1 -2,0 -5,0 -7,0 -2,0 -4,0 -6,-1 -2,0 -5,-1 -8,-3 -4,-1 -7,-3 -11,-5 -4,-2 -8,-4 -12,-7 -4,-3 -7,-7 -10,-10 -3,-3 -5,-7 -7,-11 -1,-4 -2,-8 -2,-12 -1,-7 0,-13 1,-20 1,-6 2,-12 5,-18 2,-3 4,-7 6,-10 2,-4 6,-7 9,-10 4,-3 9,-6 14,-9 5,-2 11,-5 18,-6 4,-1 8,-1 12,-1 5,0 9,1 14,2 3,1 7,2 10,4 3,2 7,4 10,6 3,2 5,4 8,6 2,3 4,5 5,6 4,5 7,10 8,16 2,6 3,12 3,20zm-64 30c3,1 6,0 9,0 2,0 5,-1 7,-3 6,-4 11,-8 14,-14 2,-6 3,-12 2,-19 -1,-4 -2,-7 -4,-10 -2,-3 -4,-5 -7,-7 -3,-2 -6,-4 -9,-5 -4,-1 -7,-1 -11,-1 -3,1 -7,2 -10,3 -3,1 -6,3 -8,5 -5,5 -8,11 -9,17 -2,6 -2,12 0,19 0,2 1,3 2,4 1,1 2,2 3,3 3,3 6,5 10,6 3,2 7,3 11,2z"/>
    <path class="fil6 str3" d="M3820 3347c3,0 6,0 9,0 2,-1 5,-2 7,-3 6,-4 11,-9 13,-14 3,-6 4,-12 2,-20 0,-3 -1,-6 -3,-9 -2,-3 -5,-6 -7,-8 -3,-2 -6,-3 -10,-4 -3,-1 -6,-1 -10,-1 -3,0 -7,1 -10,2 -3,1 -6,3 -8,6 -5,5 -8,11 -9,17 -2,6 -2,12 0,19 0,1 1,2 2,4 1,1 1,2 2,3 4,2 7,5 11,6 3,2 7,2 11,2z"/>
    <path class="fil22" d="M4987 3075c-1,5 -2,11 -4,18 -2,6 -5,12 -9,18 -5,6 -10,11 -15,15 -6,4 -13,7 -19,9 -2,1 -4,2 -6,2 -3,1 -5,1 -7,1 -3,0 -5,0 -7,0 -2,0 -4,0 -6,-1 -3,0 -5,-1 -9,-2 -3,-2 -7,-4 -11,-6 -4,-2 -7,-4 -11,-7 -4,-3 -8,-6 -11,-10 -3,-3 -5,-7 -6,-11 -1,-4 -2,-8 -3,-12 0,-7 0,-13 1,-20 1,-6 3,-12 6,-18 1,-3 3,-7 6,-10 2,-3 5,-7 9,-10 4,-3 8,-6 13,-9 6,-2 12,-5 19,-6 3,-1 7,-1 12,-1 4,0 9,1 13,2 4,1 7,2 11,4 3,2 6,4 9,6 3,2 6,4 8,7 3,2 4,4 6,5 4,5 6,10 8,16 2,6 2,12 3,20zm-64 31c3,0 6,0 8,-1 3,0 5,-1 8,-3 6,-3 10,-8 13,-14 3,-6 3,-12 2,-19 0,-4 -2,-7 -4,-10 -1,-3 -4,-5 -7,-7 -2,-2 -5,-4 -9,-5 -3,-1 -7,-1 -10,0 -4,0 -7,1 -10,2 -3,1 -6,3 -8,6 -5,5 -8,10 -10,16 -1,6 -1,13 1,19 0,2 1,3 1,4 1,1 2,2 3,3 4,3 7,5 11,7 3,1 7,2 11,2z"/>
    <path id="1" class="fil16 str6" d="M4987 3075c-1,5 -2,11 -4,18 -2,6 -5,12 -9,18 -5,6 -10,11 -15,15 -6,4 -13,7 -19,9 -2,1 -4,2 -6,2 -3,1 -5,1 -7,1 -3,0 -5,0 -7,0 -2,0 -4,0 -6,-1 -3,0 -5,-1 -9,-2 -3,-2 -7,-4 -11,-6 -4,-2 -7,-4 -11,-7 -4,-3 -8,-6 -11,-10 -3,-3 -5,-7 -6,-11 -1,-4 -2,-8 -3,-12 0,-7 0,-13 1,-20 1,-6 3,-12 6,-18 1,-3 3,-7 6,-10 2,-3 5,-7 9,-10 4,-3 8,-6 13,-9 6,-2 12,-5 19,-6 3,-1 7,-1 12,-1 4,0 9,1 13,2 4,1 7,2 11,4 3,2 6,4 9,6 3,2 6,4 8,7 3,2 4,4 6,5 4,5 6,10 8,16 2,6 2,12 3,20zm-64 31c3,0 6,0 8,-1 3,0 5,-1 8,-3 6,-3 10,-8 13,-14 3,-6 3,-12 2,-19 0,-4 -2,-7 -4,-10 -1,-3 -4,-5 -7,-7 -2,-2 -5,-4 -9,-5 -3,-1 -7,-1 -10,0 -4,0 -7,1 -10,2 -3,1 -6,3 -8,6 -5,5 -8,10 -10,16 -1,6 -1,13 1,19 0,2 1,3 1,4 1,1 2,2 3,3 4,3 7,5 11,7 3,1 7,2 11,2z"/>
    <path class="fil22" d="M4987 3181c-1,6 -2,12 -4,18 -2,6 -5,12 -9,18 -5,7 -10,12 -15,15 -6,4 -13,7 -19,10 -2,1 -4,1 -6,2 -3,0 -5,0 -7,1 -3,0 -5,0 -7,0 -2,0 -4,-1 -6,-1 -3,-1 -5,-2 -9,-3 -3,-1 -7,-3 -11,-5 -4,-2 -7,-5 -11,-8 -4,-3 -8,-6 -11,-10 -3,-3 -5,-7 -6,-10 -1,-4 -2,-9 -3,-13 0,-6 0,-13 1,-19 1,-6 3,-13 6,-19 1,-3 3,-6 6,-10 2,-3 5,-6 9,-10 4,-3 8,-6 13,-8 6,-3 12,-5 19,-7 3,-1 7,-1 12,-1 4,0 9,1 13,2 4,1 7,2 11,4 3,2 6,4 9,6 3,2 6,5 8,7 3,2 4,4 6,6 4,5 6,10 8,15 2,6 2,13 3,20zm-64 31c3,0 6,0 8,0 3,-1 5,-2 8,-3 6,-4 10,-9 13,-14 3,-6 3,-13 2,-20 0,-3 -2,-6 -4,-9 -1,-3 -4,-6 -7,-8 -2,-2 -5,-3 -9,-4 -3,-1 -7,-2 -10,-1 -4,0 -7,1 -10,2 -3,1 -6,3 -8,6 -5,5 -8,11 -10,17 -1,6 -1,12 1,19 0,1 1,2 1,4 1,1 2,2 3,3 4,2 7,4 11,6 3,2 7,2 11,2z"/>
    <path id="1" class="fil16 str6" d="M4987 3181c-1,6 -2,12 -4,18 -2,6 -5,12 -9,18 -5,7 -10,12 -15,15 -6,4 -13,7 -19,10 -2,1 -4,1 -6,2 -3,0 -5,0 -7,1 -3,0 -5,0 -7,0 -2,0 -4,-1 -6,-1 -3,-1 -5,-2 -9,-3 -3,-1 -7,-3 -11,-5 -4,-2 -7,-5 -11,-8 -4,-3 -8,-6 -11,-10 -3,-3 -5,-7 -6,-10 -1,-4 -2,-9 -3,-13 0,-6 0,-13 1,-19 1,-6 3,-13 6,-19 1,-3 3,-6 6,-10 2,-3 5,-6 9,-10 4,-3 8,-6 13,-8 6,-3 12,-5 19,-7 3,-1 7,-1 12,-1 4,0 9,1 13,2 4,1 7,2 11,4 3,2 6,4 9,6 3,2 6,5 8,7 3,2 4,4 6,6 4,5 6,10 8,15 2,6 2,13 3,20zm-64 31c3,0 6,0 8,0 3,-1 5,-2 8,-3 6,-4 10,-9 13,-14 3,-6 3,-13 2,-20 0,-3 -2,-6 -4,-9 -1,-3 -4,-6 -7,-8 -2,-2 -5,-3 -9,-4 -3,-1 -7,-2 -10,-1 -4,0 -7,1 -10,2 -3,1 -6,3 -8,6 -5,5 -8,11 -10,17 -1,6 -1,12 1,19 0,1 1,2 1,4 1,1 2,2 3,3 4,2 7,4 11,6 3,2 7,2 11,2z"/>
    <path class="fil9 str0" d="M4923 3106c3,0 6,0 9,0 2,-1 5,-2 7,-3 6,-4 11,-9 14,-14 2,-6 3,-13 2,-20 -1,-3 -2,-6 -4,-9 -2,-3 -4,-6 -7,-8 -3,-2 -6,-3 -9,-4 -4,-1 -7,-2 -11,-1 -3,0 -7,1 -10,2 -3,1 -6,3 -8,6 -4,5 -8,11 -9,17 -2,6 -2,12 0,19 0,1 1,2 2,4 1,1 2,2 3,3 3,2 6,4 10,6 3,2 7,2 11,2z"/>
    <path class="fil6 str0" d="M4922 3213c4,0 7,0 9,-1 3,0 5,-1 8,-2 6,-4 10,-9 13,-15 3,-6 3,-12 2,-19 -1,-4 -2,-7 -4,-10 -2,-3 -4,-5 -7,-7 -3,-2 -6,-4 -9,-5 -3,-1 -7,-1 -10,0 -4,0 -7,1 -10,2 -3,1 -6,3 -9,6 -4,5 -7,10 -9,16 -2,6 -1,13 0,20 1,1 1,2 2,3 1,1 2,2 3,3 3,3 7,5 10,7 4,1 8,2 11,2z"/>
    <path class="fil6 str0" d="M4923 3106c3,0 6,0 9,0 2,-1 5,-2 7,-3 6,-4 11,-9 14,-14 2,-6 3,-13 2,-20 -1,-3 -2,-6 -4,-9 -2,-3 -4,-6 -7,-8 -3,-2 -6,-3 -9,-4 -4,-1 -7,-2 -11,-1 -3,0 -7,1 -10,2 -3,1 -6,3 -8,6 -4,5 -8,11 -9,17 -2,6 -2,12 0,19 0,1 1,2 2,4 1,1 2,2 3,3 3,2 6,4 10,6 3,2 7,2 11,2z"/>
    <path class="fil22" d="M4985 3291c0,5 -1,11 -4,17 -2,7 -5,13 -9,19 -4,6 -9,11 -15,15 -6,4 -12,7 -19,9 -2,1 -4,2 -6,2 -2,1 -5,1 -7,1 -2,0 -4,0 -7,0 -2,0 -4,0 -6,-1 -2,0 -5,-1 -8,-3 -4,-1 -7,-3 -11,-5 -4,-2 -8,-5 -12,-7 -4,-3 -7,-7 -10,-10 -3,-3 -5,-7 -7,-11 -1,-4 -2,-8 -2,-12 0,-7 0,-13 1,-20 1,-6 3,-12 5,-18 2,-3 4,-7 6,-10 3,-4 6,-7 9,-10 4,-3 9,-6 14,-9 5,-3 11,-5 18,-6 4,-1 8,-1 12,-1 5,0 9,0 14,2 3,1 7,2 10,4 4,2 7,4 10,6 3,2 6,4 8,6 2,3 4,5 5,6 4,5 7,10 8,16 2,5 3,12 3,20zm-64 30c3,1 6,0 9,0 2,0 5,-1 7,-3 7,-4 11,-8 14,-14 2,-6 3,-12 2,-19 -1,-4 -2,-7 -4,-10 -2,-3 -4,-5 -7,-7 -3,-2 -6,-4 -9,-5 -4,-1 -7,-1 -11,-1 -3,1 -6,2 -10,3 -3,1 -6,3 -8,5 -4,5 -7,11 -9,17 -2,6 -2,12 0,19 0,2 1,3 2,4 1,1 2,2 3,3 3,3 6,5 10,6 4,2 7,3 11,2z"/>
    <path id="1" class="fil16 str6" d="M4985 3291c0,5 -1,11 -4,17 -2,7 -5,13 -9,19 -4,6 -9,11 -15,15 -6,4 -12,7 -19,9 -2,1 -4,2 -6,2 -2,1 -5,1 -7,1 -2,0 -4,0 -7,0 -2,0 -4,0 -6,-1 -2,0 -5,-1 -8,-3 -4,-1 -7,-3 -11,-5 -4,-2 -8,-5 -12,-7 -4,-3 -7,-7 -10,-10 -3,-3 -5,-7 -7,-11 -1,-4 -2,-8 -2,-12 0,-7 0,-13 1,-20 1,-6 3,-12 5,-18 2,-3 4,-7 6,-10 3,-4 6,-7 9,-10 4,-3 9,-6 14,-9 5,-3 11,-5 18,-6 4,-1 8,-1 12,-1 5,0 9,0 14,2 3,1 7,2 10,4 4,2 7,4 10,6 3,2 6,4 8,6 2,3 4,5 5,6 4,5 7,10 8,16 2,5 3,12 3,20zm-64 30c3,1 6,0 9,0 2,0 5,-1 7,-3 7,-4 11,-8 14,-14 2,-6 3,-12 2,-19 -1,-4 -2,-7 -4,-10 -2,-3 -4,-5 -7,-7 -3,-2 -6,-4 -9,-5 -4,-1 -7,-1 -11,-1 -3,1 -6,2 -10,3 -3,1 -6,3 -8,5 -4,5 -7,11 -9,17 -2,6 -2,12 0,19 0,2 1,3 2,4 1,1 2,2 3,3 3,3 6,5 10,6 4,2 7,3 11,2z"/>
    <path class="fil6 str0" d="M4921 3322c3,0 6,0 9,0 2,-1 5,-2 7,-3 6,-4 11,-9 13,-14 3,-6 4,-13 2,-20 0,-3 -1,-6 -3,-9 -2,-3 -4,-6 -7,-8 -3,-2 -6,-3 -9,-4 -4,-1 -7,-2 -11,-1 -3,0 -7,1 -10,2 -3,1 -6,3 -8,6 -5,5 -8,11 -9,17 -2,6 -2,12 0,19 0,1 1,2 2,4 1,1 2,2 3,3 3,2 6,4 10,6 3,2 7,2 11,2z"/>
    <path class="fil18 str0" d="M4521 3167c0,8 1,14 1,18 0,4 0,10 0,17 0,4 -1,6 -2,7 -2,1 -6,1 -11,1 -11,-1 -23,-1 -34,-1 -11,0 -23,0 -34,0 -61,0 -93,2 -153,0 -4,0 -8,0 -12,-1 -10,0 -21,0 -32,0 -10,1 -21,0 -31,0 -8,-1 -12,-2 -14,-3 -2,-1 -3,-4 -3,-9 0,-16 0,-30 -1,-44 0,-14 0,-28 0,-44 1,-25 1,-50 2,-74 0,-25 1,-50 2,-75l0 -13c0,-5 4,-8 11,-8 6,0 11,0 17,0 6,0 11,0 17,0 8,0 16,1 23,1 57,1 102,0 157,0l72 0c5,0 8,0 10,0 6,1 9,1 11,3 2,1 3,4 3,8 2,21 2,41 2,61 0,11 0,21 0,32 -1,11 -1,22 -2,33 0,0 0,3 0,10 0,7 0,15 0,24 0,10 1,20 1,30 0,11 0,20 0,27z"/>
    <path class="fil19" d="M4356 3056c0,2 0,4 0,6 0,2 0,4 0,6 0,1 0,2 -1,3 0,0 -1,0 -3,0 -4,0 -9,0 -13,0 -4,0 -8,0 -12,0 -22,0 -33,1 -55,0 -2,0 -3,0 -4,0 -4,-1 -8,-1 -12,-1 -4,1 -8,1 -11,0 -3,0 -5,0 -5,-1 -1,0 -1,-1 -1,-3 0,-6 0,-11 -1,-16 0,-5 0,-10 0,-16 1,-9 1,-18 1,-27 0,-8 0,-17 1,-26l0 -5c0,-2 1,-3 4,-3 2,0 4,0 6,0 2,0 4,0 6,0 3,0 6,0 8,0 21,1 37,0 57,0l26 0c2,0 3,0 3,0 3,0 4,1 5,1 0,1 1,2 1,3 0,8 0,15 0,22 0,4 0,8 0,12 0,4 0,8 0,12 0,0 0,1 0,3 0,3 0,6 0,9 0,4 0,7 0,11 0,4 0,7 0,10z"/>
    <path class="fil19" d="M4355 3165c1,3 1,5 1,6 0,2 0,4 0,7 0,1 0,2 -1,2 -1,0 -2,0 -4,0 -4,0 -8,0 -12,0 -4,0 -8,0 -13,0 -21,0 -33,1 -55,0 -1,0 -3,0 -4,0 -4,0 -8,0 -11,0 -4,0 -8,0 -12,0 -3,0 -4,-1 -5,-1 -1,-1 -1,-2 -1,-4 0,-5 0,-10 0,-15 0,-5 0,-11 0,-16 0,-9 0,-18 0,-27 1,-9 1,-18 1,-27l0 -5c0,-2 1,-3 4,-3 2,0 4,0 6,0 2,0 4,0 7,0 2,0 5,1 8,1 20,0 36,-1 56,-1l26 0c2,0 3,1 4,1 2,0 3,0 4,1 1,0 1,1 1,3 1,7 1,14 1,22 0,3 0,7 0,11 -1,4 -1,8 -1,12 0,0 0,1 0,4 0,2 0,5 0,9 0,3 0,7 0,10 0,4 0,7 0,10z"/>
    <path class="fil19" d="M4485 3057c0,3 0,5 0,6 0,2 0,4 0,7 0,1 0,1 -1,2 -1,0 -2,0 -4,0 -4,0 -8,0 -12,0 -4,0 -8,0 -12,0 -22,0 -34,1 -56,0 -1,0 -2,0 -4,0 -4,-1 -8,-1 -11,0 -4,0 -8,0 -12,-1 -2,0 -4,0 -5,-1 0,0 -1,-1 -1,-3 0,-5 0,-11 0,-16 0,-5 0,-10 0,-16 0,-9 0,-18 1,-26 0,-9 0,-18 0,-27l0 -5c0,-2 2,-3 4,-3 2,0 4,0 6,0 2,0 5,0 7,0 2,0 5,0 8,0 21,1 37,0 56,0l27 0c1,0 2,0 3,0 2,1 4,1 4,1 1,1 1,2 1,3 1,8 1,15 1,22 0,4 0,8 0,12 0,4 -1,8 -1,12 0,0 0,1 0,4 0,2 0,5 0,8 0,4 0,7 0,11 1,4 1,7 1,10z"/>
    <path class="fil19" d="M4485 3166c0,3 0,5 1,7 0,1 0,3 0,6 0,1 -1,2 -1,2 -1,1 -2,1 -4,1 -4,-1 -8,-1 -12,-1 -5,0 -9,0 -13,0 -22,0 -33,1 -55,0 -1,0 -3,0 -4,0 -4,0 -8,0 -12,0 -4,0 -7,0 -11,0 -3,0 -4,-1 -5,-1 -1,-1 -1,-2 -1,-3 0,-6 0,-11 0,-16 0,-5 0,-10 0,-16 0,-9 0,-18 0,-27 0,-9 1,-18 1,-27l0 -5c0,-2 1,-3 4,-3 2,0 4,0 6,0 2,0 4,0 6,0 3,1 6,1 9,1 20,0 36,0 56,0l26 0c2,0 3,0 4,0 2,0 3,0 4,1 0,0 1,1 1,3 0,7 1,14 1,22 0,4 0,8 -1,11 0,4 0,8 0,12 0,0 0,1 0,4 0,2 0,5 0,9 0,3 0,7 0,10 0,4 0,8 0,10z"/>
    <path class="fil9 str0" d="M5125 3715c-22,31 -45,61 -67,92 23,-30 45,-61 67,-92z"/>
    <polygon class="fil23" points="6249,2584 6246,2460 6623,2462 6626,2878 "/>
    <polygon class="fil11 str0" points="6645,3876 6647,3385 5646,2603 4739,3374 4743,3871 "/>
    <rect class="fil11 str1" x="4782" y="3357" width="1933" height="135"/>
    <rect class="fil11 str1" x="4782" y="3222" width="1933" height="135"/>
    <rect class="fil11 str1" x="4782" y="3087" width="1933" height="135"/>
    <polygon class="fil11 str0" points="4925,2952 6442,2952 6442,3087 4925,3087 "/>
    <polygon class="fil24 str7" points="5024,2948 6438,2948 6442,2948 6442,2952 6442,3087 6442,3092 6438,3092 5024,3092 5024,3082 6434,3082 6434,2957 5024,2957 "/>
    <polygon class="fil11 str0" points="5064,2818 6343,2818 6343,2952 5064,2952 "/>
    <polygon class="fil24 str7" points="5064,2813 6314,2813 6317,2813 6317,2818 6317,2952 6317,2957 6314,2957 5064,2957 5064,2948 6311,2948 6311,2823 5064,2823 "/>
    <polygon class="fil11 str0" points="5300,2683 6157,2683 6157,2818 5300,2818 "/>
    <polygon class="fil11 str0" points="6045,2598 6045,2680 5373,2680 5373,2598 "/>
    <rect class="fil11 str1" x="4782" y="3491" width="1933" height="135"/>
    <rect class="fil11 str1" x="4782" y="3626" width="1933" height="135"/>
    <path class="fil15" d="M4901 3434c-1,10 -3,20 -6,30 -4,11 -9,21 -16,32 -7,10 -16,19 -26,25 -10,6 -20,12 -32,16 -3,1 -7,2 -10,3 -4,1 -8,2 -12,2 -4,0 -8,0 -12,0 -3,0 -7,-1 -10,-1 -4,-1 -9,-3 -15,-5 -5,-3 -12,-6 -18,-9 -7,-4 -13,-8 -20,-13 -7,-5 -13,-11 -18,-17 -5,-5 -8,-11 -11,-18 -2,-7 -3,-14 -4,-21 0,-12 0,-23 2,-33 1,-11 4,-22 9,-32 3,-5 6,-11 10,-17 4,-6 9,-11 16,-17 6,-5 14,-10 23,-14 9,-5 19,-9 31,-12 6,-1 13,-1 21,-1 7,0 15,1 23,3 5,2 11,4 17,7 6,3 12,7 17,10 5,4 9,8 13,12 4,3 7,7 10,10 6,8 11,17 13,26 3,10 5,21 5,34zm-109 52c5,1 10,0 15,0 4,-1 9,-3 13,-5 10,-6 18,-15 22,-24 5,-10 6,-21 4,-33 -1,-6 -3,-12 -7,-17 -3,-5 -7,-9 -12,-12 -4,-4 -9,-6 -15,-8 -6,-2 -12,-2 -18,-1 -6,1 -11,2 -17,4 -5,1 -10,5 -14,9 -8,9 -13,18 -16,29 -3,10 -3,21 1,33 0,2 1,4 3,6 1,2 3,4 5,5 5,5 11,8 17,11 6,3 12,4 19,3z"/>
    <path id="1" class="fil16 str2" d="M4901 3434c-1,10 -3,20 -6,30 -4,11 -9,21 -16,32 -7,10 -16,19 -26,25 -10,6 -20,12 -32,16 -3,1 -7,2 -10,3 -4,1 -8,2 -12,2 -4,0 -8,0 -12,0 -3,0 -7,-1 -10,-1 -4,-1 -9,-3 -15,-5 -5,-3 -12,-6 -18,-9 -7,-4 -13,-8 -20,-13 -7,-5 -13,-11 -18,-17 -5,-5 -8,-11 -11,-18 -2,-7 -3,-14 -4,-21 0,-12 0,-23 2,-33 1,-11 4,-22 9,-32 3,-5 6,-11 10,-17 4,-6 9,-11 16,-17 6,-5 14,-10 23,-14 9,-5 19,-9 31,-12 6,-1 13,-1 21,-1 7,0 15,1 23,3 5,2 11,4 17,7 6,3 12,7 17,10 5,4 9,8 13,12 4,3 7,7 10,10 6,8 11,17 13,26 3,10 5,21 5,34zm-109 52c5,1 10,0 15,0 4,-1 9,-3 13,-5 10,-6 18,-15 22,-24 5,-10 6,-21 4,-33 -1,-6 -3,-12 -7,-17 -3,-5 -7,-9 -12,-12 -4,-4 -9,-6 -15,-8 -6,-2 -12,-2 -18,-1 -6,1 -11,2 -17,4 -5,1 -10,5 -14,9 -8,9 -13,18 -16,29 -3,10 -3,21 1,33 0,2 1,4 3,6 1,2 3,4 5,5 5,5 11,8 17,11 6,3 12,4 19,3z"/>
    <path class="fil15" d="M4901 3615c-1,10 -3,20 -6,31 -4,10 -9,21 -16,31 -7,10 -16,19 -26,25 -10,7 -20,12 -32,16 -3,2 -7,3 -10,4 -4,0 -8,1 -12,1 -4,1 -8,1 -12,0 -3,0 -7,0 -10,-1 -4,-1 -9,-3 -15,-5 -5,-2 -12,-5 -18,-9 -7,-4 -13,-8 -20,-13 -7,-5 -13,-10 -18,-17 -5,-5 -8,-11 -11,-18 -2,-7 -3,-14 -4,-21 0,-11 0,-22 2,-33 1,-11 4,-21 9,-32 3,-5 6,-11 10,-16 4,-6 9,-12 16,-17 6,-6 14,-11 23,-15 9,-5 19,-8 31,-11 6,-2 13,-2 21,-2 7,0 15,1 23,4 5,1 11,3 17,6 6,3 12,7 17,11 5,3 9,7 13,11 4,4 7,7 10,10 6,8 11,17 13,27 3,9 5,20 5,33zm-109 53c5,0 10,0 15,-1 4,-1 9,-2 13,-5 10,-6 18,-14 22,-24 5,-10 6,-21 4,-33 -1,-6 -3,-11 -7,-16 -3,-5 -7,-10 -12,-13 -4,-4 -9,-6 -15,-8 -6,-1 -12,-2 -18,-1 -6,1 -11,2 -17,4 -5,2 -10,5 -14,10 -8,8 -13,18 -16,28 -3,10 -3,21 1,33 0,2 1,4 3,6 1,2 3,4 5,5 5,5 11,9 17,11 6,3 12,4 19,4z"/>
    <path id="1" class="fil16 str2" d="M4901 3615c-1,10 -3,20 -6,31 -4,10 -9,21 -16,31 -7,10 -16,19 -26,25 -10,7 -20,12 -32,16 -3,2 -7,3 -10,4 -4,0 -8,1 -12,1 -4,1 -8,1 -12,0 -3,0 -7,0 -10,-1 -4,-1 -9,-3 -15,-5 -5,-2 -12,-5 -18,-9 -7,-4 -13,-8 -20,-13 -7,-5 -13,-10 -18,-17 -5,-5 -8,-11 -11,-18 -2,-7 -3,-14 -4,-21 0,-11 0,-22 2,-33 1,-11 4,-21 9,-32 3,-5 6,-11 10,-16 4,-6 9,-12 16,-17 6,-6 14,-11 23,-15 9,-5 19,-8 31,-11 6,-2 13,-2 21,-2 7,0 15,1 23,4 5,1 11,3 17,6 6,3 12,7 17,11 5,3 9,7 13,11 4,4 7,7 10,10 6,8 11,17 13,27 3,9 5,20 5,33zm-109 53c5,0 10,0 15,-1 4,-1 9,-2 13,-5 10,-6 18,-14 22,-24 5,-10 6,-21 4,-33 -1,-6 -3,-11 -7,-16 -3,-5 -7,-10 -12,-13 -4,-4 -9,-6 -15,-8 -6,-1 -12,-2 -18,-1 -6,1 -11,2 -17,4 -5,2 -10,5 -14,10 -8,8 -13,18 -16,28 -3,10 -3,21 1,33 0,2 1,4 3,6 1,2 3,4 5,5 5,5 11,9 17,11 6,3 12,4 19,4z"/>
    <path class="fil5 str3" d="M4793 3487c5,0 10,0 15,-1 4,0 8,-2 12,-4 11,-7 18,-15 23,-25 5,-9 6,-20 3,-33 -1,-6 -3,-11 -6,-16 -3,-5 -7,-9 -12,-13 -5,-3 -10,-6 -16,-7 -5,-2 -11,-2 -17,-2 -6,1 -12,2 -17,4 -6,2 -10,5 -14,10 -8,9 -13,18 -16,28 -3,11 -3,22 0,33 1,2 2,4 3,7 2,2 4,3 5,5 6,4 12,8 18,11 6,2 12,3 19,3z"/>
    <path class="fil6 str3" d="M4793 3487c5,0 10,0 15,-1 4,0 8,-2 12,-4 11,-7 18,-15 23,-25 5,-9 6,-20 3,-33 -1,-6 -3,-11 -6,-16 -3,-5 -7,-9 -12,-13 -5,-3 -10,-6 -16,-7 -5,-2 -11,-2 -17,-2 -6,1 -12,2 -17,4 -6,2 -10,5 -14,10 -8,9 -13,18 -16,28 -3,11 -3,22 0,33 1,2 2,4 3,7 2,2 4,3 5,5 6,4 12,8 18,11 6,2 12,3 19,3z"/>
    <path class="fil6 str3" d="M4792 3669c5,0 10,0 15,-1 4,-1 8,-2 12,-5 11,-6 19,-14 23,-24 5,-10 6,-21 3,-33 -1,-6 -3,-11 -6,-16 -3,-5 -7,-9 -12,-13 -5,-3 -10,-6 -15,-8 -6,-1 -12,-2 -18,-1 -6,1 -12,2 -17,4 -6,2 -10,5 -14,10 -8,8 -13,18 -16,28 -3,10 -3,21 0,33 1,2 2,4 4,6 1,2 3,4 4,5 6,5 12,9 18,11 6,3 12,4 19,4z"/>
    <path class="fil15" d="M4898 3802c0,9 -2,19 -6,30 -4,11 -9,21 -16,31 -7,11 -15,19 -25,26 -10,6 -21,12 -32,16 -4,1 -7,2 -11,3 -4,1 -8,1 -12,2 -4,0 -7,0 -11,0 -4,0 -8,-1 -11,-2 -4,-1 -8,-2 -14,-4 -6,-3 -12,-6 -19,-9 -6,-4 -13,-8 -20,-13 -6,-5 -12,-11 -18,-17 -4,-6 -8,-12 -10,-18 -3,-7 -4,-14 -4,-22 -1,-11 -1,-22 1,-33 2,-10 5,-21 9,-31 3,-6 6,-11 10,-17 4,-6 10,-12 16,-17 7,-5 14,-10 23,-15 9,-4 19,-8 32,-11 6,-1 12,-2 20,-1 7,0 15,1 23,3 6,1 12,4 18,7 5,3 11,6 16,10 5,4 10,7 14,11 4,4 7,7 9,10 6,9 11,17 14,27 3,9 4,21 4,34zm-109 52c6,0 11,0 15,-1 5,0 9,-2 13,-4 11,-7 18,-15 23,-25 4,-9 5,-20 3,-32 -1,-6 -3,-12 -6,-17 -3,-5 -7,-9 -12,-13 -5,-3 -10,-6 -16,-7 -5,-2 -11,-2 -17,-2 -6,1 -12,3 -17,4 -6,2 -11,5 -15,10 -7,9 -12,18 -15,28 -3,11 -3,22 0,33 1,2 2,5 3,7 2,2 3,3 5,5 6,4 11,8 18,11 6,2 12,4 18,3z"/>
    <path id="1" class="fil16 str2" d="M4898 3802c0,9 -2,19 -6,30 -4,11 -9,21 -16,31 -7,11 -15,19 -25,26 -10,6 -21,12 -32,16 -4,1 -7,2 -11,3 -4,1 -8,1 -12,2 -4,0 -7,0 -11,0 -4,0 -8,-1 -11,-2 -4,-1 -8,-2 -14,-4 -6,-3 -12,-6 -19,-9 -6,-4 -13,-8 -20,-13 -6,-5 -12,-11 -18,-17 -4,-6 -8,-12 -10,-18 -3,-7 -4,-14 -4,-22 -1,-11 -1,-22 1,-33 2,-10 5,-21 9,-31 3,-6 6,-11 10,-17 4,-6 10,-12 16,-17 7,-5 14,-10 23,-15 9,-4 19,-8 32,-11 6,-1 12,-2 20,-1 7,0 15,1 23,3 6,1 12,4 18,7 5,3 11,6 16,10 5,4 10,7 14,11 4,4 7,7 9,10 6,9 11,17 14,27 3,9 4,21 4,34zm-109 52c6,0 11,0 15,-1 5,0 9,-2 13,-4 11,-7 18,-15 23,-25 4,-9 5,-20 3,-32 -1,-6 -3,-12 -6,-17 -3,-5 -7,-9 -12,-13 -5,-3 -10,-6 -16,-7 -5,-2 -11,-2 -17,-2 -6,1 -12,3 -17,4 -6,2 -11,5 -15,10 -7,9 -12,18 -15,28 -3,11 -3,22 0,33 1,2 2,5 3,7 2,2 3,3 5,5 6,4 11,8 18,11 6,2 12,4 18,3z"/>
    <path class="fil6 str3" d="M4789 3855c6,0 11,0 15,-1 4,0 9,-2 13,-4 10,-7 18,-15 23,-25 4,-9 5,-20 3,-32 -1,-6 -3,-12 -6,-17 -4,-5 -8,-9 -12,-13 -5,-3 -10,-6 -16,-7 -6,-2 -12,-2 -18,-2 -6,1 -11,3 -17,4 -5,2 -10,5 -14,10 -7,9 -13,18 -16,28 -2,11 -2,22 1,33 0,3 1,5 3,7 2,2 3,3 5,5 5,4 11,8 17,11 6,2 13,4 19,3z"/>
    <path class="fil17" d="M6777 3391c0,10 -3,20 -6,31 -4,10 -9,21 -16,31 -7,11 -16,19 -26,25 -10,7 -20,12 -32,16 -3,2 -6,3 -10,4 -4,0 -8,1 -12,1 -4,1 -8,1 -12,0 -3,0 -7,0 -10,-1 -4,-1 -9,-3 -14,-5 -6,-2 -12,-5 -19,-9 -7,-3 -13,-8 -20,-13 -6,-5 -12,-10 -18,-16 -5,-6 -8,-12 -11,-19 -2,-7 -3,-14 -4,-21 0,-11 0,-22 2,-33 1,-11 4,-21 9,-32 3,-5 6,-11 10,-16 4,-6 9,-12 16,-17 6,-6 14,-11 23,-15 9,-5 19,-8 31,-11 6,-2 13,-2 21,-2 7,0 15,1 23,4 5,1 11,3 17,6 6,3 12,7 17,11 5,3 9,7 13,11 4,4 7,7 10,10 6,8 11,17 13,27 3,9 5,20 5,33zm-109 53c6,0 11,0 15,-1 4,-1 9,-2 13,-5 10,-6 18,-14 22,-24 5,-10 6,-21 4,-33 -1,-6 -3,-11 -7,-16 -3,-5 -7,-9 -11,-13 -5,-3 -10,-6 -16,-8 -6,-1 -12,-2 -18,-1 -6,1 -11,2 -17,4 -5,2 -10,5 -14,10 -7,8 -13,18 -16,28 -3,10 -2,21 1,33 0,2 1,4 3,6 1,2 3,4 5,5 5,5 11,9 17,11 6,3 13,4 19,4z"/>
    <path id="1" class="fil16 str4" d="M6777 3391c0,10 -3,20 -6,31 -4,10 -9,21 -16,31 -7,11 -16,19 -26,25 -10,7 -20,12 -32,16 -3,2 -6,3 -10,4 -4,0 -8,1 -12,1 -4,1 -8,1 -12,0 -3,0 -7,0 -10,-1 -4,-1 -9,-3 -14,-5 -6,-2 -12,-5 -19,-9 -7,-3 -13,-8 -20,-13 -6,-5 -12,-10 -18,-16 -5,-6 -8,-12 -11,-19 -2,-7 -3,-14 -4,-21 0,-11 0,-22 2,-33 1,-11 4,-21 9,-32 3,-5 6,-11 10,-16 4,-6 9,-12 16,-17 6,-6 14,-11 23,-15 9,-5 19,-8 31,-11 6,-2 13,-2 21,-2 7,0 15,1 23,4 5,1 11,3 17,6 6,3 12,7 17,11 5,3 9,7 13,11 4,4 7,7 10,10 6,8 11,17 13,27 3,9 5,20 5,33zm-109 53c6,0 11,0 15,-1 4,-1 9,-2 13,-5 10,-6 18,-14 22,-24 5,-10 6,-21 4,-33 -1,-6 -3,-11 -7,-16 -3,-5 -7,-9 -11,-13 -5,-3 -10,-6 -16,-8 -6,-1 -12,-2 -18,-1 -6,1 -11,2 -17,4 -5,2 -10,5 -14,10 -7,8 -13,18 -16,28 -3,10 -2,21 1,33 0,2 1,4 3,6 1,2 3,4 5,5 5,5 11,9 17,11 6,3 13,4 19,4z"/>
    <path class="fil17" d="M6777 3573c0,9 -3,19 -6,30 -4,10 -9,21 -16,31 -7,11 -16,19 -26,26 -10,6 -20,11 -32,16 -3,1 -6,2 -10,3 -4,1 -8,1 -12,2 -4,0 -8,0 -12,0 -3,0 -7,-1 -10,-2 -4,-1 -9,-2 -14,-5 -6,-2 -12,-5 -19,-9 -7,-3 -13,-8 -20,-12 -6,-5 -12,-11 -18,-17 -5,-6 -8,-12 -11,-19 -2,-6 -3,-13 -4,-21 0,-11 0,-22 2,-33 1,-10 4,-21 9,-31 3,-6 6,-11 10,-17 4,-6 9,-12 16,-17 6,-5 14,-10 23,-15 9,-4 19,-8 31,-11 6,-1 13,-2 21,-2 7,1 15,2 23,4 5,1 11,4 17,7 6,3 12,6 17,10 5,4 9,7 13,11 4,4 7,7 10,10 6,8 11,17 13,27 3,9 5,21 5,34zm-109 52c6,0 11,0 15,-1 4,-1 9,-2 13,-4 10,-7 18,-15 22,-25 5,-9 6,-20 4,-33 -1,-6 -3,-11 -7,-16 -3,-5 -7,-9 -11,-13 -5,-3 -10,-6 -16,-7 -6,-2 -12,-3 -18,-2 -6,1 -11,2 -17,4 -5,2 -10,5 -14,10 -7,9 -13,18 -16,28 -3,10 -2,21 1,33 0,2 1,4 3,6 1,3 3,4 5,6 5,4 11,8 17,11 6,2 13,3 19,3z"/>
    <path id="1" class="fil16 str4" d="M6777 3573c0,9 -3,19 -6,30 -4,10 -9,21 -16,31 -7,11 -16,19 -26,26 -10,6 -20,11 -32,16 -3,1 -6,2 -10,3 -4,1 -8,1 -12,2 -4,0 -8,0 -12,0 -3,0 -7,-1 -10,-2 -4,-1 -9,-2 -14,-5 -6,-2 -12,-5 -19,-9 -7,-3 -13,-8 -20,-12 -6,-5 -12,-11 -18,-17 -5,-6 -8,-12 -11,-19 -2,-6 -3,-13 -4,-21 0,-11 0,-22 2,-33 1,-10 4,-21 9,-31 3,-6 6,-11 10,-17 4,-6 9,-12 16,-17 6,-5 14,-10 23,-15 9,-4 19,-8 31,-11 6,-1 13,-2 21,-2 7,1 15,2 23,4 5,1 11,4 17,7 6,3 12,6 17,10 5,4 9,7 13,11 4,4 7,7 10,10 6,8 11,17 13,27 3,9 5,21 5,34zm-109 52c6,0 11,0 15,-1 4,-1 9,-2 13,-4 10,-7 18,-15 22,-25 5,-9 6,-20 4,-33 -1,-6 -3,-11 -7,-16 -3,-5 -7,-9 -11,-13 -5,-3 -10,-6 -16,-7 -6,-2 -12,-3 -18,-2 -6,1 -11,2 -17,4 -5,2 -10,5 -14,10 -7,9 -13,18 -16,28 -3,10 -2,21 1,33 0,2 1,4 3,6 1,3 3,4 5,6 5,4 11,8 17,11 6,2 13,3 19,3z"/>
    <path class="fil9 str0" d="M6669 3444c5,1 10,0 15,0 4,-1 8,-3 12,-5 11,-7 19,-15 23,-24 5,-10 6,-21 3,-33 -1,-6 -3,-12 -6,-17 -3,-5 -7,-9 -12,-12 -5,-4 -10,-6 -15,-8 -6,-2 -12,-2 -18,-1 -6,1 -12,2 -17,4 -6,1 -10,5 -14,9 -8,9 -13,18 -16,29 -3,10 -3,21 0,33 1,2 2,4 4,6 1,2 3,4 4,5 6,5 12,8 18,11 6,3 12,4 19,3z"/>
    <path class="fil6 str3" d="M6668 3626c5,0 10,0 15,-1 4,0 8,-2 13,-4 10,-7 18,-15 22,-25 5,-9 6,-20 4,-33 -1,-6 -4,-11 -7,-16 -3,-5 -7,-9 -12,-13 -4,-3 -10,-6 -15,-7 -6,-2 -12,-2 -18,-2 -6,1 -12,2 -17,4 -6,2 -10,5 -14,10 -8,9 -13,18 -16,28 -3,11 -3,22 0,33 1,2 2,4 4,7 1,2 3,3 4,5 6,4 12,8 18,11 6,2 12,3 19,3z"/>
    <path class="fil6 str3" d="M6669 3444c5,1 10,0 15,0 4,-1 8,-3 12,-5 11,-7 19,-15 23,-24 5,-10 6,-21 3,-33 -1,-6 -3,-12 -6,-17 -3,-5 -7,-9 -12,-12 -5,-4 -10,-6 -15,-8 -6,-2 -12,-2 -18,-1 -6,1 -12,2 -17,4 -6,1 -10,5 -14,9 -8,9 -13,18 -16,29 -3,10 -3,21 0,33 1,2 2,4 4,6 1,2 3,4 4,5 6,5 12,8 18,11 6,3 12,4 19,3z"/>
    <path class="fil17" d="M6774 3759c0,10 -2,20 -6,30 -4,11 -9,21 -16,32 -7,10 -15,19 -25,25 -10,7 -21,12 -32,16 -4,1 -7,2 -11,3 -4,1 -8,2 -12,2 -3,0 -7,0 -11,0 -4,0 -8,-1 -11,-1 -4,-1 -8,-3 -14,-5 -6,-3 -12,-6 -19,-9 -6,-4 -13,-8 -19,-13 -7,-5 -13,-11 -18,-17 -5,-5 -9,-11 -11,-18 -2,-7 -4,-14 -4,-21 -1,-12 0,-22 1,-33 2,-11 5,-21 10,-32 2,-5 5,-11 9,-17 5,-6 10,-11 16,-17 7,-5 14,-10 23,-14 9,-5 20,-9 32,-12 6,-1 13,-1 20,-1 8,0 15,1 23,3 6,2 12,4 18,7 6,3 11,7 16,10 5,4 10,8 14,12 4,3 7,7 9,10 7,8 11,17 14,26 3,10 4,21 4,34zm-109 52c6,1 11,0 15,0 5,-1 9,-3 13,-5 11,-6 18,-15 23,-24 4,-10 6,-21 3,-33 -1,-6 -3,-12 -6,-17 -3,-5 -7,-9 -12,-12 -5,-4 -10,-6 -16,-8 -5,-2 -11,-2 -17,-1 -6,1 -12,2 -17,4 -6,1 -11,5 -14,9 -8,9 -13,18 -16,29 -3,10 -3,21 0,33 1,2 2,4 3,6 2,2 3,4 5,5 6,5 12,8 18,11 6,3 12,4 18,3z"/>
    <path id="1" class="fil16 str4" d="M6774 3759c0,10 -2,20 -6,30 -4,11 -9,21 -16,32 -7,10 -15,19 -25,25 -10,7 -21,12 -32,16 -4,1 -7,2 -11,3 -4,1 -8,2 -12,2 -3,0 -7,0 -11,0 -4,0 -8,-1 -11,-1 -4,-1 -8,-3 -14,-5 -6,-3 -12,-6 -19,-9 -6,-4 -13,-8 -19,-13 -7,-5 -13,-11 -18,-17 -5,-5 -9,-11 -11,-18 -2,-7 -4,-14 -4,-21 -1,-12 0,-22 1,-33 2,-11 5,-21 10,-32 2,-5 5,-11 9,-17 5,-6 10,-11 16,-17 7,-5 14,-10 23,-14 9,-5 20,-9 32,-12 6,-1 13,-1 20,-1 8,0 15,1 23,3 6,2 12,4 18,7 6,3 11,7 16,10 5,4 10,8 14,12 4,3 7,7 9,10 7,8 11,17 14,26 3,10 4,21 4,34zm-109 52c6,1 11,0 15,0 5,-1 9,-3 13,-5 11,-6 18,-15 23,-24 4,-10 6,-21 3,-33 -1,-6 -3,-12 -6,-17 -3,-5 -7,-9 -12,-12 -5,-4 -10,-6 -16,-8 -5,-2 -11,-2 -17,-1 -6,1 -12,2 -17,4 -6,1 -11,5 -14,9 -8,9 -13,18 -16,29 -3,10 -3,21 0,33 1,2 2,4 3,6 2,2 3,4 5,5 6,5 12,8 18,11 6,3 12,4 18,3z"/>
    <path class="fil6 str3" d="M6665 3812c6,1 11,0 15,0 5,-1 9,-3 13,-5 11,-6 18,-15 23,-24 4,-10 5,-21 3,-33 -1,-6 -3,-12 -6,-17 -4,-4 -8,-9 -12,-12 -5,-4 -10,-6 -16,-8 -6,-2 -11,-2 -17,-1 -6,1 -12,2 -18,4 -5,1 -10,5 -14,9 -7,9 -13,19 -16,29 -2,10 -2,21 1,33 0,2 1,4 3,6 2,2 3,4 5,5 5,5 11,8 17,11 6,3 13,4 19,3z"/>
    <path class="fil18 str0" d="M5984 3549c1,13 1,22 1,30 1,7 1,17 1,30 0,5 -2,8 -5,10 -3,2 -9,2 -17,2 -20,-1 -39,-1 -59,-1 -19,0 -38,-1 -58,-1 -103,0 -157,5 -261,1 -6,0 -13,-1 -19,-1 -18,-1 -36,-1 -54,-1 -19,1 -37,1 -55,0 -12,-1 -20,-2 -23,-5 -3,-2 -5,-7 -5,-15 0,-27 0,-52 -1,-75 -1,-23 -1,-48 0,-75 1,-43 2,-85 3,-127 1,-42 2,-84 3,-127l0 -22c0,-9 6,-14 19,-14 10,0 19,0 29,0 10,0 19,0 30,0 13,1 26,1 38,2 98,1 173,-1 267,-1l124 0c7,0 12,0 16,1 10,1 16,2 19,5 3,2 5,7 6,14 2,35 3,69 3,103 0,19 0,37 -1,56 -1,18 -2,37 -2,55 0,0 0,6 0,18 0,11 0,25 0,41 0,16 0,33 0,51 1,18 1,33 1,46z"/>
    <path class="fil19" d="M5703 3359c0,4 0,8 0,11 0,2 0,6 0,10 0,2 0,3 -1,4 -1,1 -4,1 -7,1 -7,0 -14,-1 -21,-1 -7,0 -14,0 -21,0 -37,0 -57,2 -94,0 -2,0 -5,0 -7,0 -7,0 -13,0 -20,0 -6,0 -13,0 -19,0 -5,-1 -7,-1 -9,-2 -1,-1 -1,-3 -1,-6 0,-9 0,-18 -1,-27 0,-8 0,-17 0,-27 1,-15 1,-30 1,-46 1,-15 1,-30 1,-45l0 -8c0,-4 3,-5 7,-5 4,0 7,0 11,0 3,-1 7,0 10,0 5,0 10,0 14,0 36,1 63,0 97,0l44 0c3,0 5,0 6,0 4,1 6,1 7,2 1,1 2,2 2,5 1,13 1,25 1,37 0,7 0,14 0,20 0,7 -1,14 -1,21 0,0 0,2 0,6 0,4 0,9 0,15 0,5 0,12 0,18 1,7 1,12 1,17z"/>
    <path class="fil19" d="M5702 3545c0,5 0,8 0,11 0,3 0,6 0,11 0,2 0,3 -1,3 -1,1 -3,1 -7,1 -7,0 -14,0 -21,0 -7,0 -14,0 -21,0 -37,0 -57,1 -94,0 -2,0 -5,0 -7,-1 -6,0 -13,0 -20,0 -6,0 -13,0 -19,0 -4,0 -7,-1 -8,-2 -2,0 -2,-2 -2,-5 0,-10 0,-19 -1,-27 0,-9 0,-18 0,-27 1,-16 1,-31 1,-46 1,-15 1,-31 2,-46l0 -8c0,-3 2,-5 6,-5 4,0 7,0 11,0 3,0 7,0 10,0 5,0 10,0 14,0 36,1 63,0 97,0l44 0c3,0 5,0 6,1 4,0 6,1 7,1 1,1 2,3 2,6 1,12 1,24 1,37 0,6 0,13 0,20 0,6 0,13 -1,20 0,0 0,2 0,6 0,4 0,9 0,15 0,6 0,12 0,18 1,7 1,13 1,17z"/>
    <path class="fil19" d="M5922 3361c0,4 0,8 0,10 0,3 0,7 0,11 0,2 0,3 -1,4 -1,1 -3,1 -7,1 -7,-1 -14,-1 -21,-1 -7,0 -14,0 -21,0 -37,0 -56,2 -94,0 -2,0 -4,0 -7,0 -6,0 -13,-1 -19,0 -7,0 -14,0 -20,0 -4,-1 -7,-1 -8,-2 -2,-1 -2,-3 -2,-6 0,-9 0,-18 -1,-27 0,-8 0,-17 0,-27 1,-15 1,-30 1,-46 1,-15 1,-30 2,-45l0 -8c0,-4 2,-5 6,-5 4,0 7,0 11,0 3,-1 7,-1 11,0 4,0 9,0 13,0 36,1 63,0 97,0l44 0c3,0 5,0 6,0 4,1 6,1 7,2 1,1 2,2 2,5 1,13 1,25 1,37 0,7 0,14 0,20 0,7 0,14 -1,20 0,0 0,3 0,7 0,4 0,9 0,15 0,5 0,12 1,18 0,6 0,12 0,17z"/>
    <path class="fil19" d="M5923 3547c0,5 0,8 0,11 1,3 1,6 1,11 0,2 -1,3 -2,3 -1,1 -3,1 -6,1 -7,0 -14,0 -21,0 -7,0 -14,0 -21,0 -38,0 -57,1 -95,0 -2,0 -4,-1 -7,-1 -6,0 -13,0 -19,0 -7,0 -13,0 -20,0 -4,0 -7,-1 -8,-2 -2,0 -2,-2 -2,-5 0,-10 0,-19 0,-27 -1,-9 -1,-18 0,-27 0,-16 0,-31 0,-46 1,-15 1,-31 2,-46l0 -8c0,-3 2,-5 7,-5 3,0 6,0 10,0 3,0 7,0 11,0 4,0 9,0 14,0 35,1 62,0 96,0l45 0c2,0 4,0 5,1 4,0 6,1 7,1 2,1 2,3 2,6 1,12 2,24 2,37 0,6 -1,13 -1,20 0,6 0,13 -1,20 0,0 0,2 0,6 0,4 0,9 0,15 0,6 1,12 1,18 0,7 0,12 0,17z"/>
    <polygon class="fil25" points="5727,2259 4322,3408 4523,3577 5717,2599 6969,3571 7189,3402 "/>
    <polygon class="fil5" points="6228,2188 6289,2288 6347,2188 6290,2061 "/>
    <polygon class="fil6" points="6351,2360 6390,2425 6428,2360 6391,2278 "/>
    <polygon class="fil7" points="6378,2158 6464,2300 6545,2158 6465,1981 "/>
    <polygon class="fil5" points="5441,1263 5678,1655 5903,1263 5682,768 "/>
    <polygon class="fil6" points="5908,777 6017,958 6121,777 6019,549 "/>
    <polygon class="fil7" points="5057,523 5294,916 5519,523 5298,29 "/>
    <polygon class="fil7" points="6876,1670 7083,2013 7280,1670 7087,1237 "/>
   </g>
  </g>
 </g>
</svg>
