<svg xmlns="http://www.w3.org/2000/svg" width="389.597" height="223.099" viewBox="0 0 6735 3857" xmlns:xlink="http://www.w3.org/1999/xlink" shape-rendering="geometricPrecision" text-rendering="geometricPrecision" image-rendering="optimizeQuality" fill-rule="evenodd" clip-rule="evenodd"><defs><linearGradient id="id0" gradientUnits="userSpaceOnUse" x1="5096.77" y1="1835.38" x2="5285.45" y2="1835.38"><stop offset="0" stop-color="#2b3f95"/><stop offset="1" stop-color="#24aadf"/></linearGradient><linearGradient id="id1" gradientUnits="userSpaceOnUse" xlink:href="#id0" x1="5724.61" y1="2608.89" x2="6095.76" y2="2608.89"/><linearGradient id="id2" gradientUnits="userSpaceOnUse" xlink:href="#id0" x1="4221.06" y1="2615.56" x2="4477.6" y2="2615.56"/><linearGradient id="id3" gradientUnits="userSpaceOnUse" xlink:href="#id0" x1="3844.28" y1="2851.98" x2="6646.4" y2="2851.98"/><linearGradient id="id4" gradientUnits="userSpaceOnUse" xlink:href="#id0" x1="4201.19" y1="1958.75" x2="5579.68" y2="1958.75"/><linearGradient id="id5" gradientUnits="userSpaceOnUse" xlink:href="#id0" x1="3085.42" y1="2733.78" x2="4730.06" y2="2733.78"/><style>.str1{stroke-width:13.0671}.str0,.str1,.str6,.str7{stroke:#898989}.str0,.str2,.str3,.str4,.str5,.str6,.str7{stroke-width:4.97857}.str5{stroke:#2870b7}.str4{stroke:#2a54a3}.str2,.str3{stroke:#2b4c9e}.fil15{fill:none;fill-rule:nonzero}.fil10{fill:#c5c6c6}.fil0,.fil18{fill-rule:nonzero}.fil18{fill:#fefefe}.fil0{fill:#ebecec}.fil1{fill:#c5c6c6}.fil1,.fil2,.fil8{fill-rule:nonzero}.fil8{fill:#c5c6c6}.fil2{fill:#9d9e9e}.fil11,.fil12,.fil23{fill-rule:nonzero}.fil23{fill:#898989}.fil12{fill:#727271}.fil11{fill:#5b5b5b}.fil21{fill-rule:nonzero}.fil5{fill:#2694cf}.fil5,.fil6{fill-rule:nonzero}.fil21{fill:#2784c5}.fil6{fill:#2870b7}.fil14{fill-rule:nonzero}.fil16,.fil17{fill:#2a54a3}.fil16,.fil17,.fil4{fill-rule:nonzero}.fil14,.fil4{fill:#2b4c9e}</style></defs><g id="Слой_x0020_1"><g id="_851198486640"><path class="fil0" d="M2792 3128c4-6 9-11 14-16-1-1-1-3-2-4-5 6-9 12-14 18l2 2zm-1158 136c-14 7-29 12-43 18 1 1 3 2 4 3l39-21zm-409 42c-2-2-4-3-5-5-7 4-13 9-19 13 8-3 16-6 24-8zm435-416c2 1 3 2 5 3 5-9 11-18 16-27l-21 24zm1579-370c-67 369-368 693-674 913-3 2-7 4-10 5-6 18-21 32-46 32-104 2-206-18-309-31-110-12-219-25-330-34-219-17-441-18-655 34-218 54-404 158-603 253-65 30-128 64-194 89-46 18-93 43-144 34-8-1-13-5-16-10-42-5-53-73-3-89 16-6 33-12 49-18 72-53 146-103 213-163 76-66 148-136 224-202 20-17 57-12 63 16 5 21 11 42 15 64 121-29 232-93 332-162 117-81 225-173 324-273 214-218 385-450 496-730 15-38 76-34 77 10 3 183-132 367-223 521-75 127-153 272-257 389 58-17 117-35 174-56 33-17 65-36 95-54 95-58 181-124 270-190 32-23 73 5 56 41-10 20-21 38-32 57 0 7-3 14-10 19-2 2-5 4-7 6-85 118-212 209-344 287 167-32 337-111 431-230 30-38 90-6 68 38-35 68-79 134-136 188 80-12 158-46 227-82 97-49 190-107 282-164 217-134 420-308 525-536 19-42 79-10 72 28z"/><path class="fil1" d="M5043 1344c1-52 12-108 36-167-184-45-196-218-200-377-47 72-92 144-129 222-49 105-93 214-158 312-160 236-328 469-517 686-187 216-388 420-617 597-211 162-460 279-659 456-23 20-51-10-33-32 103-123 205-289 224-452-137 198-277 404-477 549-192 138-431 265-677 283-24 2-27-28-11-39 97-64 169-160 227-260-187 164-434 310-689 281-20-3-35-31-11-41 182-78 342-196 484-329 71-66 139-136 204-208 17-19 171-188 169-192-84-107-191-227-318-290-24-12-81-41-106-14-23 23-29 58-36 88-8 38-17 76-35 110-72 223-269 397-431 564-188 194-428 356-685 460-15 7-30-4-27-20 8-49 19-133-56-86-45 28-84 63-122 99-114 107-238 203-352 310-10 9-23-5-15-14 4-5 9-10 13-15h-1c-4 3-7 6-11 9-7 5-16 2-17-7-6-48 41-108 67-146 36-56 75-109 115-162 68-89 131-179 192-272 48-72 102-158 189-193 71-29 140 4 192 51 83-51 150-124 212-196 73-84 139-173 202-264 65-94 121-187 164-292 40-100 75-203 128-297 28-48 75-150 150-123 42 14 76 58 111 83 55 38 109 76 165 112 171 113 391 235 469 429 378-196 541-567 731-911 31-55 68-124 129-153 54-24 99 19 119 63 27 60 28 126 20 191 127 66 264 131 374 223-33-68-81-126-130-188-33-42-61-84-88-130-10-18-38-46-32-69 18-65 97-121 151-158 118-81 228-169 339-258 108-86 225-171 322-268 95-96 175-203 259-308 38-47 75-96 118-140 18-19 36-38 63-47 49-16 94 61 118 99 89-75 166-158 246-242 44-46 94-80 156-42 39 24 66 71 91 107 34 49 68 99 102 149l230 301c169 178 835 597 971 798l-216 224-281 1134-797-573-318-1015z"/><path class="fil0" d="M4730 1207l33-48c-1-1-2-3-2-4-12 19-23 38-35 57 1-2 3-3 4-5zm-670 924c-24 14-49 47-70 68 11-11 22-21 33-32 13-12 25-24 37-36zm-156 146c-40 35-82 67-125 100 2 0 5 0 7 1 40-33 79-66 118-101zM5477 924c-30 98-79 195-162 264-545 547 372-178 46 185-68 113 470 1692-1971 1315-25-4-21-35-1-43-1-34 51-68 75-85 13-9 27-19 42-28 98-107 235-185 344-279 166-144 296-313 422-488 128-178 250-360 369-543 51-80 99-161 134-248 13-33 25-67 44-97 15-25 33-44 43-73 9-25 58-32 63 0 17 113 67 276 199 311 171 47 232-98 300-213 16-27 62-8 53 22z"/><path class="fil2" d="M5826 1229c-153-73-314-131-450-232-1-1-3-2-4-3-20-16 6-41 26-32 1 1 3 1 4 2 4-4 9-5 15-4 82 28 159 71 241 99 47 17 97 34 147 37 8 1 17 1 27 1 4-9 4-19 0-29-57-44-124-81-180-114-82-46-163-93-250-130-94-40-190-78-278-128-42-24-119-62-115-118 0-11 9-20 22-21 106-2 206 47 312 36-12-115-53-234-118-332-126 109-230 237-356 346-10 9-30 9-37-5-28-53-46-111-85-159-102 84-148 206-227 306-94 119-201 229-309 337-193 192-461 301-628 519 41 51 73 108 102 167 7 16-10 39-29 27-81-52-154-163-251-193-20 267-119 518-348 688-16 12-46-4-31-23 82-111 150-236 199-363 44-115 97-273 31-389-83 62-117 178-161 263-68 128-149 251-234 369-144 203-317 416-575 492-11 3-20-8-18-16-2-5-1-10 4-13 18-16 35-31 53-47-123-130-238-284-397-376-64-37-145-57-204-100-46-34-85-91-142-110-175 462-428 975-888 1240-14 8-30-5-27-20 8-29 29-127-34-124-49 2-93 28-124 63-51 57-83 124-123 187-111 171-227 340-354 501l-1 1c-2 3-4 7-7 11-8 14-30 1-22-13 1-1 2-3 3-5 0-3 0-5 2-8 4-6 8-11 12-17 92-157 201-305 297-460 101-161 188-331 307-482 6-8 17-10 25-3 43 34 82 71 116 113 15-39 49-75 75-107 39-47 81-92 116-142 75-105 141-216 205-326 65-113 131-228 186-346 35-75 55-183 121-242 1 0 2-1 2-1 4-6 11-8 18-4 66 45 132 88 208 118 6 2 10 10 10 16-3 54 103 90 145 109 52 23 108 43 155 75 72 50 133 124 192 187 65 67 128 136 192 205 156-153 289-329 414-505 162-228 288-477 453-703 7-10 20-14 31-8 86 51 162 120 223 199 57-48 122-84 185-125 68-45 133-96 194-149 113-99 222-203 328-308 111-109 219-222 317-341 80-98 142-219 241-302 12-9 26-7 35 5 29 37 59 74 88 111 138-93 211-247 312-371 10-12 29-14 39 0 302 440 1076 1109 1390 1542-175-140-608-227-813-323z"/><path class="fil1" d="M570 3106c-1-2-2-3-2-5-14 11-28 21-43 30 15-8 30-17 45-25zm4852-1708c-20-13-38-26-55-38-8-6-16-13-23-19 20 23 46 43 78 57zm654-361l-27-33c8 12 16 23 23 34 2 0 3-1 4-1zm263 326c13 19 25 39 36 58 2 0 4 1 6 1-14-19-28-39-42-59z"/><path class="fil2" d="M5941 883c-8-19-18-38-27-57 1 2 0 4 0 6l27 51z"/><path class="fil4" d="M2250 3293l157 259 149-259-146-327zm1718-1064l109 180 103-180-101-227z"/><path class="fil5" d="M2592 2913l72 120 69-120-68-150zm1614-948l50 83 47-83-46-104z"/><path class="fil6" d="M2030 2746l156 259 149-259-146-327zm1785-897l109 180 103-180-101-227z"/><path class="fil1" d="M5340 1611c-1-3-3-6-5-9 1 3 1 6 0 9h5z"/><path fill="#ebecec" fill-rule="nonzero" d="M5124 1749l-54 60v-107h54z"/><path class="fil8 str0" d="M4587 2342c-11 15-22 29-32 44 11-14 22-29 32-44z"/><path fill="url(#id0)" d="M5098 1793l-1-61h187l1 207z"/><path class="fil10 str0" d="M5318 2414l1-236-481-376-436 371 2 239z"/><path class="fil10 str1" d="M4422 2170h929.674v64.782H4422zm0-65h929.674v64.782H4422zm0-65h929.674v64.782H4422z"/><path class="fil10 str0" d="M4491 1975h729v65h-729z"/><path class="fil11 str0" d="M4539 1973h681v69h-681v-4h678v-60h-678z"/><path class="fil10 str0" d="M4558 1911h615v64h-615z"/><path class="fil12 str0" d="M4558 1908h603v70h-603v-5h599v-60h-599z"/><path class="fil10 str0" d="M4671 1846h412v65h-412zm358-41v39h-323v-39z"/><path class="fil10 str1" d="M4422 2234h929.674v64.782H4422zm0 65h929.674v64.782H4422z"/><path fill="url(#id4)" d="M4877 1642l-676 553 97 81 574-470 602 467 106-81z"/><path class="fil14" d="M4479 2207c0 4-1 9-3 14-1 6-4 11-7 16-4 5-8 9-12 12-5 3-10 5-16 8-1 0-3 1-5 1s-4 1-6 1h-5c-2 0-4 0-5-1-2 0-4-1-7-2s-6-3-9-4c-3-2-6-4-10-7-3-2-6-5-8-8-2-2-4-5-5-9-1-3-2-6-2-10-1-5 0-10 0-16 1-5 3-10 5-15 1-2 3-5 5-8s4-5 7-8 7-5 11-7c5-2 10-4 15-5 3-1 7-1 10-1 4 0 8 0 11 1s6 2 9 4c3 1 5 3 8 5 2 1 4 3 6 5s4 3 5 5c3 4 5 8 6 13 2 4 2 10 2 16zm-52 25h7c2-1 4-1 6-2 6-4 9-8 11-12 3-5 3-10 2-16-1-3-2-6-3-8l-6-6c-2-2-5-3-7-4-3-1-6-1-9 0-3 0-5 1-8 2-3 0-5 2-7 4-3 4-6 9-7 14-2 5-2 10 0 16 0 1 1 2 1 3 1 1 2 2 3 2 2 2 5 4 8 5 3 2 6 2 9 2z"/><path id="1" class="fil15 str2" d="M4479 2207c0 4-1 9-3 14-1 6-4 11-7 16-4 5-8 9-12 12-5 3-10 5-16 8-1 0-3 1-5 1s-4 1-6 1h-5c-2 0-4 0-5-1-2 0-4-1-7-2s-6-3-9-4c-3-2-6-4-10-7-3-2-6-5-8-8-2-2-4-5-5-9-1-3-2-6-2-10-1-5 0-10 0-16 1-5 3-10 5-15 1-2 3-5 5-8s4-5 7-8 7-5 11-7c5-2 10-4 15-5 3-1 7-1 10-1 4 0 8 0 11 1s6 2 9 4c3 1 5 3 8 5 2 1 4 3 6 5s4 3 5 5c3 4 5 8 6 13 2 4 2 10 2 16zm-52 25h7c2-1 4-1 6-2 6-4 9-8 11-12 3-5 3-10 2-16-1-3-2-6-3-8l-6-6c-2-2-5-3-7-4-3-1-6-1-9 0-3 0-5 1-8 2-3 0-5 2-7 4-3 4-6 9-7 14-2 5-2 10 0 16 0 1 1 2 1 3 1 1 2 2 3 2 2 2 5 4 8 5 3 2 6 2 9 2z"/><path class="fil14" d="M4479 2294c0 5-1 9-3 15-1 5-4 10-7 15-4 5-8 9-12 12-5 3-10 6-16 8-1 0-3 1-5 1-2 1-4 1-6 1h-5c-2 0-4 0-5-1-2 0-4-1-7-2s-6-3-9-4c-3-2-6-4-10-7-3-2-6-5-8-8-2-2-4-5-5-8-1-4-2-7-2-11-1-5 0-10 0-15 1-6 3-11 5-16 1-2 3-5 5-8s4-5 7-8c3-2 7-5 11-7 5-2 10-4 15-5 3-1 7-1 10-1 4 0 8 1 11 2 3 0 6 1 9 3 3 1 5 3 8 5 2 2 4 3 6 5l5 5c3 4 5 8 6 13 2 4 2 10 2 16zm-52 25h7c2 0 4-1 6-2 6-3 9-7 11-12 3-5 3-10 2-16-1-3-2-5-3-8l-6-6c-2-2-5-3-7-4-3 0-6-1-9 0-3 0-5 1-8 2s-5 2-7 4c-3 5-6 9-7 14-2 5-2 10 0 16 0 1 1 2 1 3 1 1 2 2 3 2 2 3 5 4 8 6 3 1 6 1 9 1z"/><path id="1" class="fil15 str2" d="M4479 2294c0 5-1 9-3 15-1 5-4 10-7 15-4 5-8 9-12 12-5 3-10 6-16 8-1 0-3 1-5 1-2 1-4 1-6 1h-5c-2 0-4 0-5-1-2 0-4-1-7-2s-6-3-9-4c-3-2-6-4-10-7-3-2-6-5-8-8-2-2-4-5-5-8-1-4-2-7-2-11-1-5 0-10 0-15 1-6 3-11 5-16 1-2 3-5 5-8s4-5 7-8c3-2 7-5 11-7 5-2 10-4 15-5 3-1 7-1 10-1 4 0 8 1 11 2 3 0 6 1 9 3 3 1 5 3 8 5 2 2 4 3 6 5l5 5c3 4 5 8 6 13 2 4 2 10 2 16zm-52 25h7c2 0 4-1 6-2 6-3 9-7 11-12 3-5 3-10 2-16-1-3-2-5-3-8l-6-6c-2-2-5-3-7-4-3 0-6-1-9 0-3 0-5 1-8 2s-5 2-7 4c-3 5-6 9-7 14-2 5-2 10 0 16 0 1 1 2 1 3 1 1 2 2 3 2 2 3 5 4 8 6 3 1 6 1 9 1z"/><path class="fil4 str3" d="M4427 2232h8c2 0 4-1 6-2 5-3 8-7 11-12 2-5 2-10 1-16 0-3-1-5-3-8-1-2-3-4-6-6-2-1-4-3-7-3-3-1-6-1-8-1-3 0-6 1-9 2-2 1-5 2-6 5-4 4-7 8-8 13s-1 10 0 16c0 1 1 2 2 3 0 1 1 2 2 3 3 2 5 3 8 5 3 1 6 2 9 1z"/><path class="fil5 str3" d="M4427 2232h8c2 0 4-1 6-2 5-3 8-7 11-12 2-5 2-10 1-16 0-3-1-5-3-8-1-2-3-4-6-6-2-1-4-3-7-3-3-1-6-1-8-1-3 0-6 1-9 2-2 1-5 2-6 5-4 4-7 8-8 13s-1 10 0 16c0 1 1 2 2 3 0 1 1 2 2 3 3 2 5 3 8 5 3 1 6 2 9 1zm0 88c3 0 5 0 7-1 2 0 4-1 6-2 5-3 9-7 11-12 2-4 3-9 2-15-1-3-2-6-3-8-2-3-4-5-6-6-2-2-5-3-7-4-3-1-6-1-9-1-3 1-6 1-8 2-3 1-5 3-7 5-4 4-6 9-8 14-1 4-1 10 1 15 0 1 0 2 1 3s2 2 2 3c3 2 6 4 9 5s6 2 9 2z"/><path class="fil14" d="M4478 2384c0 4-1 9-3 14s-4 10-7 15c-4 5-8 9-13 13-4 3-10 5-15 7-2 1-3 1-5 2-2 0-4 0-6 1h-5c-2 0-4-1-5-1-2 0-5-1-7-2-3-2-6-3-9-5-3-1-7-3-10-6-3-2-6-5-8-8-3-3-4-6-6-9-1-3-1-6-2-10 0-5 0-11 1-16s2-10 5-15c1-3 2-5 4-8s5-6 8-8c3-3 7-5 11-7 4-3 9-4 15-6 3 0 6-1 10 0 4 0 7 0 11 1 3 1 6 2 8 3 3 2 6 4 8 5 3 2 5 4 7 6s3 3 4 5c4 4 6 8 7 12 1 5 2 10 2 17zm-52 25h7l6-3c5-3 9-7 11-11 2-5 3-10 2-16-1-3-2-6-3-8-2-2-4-5-6-6-2-2-5-3-8-4-2-1-5-1-8-1-3 1-6 2-8 2-3 1-5 3-7 5-4 4-6 9-8 14-1 5-1 10 1 16 0 1 0 2 1 3 1 0 2 1 2 2 3 2 6 4 9 5 3 2 6 2 9 2z"/><path id="1" class="fil15 str2" d="M4478 2384c0 4-1 9-3 14s-4 10-7 15c-4 5-8 9-13 13-4 3-10 5-15 7-2 1-3 1-5 2-2 0-4 0-6 1h-5c-2 0-4-1-5-1-2 0-5-1-7-2-3-2-6-3-9-5-3-1-7-3-10-6-3-2-6-5-8-8-3-3-4-6-6-9-1-3-1-6-2-10 0-5 0-11 1-16s2-10 5-15c1-3 2-5 4-8s5-6 8-8c3-3 7-5 11-7 4-3 9-4 15-6 3 0 6-1 10 0 4 0 7 0 11 1 3 1 6 2 8 3 3 2 6 4 8 5 3 2 5 4 7 6s3 3 4 5c4 4 6 8 7 12 1 5 2 10 2 17zm-52 25h7l6-3c5-3 9-7 11-11 2-5 3-10 2-16-1-3-2-6-3-8-2-2-4-5-6-6-2-2-5-3-8-4-2-1-5-1-8-1-3 1-6 2-8 2-3 1-5 3-7 5-4 4-6 9-8 14-1 5-1 10 1 16 0 1 0 2 1 3 1 0 2 1 2 2 3 2 6 4 9 5 3 2 6 2 9 2z"/><path class="fil5 str3" d="M4426 2409c2 1 5 0 7 0s4-1 6-2c5-3 9-7 11-12s3-10 2-16c-1-3-2-5-3-8l-6-6c-2-1-5-3-8-3-2-1-5-1-8-1s-6 1-8 2c-3 1-5 2-7 5-4 4-6 8-8 13-1 5-1 10 0 16 1 1 1 2 2 3s1 2 2 3c3 2 6 3 9 5 3 1 6 2 9 1z"/><path class="fil16" d="M5382 2186l-3 15c-2 5-5 10-8 15-4 5-8 9-12 12-5 3-10 6-16 8-1 1-3 1-5 1-2 1-4 1-5 1h-11c-2-1-4-2-7-3s-6-2-9-4l-9-6c-4-3-7-5-9-8s-4-6-5-9-2-7-2-10c-1-6 0-11 0-16 1-5 3-10 5-15 1-3 3-6 5-8 2-3 4-6 7-9 3-2 7-4 11-7 5-2 10-4 16-5 2-1 6-1 9-1 4 0 8 1 11 2l9 3c3 2 5 3 8 5l6 6c2 1 4 3 5 4 3 4 5 9 6 13 2 5 2 10 3 16zm-53 26c3 0 5 0 7-1 2 0 5-1 7-2 5-3 8-7 10-12 3-4 3-10 2-16 0-2-1-5-3-7-2-3-3-5-6-7-2-1-5-2-7-3-3-1-6-1-9-1-3 1-5 1-8 2s-5 2-7 5c-3 4-6 8-7 13-2 5-2 11 0 16 0 1 1 2 1 3l3 3c2 2 5 4 8 5s6 2 9 2z"/><path id="1" class="fil15 str4" d="M5382 2186l-3 15c-2 5-5 10-8 15-4 5-8 9-12 12-5 3-10 6-16 8-1 1-3 1-5 1-2 1-4 1-5 1h-11c-2-1-4-2-7-3s-6-2-9-4l-9-6c-4-3-7-5-9-8s-4-6-5-9-2-7-2-10c-1-6 0-11 0-16 1-5 3-10 5-15 1-3 3-6 5-8 2-3 4-6 7-9 3-2 7-4 11-7 5-2 10-4 16-5 2-1 6-1 9-1 4 0 8 1 11 2l9 3c3 2 5 3 8 5l6 6c2 1 4 3 5 4 3 4 5 9 6 13 2 5 2 10 3 16zm-53 26c3 0 5 0 7-1 2 0 5-1 7-2 5-3 8-7 10-12 3-4 3-10 2-16 0-2-1-5-3-7-2-3-3-5-6-7-2-1-5-2-7-3-3-1-6-1-9-1-3 1-5 1-8 2s-5 2-7 5c-3 4-6 8-7 13-2 5-2 11 0 16 0 1 1 2 1 3l3 3c2 2 5 4 8 5s6 2 9 2z"/><path class="fil16" d="M5382 2274c-1 4-2 9-3 14-2 5-5 10-8 15-4 5-8 9-12 12-5 3-10 6-16 8-1 1-3 1-5 2h-5c-2 1-4 1-6 1-2-1-4-1-5-1-2-1-4-1-7-3-3-1-6-2-9-4l-9-6c-4-2-7-5-9-8s-4-6-5-9-2-7-2-10c-1-5 0-11 0-16 1-5 3-10 5-15 1-3 3-5 5-8s4-6 7-8c3-3 7-5 11-7 5-3 10-4 16-6 2 0 6-1 9-1 4 0 8 1 11 2l9 3c3 2 5 3 8 5l6 6c2 2 4 3 5 5 3 3 5 8 6 12 2 5 2 10 3 17zm-53 25c3 0 5 0 7-1 2 0 5-1 7-2 5-3 8-7 10-12 3-4 3-10 2-15 0-3-1-6-3-8-2-3-3-5-6-6-2-2-5-3-7-4-3-1-6-1-9-1-3 1-5 1-8 2s-5 3-7 5c-3 4-6 9-7 13-2 5-2 11 0 16 0 1 1 2 1 3l3 3c2 2 5 4 8 5s6 2 9 2z"/><path id="1" class="fil15 str4" d="M5382 2274c-1 4-2 9-3 14-2 5-5 10-8 15-4 5-8 9-12 12-5 3-10 6-16 8-1 1-3 1-5 2h-5c-2 1-4 1-6 1-2-1-4-1-5-1-2-1-4-1-7-3-3-1-6-2-9-4l-9-6c-4-2-7-5-9-8s-4-6-5-9-2-7-2-10c-1-5 0-11 0-16 1-5 3-10 5-15 1-3 3-5 5-8s4-6 7-8c3-3 7-5 11-7 5-3 10-4 16-6 2 0 6-1 9-1 4 0 8 1 11 2l9 3c3 2 5 3 8 5l6 6c2 2 4 3 5 5 3 3 5 8 6 12 2 5 2 10 3 17zm-53 25c3 0 5 0 7-1 2 0 5-1 7-2 5-3 8-7 10-12 3-4 3-10 2-15 0-3-1-6-3-8-2-3-3-5-6-6-2-2-5-3-7-4-3-1-6-1-9-1-3 1-5 1-8 2s-5 3-7 5c-3 4-6 9-7 13-2 5-2 11 0 16 0 1 1 2 1 3l3 3c2 2 5 4 8 5s6 2 9 2z"/><path class="fil8 str0" d="M5329 2212c3 0 6 0 8-1 2 0 4-1 6-2 5-3 9-7 11-11 2-5 2-10 1-16 0-3-1-6-3-8-1-2-3-5-5-6-3-2-5-3-8-4s-5-1-8-1c-3 1-6 1-9 2-2 1-5 3-6 5-4 4-7 9-8 14s-1 10 0 16c0 1 1 1 2 2 0 1 1 2 2 3 3 2 5 4 8 5 3 2 6 2 9 2z"/><path class="fil5 str5" d="M5329 2299h7c2 0 4-1 6-2 5-3 9-7 11-12s3-10 2-16c-1-3-2-5-3-8l-6-6c-2-2-5-3-7-4-3 0-6-1-9 0-3 0-5 1-8 2s-5 2-7 4c-4 5-6 9-7 14-2 5-2 10 0 16 0 1 1 2 1 3 1 1 2 2 3 2 2 3 5 4 8 6 3 1 6 1 9 1zm0-87c3 0 6 0 8-1 2 0 4-1 6-2 5-3 9-7 11-11 2-5 2-10 1-16 0-3-1-6-3-8-1-2-3-5-5-6-3-2-5-3-8-4s-5-1-8-1c-3 1-6 1-9 2-2 1-5 3-6 5-4 4-7 9-8 14s-1 10 0 16c0 1 1 1 2 2 0 1 1 2 2 3 3 2 5 4 8 5 3 2 6 2 9 2z"/><path class="fil16" d="M5380 2363c0 5-1 10-3 15-1 5-4 10-7 15-4 5-8 9-13 12-4 3-10 6-15 8-2 0-3 1-5 1-2 1-4 1-6 1h-5c-2 0-4 0-5-1-2 0-4-1-7-2s-6-2-9-4-7-4-10-6c-3-3-6-5-8-8-3-3-4-6-6-9-1-4-1-7-2-10 0-6 0-11 1-16s2-11 5-15c1-3 2-6 4-9l8-8c3-2 7-5 11-7s9-4 15-5c3-1 6-1 10-1s7 1 11 2c3 0 6 1 9 3 2 1 5 3 7 5 3 2 5 3 7 5s3 4 5 5c3 4 5 8 6 13s2 10 2 16zm-52 25h7c2 0 4-1 6-2 5-3 9-7 11-12s3-10 2-16c-1-3-2-5-3-8l-6-6c-2-1-5-3-8-3-2-1-5-1-8-1s-6 1-8 2c-3 1-5 2-7 5-4 4-6 8-8 13-1 5-1 10 1 16 0 1 0 2 1 3s2 2 2 3c3 2 6 3 9 5 3 1 6 2 9 1z"/><path id="1" class="fil15 str4" d="M5380 2363c0 5-1 10-3 15-1 5-4 10-7 15-4 5-8 9-13 12-4 3-10 6-15 8-2 0-3 1-5 1-2 1-4 1-6 1h-5c-2 0-4 0-5-1-2 0-4-1-7-2s-6-2-9-4-7-4-10-6c-3-3-6-5-8-8-3-3-4-6-6-9-1-4-1-7-2-10 0-6 0-11 1-16s2-11 5-15c1-3 2-6 4-9l8-8c3-2 7-5 11-7s9-4 15-5c3-1 6-1 10-1s7 1 11 2c3 0 6 1 9 3 2 1 5 3 7 5 3 2 5 3 7 5s3 4 5 5c3 4 5 8 6 13s2 10 2 16zm-52 25h7c2 0 4-1 6-2 5-3 9-7 11-12s3-10 2-16c-1-3-2-5-3-8l-6-6c-2-1-5-3-8-3-2-1-5-1-8-1s-6 1-8 2c-3 1-5 2-7 5-4 4-6 8-8 13-1 5-1 10 1 16 0 1 0 2 1 3s2 2 2 3c3 2 6 3 9 5 3 1 6 2 9 1z"/><path class="fil5 str5" d="M5328 2389h7l6-3c5-3 9-7 11-11 2-5 3-10 2-16-1-3-2-6-3-8-2-2-4-5-6-6-2-2-5-3-8-4-2-1-5-1-8-1-3 1-6 1-8 2-3 1-5 3-7 5-4 4-6 9-8 14-1 5-1 10 0 16 1 1 1 2 2 2 1 1 2 2 2 3 3 2 6 4 9 5 3 2 6 2 9 2z"/><path class="fil17 str0" d="M5000 2262c1 6 1 11 1 15v14c0 2-1 4-2 5s-4 1-8 1c-10 0-19-1-29-1h-28c-49 0-75 2-125 0h-9c-9-1-18-1-26 0-9 0-18 0-27-1-5 0-9-1-11-2-1-1-2-3-2-7 0-13 0-25-1-36v-36c1-21 1-41 2-61 0-21 1-41 1-61v-11c0-4 3-7 10-7h28c6 1 12 1 18 1 47 1 83 0 128 0h68c4 1 8 1 9 2s2 4 3 7c1 17 1 33 1 50v27c-1 8-1 17-1 26v75z"/><path class="fil18" d="M4865 2171v12h-24c-18 0-27 1-45 0h-22c-2 0-4-1-4-1-1 0-1-1-1-3v-48c0-7 0-14 1-22v-4c0-1 1-2 3-2h87c2 0 3 1 4 1 0 0 1 1 1 3v64zm0 89v11c0 1 0 1-1 2h-68c-2 0-3 0-4-1h-9c-3 1-7 0-10 0h-4c0-1-1-2-1-3v-26c0-8 0-15 1-22v-26c0-2 1-2 4-2 1 0 3-1 5-1 1 0 3 0 5 1h77c2 0 3 0 3 1 1 0 1 1 1 2 1 6 1 12 1 18v10c0 3-1 6-1 9v19c0 3 1 6 1 8zm105-88c0 2 1 4 1 5v5c0 1-1 2-1 2h-23c-18 0-28 1-46 0h-22c-2-1-3-1-4-1-1-1-1-1-1-3v-48c1-7 1-15 1-22v-4c0-1 1-2 3-2h88c2 0 3 1 3 1 1 0 1 1 1 2 0 6 1 12 1 18 0 4 0 7-1 10v37zm1 89v11c0 1 0 1-1 1 0 1-1 1-3 1h-65c-1 0-2-1-4-1h-18c-2 0-4 0-4-1-1 0-1-1-1-2v-13c-1-4-1-9 0-13v-22c0-8 0-15 1-22v-4c0-2 1-3 3-3h10c2 1 5 1 7 1h70c2 0 3 0 4 1 0 0 1 1 1 2v64z"/><path class="fil8 str0" d="M3546 3191c-13 18-26 35-38 53 13-18 26-35 38-53z"/><path fill="url(#id2)" d="M4223 2558l-2-84 255 2 2 281z"/><path class="fil10 str0" d="M4418 3284l1-282-574-449-520 442 2 286z"/><path class="fil10 str1" d="M3349 2985h1109.17v77.29H3349z"/><path class="fil10 str1" d="M3349 2908h1109.17v77.29H3349z"/><path class="fil10 str1" d="M3349 2831h1109.17v77.29H3349z"/><path class="fil10 str0" d="M3431 2754h870v77h-870z"/><path class="fil11 str0" d="M3488 2751h813v83h-813v-6h809v-72h-809z"/><path class="fil10 str0" d="M3511 2676h734v78h-734z"/><path class="fil12 str0" d="M3511 2673h719v83h-719v-5h715v-72h-715z"/><path class="fil10 str0" d="M3646 2599h492v77h-492zm428-49v47h-386v-47z"/><path class="fil10 str1" d="M3349 3063h1109.17v77.29H3349z"/><path class="fil10 str1" d="M3349 3140h1109.17v77.29H3349z"/><path fill="url(#id5)" d="M3891 2356l-806 659 116 97 685-561 718 557 126-96z"/><path class="fil14" d="M3417 3030c0 5-1 11-3 17s-5 12-9 18-9 11-15 15c-6 3-12 7-18 9-2 1-4 1-6 2-3 0-5 1-7 1h-7c-2 0-4-1-6-1-2-1-5-1-8-3-3-1-7-3-11-5-3-2-7-4-11-7s-7-6-10-10c-3-3-5-7-6-10-2-4-3-8-3-13 0-6 0-12 1-18 1-7 3-13 5-19l6-9c2-4 5-7 9-10s8-6 13-8c5-3 11-5 18-7 4-1 8-1 12-1s9 1 13 2 7 2 10 4c4 2 7 4 10 6s5 4 8 6c2 3 4 5 5 6 4 5 6 10 8 15 1 6 2 12 2 20zm-62 30c3 0 6 0 9-1 2 0 5-1 7-2 6-4 10-9 13-14 2-6 3-12 2-19-1-3-2-7-4-9-2-3-4-6-7-8-2-2-5-3-9-4-3-1-6-1-10-1-3 1-6 1-10 2-3 1-5 3-8 6-4 5-7 10-9 16-1 6-1 12 0 19 1 1 1 2 2 4l3 3c3 2 7 4 10 6 4 1 7 2 11 2z"/><path id="1" class="fil15 str2" d="M3417 3030c0 5-1 11-3 17s-5 12-9 18-9 11-15 15c-6 3-12 7-18 9-2 1-4 1-6 2-3 0-5 1-7 1h-7c-2 0-4-1-6-1-2-1-5-1-8-3-3-1-7-3-11-5-3-2-7-4-11-7s-7-6-10-10c-3-3-5-7-6-10-2-4-3-8-3-13 0-6 0-12 1-18 1-7 3-13 5-19l6-9c2-4 5-7 9-10s8-6 13-8c5-3 11-5 18-7 4-1 8-1 12-1s9 1 13 2 7 2 10 4c4 2 7 4 10 6s5 4 8 6c2 3 4 5 5 6 4 5 6 10 8 15 1 6 2 12 2 20zm-62 30c3 0 6 0 9-1 2 0 5-1 7-2 6-4 10-9 13-14 2-6 3-12 2-19-1-3-2-7-4-9-2-3-4-6-7-8-2-2-5-3-9-4-3-1-6-1-10-1-3 1-6 1-10 2-3 1-5 3-8 6-4 5-7 10-9 16-1 6-1 12 0 19 1 1 1 2 2 4l3 3c3 2 7 4 10 6 4 1 7 2 11 2z"/><path class="fil14" d="M3417 3134c0 5-1 11-3 17s-5 12-9 18-9 11-15 15c-6 3-12 7-18 9-2 1-4 1-6 2-3 0-5 1-7 1h-7c-2 0-4-1-6-1-2-1-5-1-8-3-3-1-7-3-11-5-3-2-7-4-11-7s-7-6-10-10c-3-3-5-7-6-10-2-4-3-8-3-13 0-6 0-12 1-18 1-7 3-13 5-19l6-9c2-4 5-7 9-10s8-6 13-9c5-2 11-4 18-6 4-1 8-1 12-1s9 1 13 2 7 2 10 4c4 2 7 4 10 6s5 4 8 6c2 3 4 5 5 6 4 5 6 10 8 15 1 6 2 12 2 20zm-62 30c3 0 6 0 9-1 2 0 5-1 7-2 6-4 10-9 13-14 2-6 3-12 2-19-1-3-2-7-4-9-2-3-4-6-7-8-2-2-5-3-9-4-3-1-6-1-10-1-3 1-6 1-10 2-3 1-5 3-8 6-4 5-7 10-9 16-1 6-1 12 0 19 1 1 1 2 2 4l3 3c3 2 7 4 10 6 4 1 7 2 11 2z"/><path id="1" class="fil15 str2" d="M3417 3134c0 5-1 11-3 17s-5 12-9 18-9 11-15 15c-6 3-12 7-18 9-2 1-4 1-6 2-3 0-5 1-7 1h-7c-2 0-4-1-6-1-2-1-5-1-8-3-3-1-7-3-11-5-3-2-7-4-11-7s-7-6-10-10c-3-3-5-7-6-10-2-4-3-8-3-13 0-6 0-12 1-18 1-7 3-13 5-19l6-9c2-4 5-7 9-10s8-6 13-9c5-2 11-4 18-6 4-1 8-1 12-1s9 1 13 2 7 2 10 4c4 2 7 4 10 6s5 4 8 6c2 3 4 5 5 6 4 5 6 10 8 15 1 6 2 12 2 20zm-62 30c3 0 6 0 9-1 2 0 5-1 7-2 6-4 10-9 13-14 2-6 3-12 2-19-1-3-2-7-4-9-2-3-4-6-7-8-2-2-5-3-9-4-3-1-6-1-10-1-3 1-6 1-10 2-3 1-5 3-8 6-4 5-7 10-9 16-1 6-1 12 0 19 1 1 1 2 2 4l3 3c3 2 7 4 10 6 4 1 7 2 11 2z"/><path class="fil4 str3" d="M3355 3060h9c2-1 5-1 7-3 6-4 11-8 13-14 3-5 3-12 2-19 0-3-2-6-3-9-2-3-5-5-7-7-3-2-6-4-9-5-4-1-7-1-10 0-4 0-7 1-10 2s-6 3-8 5c-5 5-8 11-9 17-2 5-2 12 0 19 0 1 1 2 2 3s2 2 2 3c4 3 7 5 11 6 3 2 7 2 10 2z"/><path class="fil5 str3" d="M3355 3060h9c2-1 5-1 7-3 6-4 11-8 13-14 3-5 3-12 2-19 0-3-2-6-3-9-2-3-5-5-7-7-3-2-6-4-9-5-4-1-7-1-10 0-4 0-7 1-10 2s-6 3-8 5c-5 5-8 11-9 17-2 5-2 12 0 19 0 1 1 2 2 3s2 2 2 3c4 3 7 5 11 6 3 2 7 2 10 2zm0 104c3 1 6 0 8 0 3 0 5-1 8-3 6-3 10-8 13-14 2-5 3-11 2-18-1-4-2-7-4-10s-4-5-7-7-6-4-9-5-6-1-10 0c-3 0-7 1-10 2s-6 3-8 6c-4 5-7 10-9 16s-1 12 0 19c1 1 1 2 2 3l3 3c3 3 6 5 10 7 3 1 7 2 11 1z"/><path class="fil14" d="M3416 3241c0 5-1 11-4 17-2 6-5 12-9 18s-9 11-14 15c-6 3-12 6-19 9-2 1-4 1-6 2-2 0-4 1-7 1h-6c-2 0-4-1-6-1-2-1-5-1-8-3-4-1-7-3-11-5s-8-5-12-7c-3-3-7-6-10-10-3-3-5-7-6-11-1-3-2-7-2-12-1-6 0-12 0-19 1-6 3-12 6-18 1-3 3-6 6-9 2-4 5-7 9-10 3-3 8-6 13-9 5-2 11-4 18-6 3-1 7-1 12-1 4 0 8 1 13 2 3 1 6 2 10 4l9 6c3 2 6 4 8 6 2 3 4 4 5 6 4 5 7 10 8 15 2 6 3 12 3 20zm-63 30c4 0 6 0 9-1 3 0 5-1 7-2 6-4 11-9 13-14 3-6 4-12 2-19 0-3-1-7-3-9-2-3-4-6-7-8s-6-3-9-4-7-1-10-1c-4 1-7 1-10 2s-6 3-8 6c-5 5-8 10-9 16-2 6-2 12 0 19 0 1 1 2 2 4l3 3c3 2 6 4 10 6 3 1 7 2 10 2z"/><path id="1" class="fil15 str2" d="M3416 3241c0 5-1 11-4 17-2 6-5 12-9 18s-9 11-14 15c-6 3-12 6-19 9-2 1-4 1-6 2-2 0-4 1-7 1h-6c-2 0-4-1-6-1-2-1-5-1-8-3-4-1-7-3-11-5s-8-5-12-7c-3-3-7-6-10-10-3-3-5-7-6-11-1-3-2-7-2-12-1-6 0-12 0-19 1-6 3-12 6-18 1-3 3-6 6-9 2-4 5-7 9-10 3-3 8-6 13-9 5-2 11-4 18-6 3-1 7-1 12-1 4 0 8 1 13 2 3 1 6 2 10 4l9 6c3 2 6 4 8 6 2 3 4 4 5 6 4 5 7 10 8 15 2 6 3 12 3 20zm-63 30c4 0 6 0 9-1 3 0 5-1 7-2 6-4 11-9 13-14 3-6 4-12 2-19 0-3-1-7-3-9-2-3-4-6-7-8s-6-3-9-4-7-1-10-1c-4 1-7 1-10 2s-6 3-8 6c-5 5-8 10-9 16-2 6-2 12 0 19 0 1 1 2 2 4l3 3c3 2 6 4 10 6 3 1 7 2 10 2z"/><path class="fil5 str3" d="M3353 3271c3 1 6 0 9 0 2 0 5-1 7-3 6-3 11-8 13-14 3-5 3-11 2-18 0-4-2-7-3-10-2-3-5-5-7-7-3-2-6-4-9-5-4-1-7-1-10 0-4 0-7 1-10 2s-6 3-8 5c-5 5-8 11-9 17-2 6-2 12 0 19 0 1 1 2 2 3s2 2 2 3c4 3 7 5 11 6 3 2 7 3 10 2z"/><path class="fil21" d="M4494 3005c-1 6-2 12-4 18s-5 12-9 18-9 11-15 14c-5 4-11 7-18 10-2 0-4 1-6 1-2 1-5 1-7 1h-6c-3 0-5 0-7-1-2 0-4-1-8-2-3-2-7-3-10-5-4-2-8-5-12-8s-7-6-10-9c-3-4-5-7-6-11-2-4-2-8-3-12 0-7 0-13 1-19s3-12 6-18c1-3 3-6 5-10l9-9c4-4 8-6 13-9 6-3 12-5 19-6 3-1 7-1 11-1 5 0 9 1 13 2s7 2 11 4c3 1 6 3 9 5 3 3 6 5 8 7s4 4 5 6c4 4 6 10 8 15s3 12 3 19zm-63 30c3 1 6 0 9 0 2 0 5-1 7-3 6-3 10-8 13-14 3-5 3-12 2-18-1-4-2-7-4-10-1-3-4-5-6-7-3-2-6-4-9-5-4-1-7-1-10 0-4 0-7 1-10 2s-6 3-8 5c-5 5-8 11-9 17-2 6-2 12 0 19 0 1 1 2 2 3 0 1 1 2 2 3 4 3 7 5 10 6 4 2 7 3 11 2z"/><path id="1" class="fil15 str6" d="M4494 3005c-1 6-2 12-4 18s-5 12-9 18-9 11-15 14c-5 4-11 7-18 10-2 0-4 1-6 1-2 1-5 1-7 1h-6c-3 0-5 0-7-1-2 0-4-1-8-2-3-2-7-3-10-5-4-2-8-5-12-8s-7-6-10-9c-3-4-5-7-6-11-2-4-2-8-3-12 0-7 0-13 1-19s3-12 6-18c1-3 3-6 5-10l9-9c4-4 8-6 13-9 6-3 12-5 19-6 3-1 7-1 11-1 5 0 9 1 13 2s7 2 11 4c3 1 6 3 9 5 3 3 6 5 8 7s4 4 5 6c4 4 6 10 8 15s3 12 3 19zm-63 30c3 1 6 0 9 0 2 0 5-1 7-3 6-3 10-8 13-14 3-5 3-12 2-18-1-4-2-7-4-10-1-3-4-5-6-7-3-2-6-4-9-5-4-1-7-1-10 0-4 0-7 1-10 2s-6 3-8 5c-5 5-8 11-9 17-2 6-2 12 0 19 0 1 1 2 2 3 0 1 1 2 2 3 4 3 7 5 10 6 4 2 7 3 11 2z"/><path class="fil21" d="M4494 3109c-1 6-2 12-4 18s-5 12-9 18-9 11-15 14c-5 4-11 7-18 10-2 0-4 1-6 1-2 1-5 1-7 1h-6c-3 0-5 0-7-1-2 0-4-1-8-2-3-2-7-3-10-5-4-3-8-5-12-8s-7-6-10-9c-3-4-5-7-6-11-2-4-2-8-3-12 0-7 0-13 1-19s3-12 6-18c1-3 3-6 5-10l9-9c4-4 8-6 13-9 6-3 12-5 19-6 3-1 7-1 11-1 5 0 9 0 13 2 4 1 7 2 11 4 3 1 6 3 9 5 3 3 6 5 8 7s4 4 5 6c4 4 6 10 8 15s3 12 3 19zm-63 30h9c2 0 5-1 7-3 6-3 10-8 13-14 3-5 3-12 2-19-1-3-2-6-4-9-1-3-4-5-6-7-3-2-6-4-9-5-4-1-7-1-10 0-4 0-7 1-10 2s-6 3-8 5c-5 5-8 11-9 17-2 6-2 12 0 19 0 1 1 2 2 3 0 1 1 2 2 3 4 3 7 5 10 6 4 2 7 3 11 2z"/><path id="1" class="fil15 str6" d="M4494 3109c-1 6-2 12-4 18s-5 12-9 18-9 11-15 14c-5 4-11 7-18 10-2 0-4 1-6 1-2 1-5 1-7 1h-6c-3 0-5 0-7-1-2 0-4-1-8-2-3-2-7-3-10-5-4-3-8-5-12-8s-7-6-10-9c-3-4-5-7-6-11-2-4-2-8-3-12 0-7 0-13 1-19s3-12 6-18c1-3 3-6 5-10l9-9c4-4 8-6 13-9 6-3 12-5 19-6 3-1 7-1 11-1 5 0 9 0 13 2 4 1 7 2 11 4 3 1 6 3 9 5 3 3 6 5 8 7s4 4 5 6c4 4 6 10 8 15s3 12 3 19zm-63 30h9c2 0 5-1 7-3 6-3 10-8 13-14 3-5 3-12 2-19-1-3-2-6-4-9-1-3-4-5-6-7-3-2-6-4-9-5-4-1-7-1-10 0-4 0-7 1-10 2s-6 3-8 5c-5 5-8 11-9 17-2 6-2 12 0 19 0 1 1 2 2 3 0 1 1 2 2 3 4 3 7 5 10 6 4 2 7 3 11 2z"/><path class="fil8 str0" d="M4432 3036c3 0 6 0 8-1 3 0 5-1 7-2 7-4 11-9 13-14 3-6 4-12 2-19 0-4-1-7-3-10-2-2-4-5-7-7s-6-3-9-4-7-1-10-1c-4 0-7 1-10 2s-6 3-8 6c-4 5-7 10-9 16s-2 12 0 19c0 1 1 2 2 4l3 3c3 2 6 4 10 6 3 1 7 2 11 2z"/><path class="fil5 str0" d="M4431 3140h9c2-1 5-2 7-3 6-4 10-8 13-14s3-12 2-19c-1-3-2-6-4-9s-4-6-7-8c-2-2-5-3-9-4-3-1-6-1-10-1-3 1-6 1-9 2-4 1-6 3-9 6-4 5-7 10-9 16-1 6-1 12 1 19 0 1 1 3 1 4l3 3c3 2 7 4 10 6 4 2 7 2 11 2zm1-104c3 0 6 0 8-1 3 0 5-1 7-2 7-4 11-9 13-14 3-6 4-12 2-19 0-4-1-7-3-10-2-2-4-5-7-7s-6-3-9-4-7-1-10-1c-4 0-7 1-10 2s-6 3-8 6c-4 5-7 10-9 16s-2 12 0 19c0 1 1 2 2 4l3 3c3 2 6 4 10 6 3 1 7 2 11 2z"/><path class="fil21" d="M4492 3216c0 6-1 12-3 18l-9 18c-5 6-9 11-15 14-6 4-12 7-18 9-2 1-4 2-7 2-2 1-4 1-6 1h-7c-2 0-4 0-6-1-2 0-5-1-8-2-4-2-7-3-11-5-4-3-7-5-11-8s-7-6-11-9c-2-4-4-7-6-11-1-4-2-8-2-12 0-7 0-13 1-19s2-12 5-18c2-3 3-6 6-10 2-3 5-6 9-10 4-3 8-5 13-8s11-5 18-6c4-1 7-1 12-1 4 0 9 0 13 2 3 0 7 2 10 4 3 1 7 3 10 5l7 7c3 2 4 4 6 6 3 4 6 10 8 15 1 5 2 12 2 19zm-62 30h8c3-1 5-1 8-3 6-3 10-8 13-14 2-5 3-12 2-19-1-3-2-6-4-9s-4-5-7-7-6-4-9-5-6-1-10 0c-3 0-7 1-10 2s-6 3-8 5c-4 5-7 11-9 17s-2 12 0 19c1 1 1 2 2 3l3 3c3 3 6 5 10 6 3 2 7 3 11 2z"/><path id="1" class="fil15 str6" d="M4492 3216c0 6-1 12-3 18l-9 18c-5 6-9 11-15 14-6 4-12 7-18 9-2 1-4 2-7 2-2 1-4 1-6 1h-7c-2 0-4 0-6-1-2 0-5-1-8-2-4-2-7-3-11-5-4-3-7-5-11-8s-7-6-11-9c-2-4-4-7-6-11-1-4-2-8-2-12 0-7 0-13 1-19s2-12 5-18c2-3 3-6 6-10 2-3 5-6 9-10 4-3 8-5 13-8s11-5 18-6c4-1 7-1 12-1 4 0 9 0 13 2 3 0 7 2 10 4 3 1 7 3 10 5l7 7c3 2 4 4 6 6 3 4 6 10 8 15 1 5 2 12 2 19zm-62 30h8c3-1 5-1 8-3 6-3 10-8 13-14 2-5 3-12 2-19-1-3-2-6-4-9s-4-5-7-7-6-4-9-5-6-1-10 0c-3 0-7 1-10 2s-6 3-8 5c-4 5-7 11-9 17s-2 12 0 19c1 1 1 2 2 3l3 3c3 3 6 5 10 6 3 2 7 3 11 2z"/><path class="fil5 str0" d="M4429 3247h9c3-1 5-2 7-3 7-4 11-9 13-14 3-6 4-12 2-19 0-3-1-7-3-9-2-3-4-6-7-8s-6-3-9-4-7-1-10-1c-4 1-7 1-10 2s-6 3-8 6c-4 5-7 10-9 16s-2 12 0 19c0 1 1 3 2 4l3 3c3 2 6 4 10 6 3 2 7 2 10 2z"/><path class="fil17 str0" d="M4039 3096c0 7 0 13 1 17v17c0 3-1 5-3 6-1 1-5 1-10 1-11 0-22 0-33-1h-34c-59 0-90 3-149 0h-12c-10-1-20-1-31 0-10 0-20 0-31-1-7 0-11-1-13-2-2-2-3-4-3-9 0-16 0-30-1-43v-43c1-25 1-49 2-73 0-24 1-48 2-73v-12c0-6 4-8 11-8h16c6-1 12-1 17 0h23c55 1 99 0 153 0h70c5 0 8 0 10 1 5 0 9 1 11 2s3 4 3 9c1 19 2 39 2 59 0 10 0 21-1 32 0 10-1 21-1 31v63c1 11 1 19 1 27z"/><path class="fil18" d="M3877 2987c0 2 1 4 1 6v6c0 1-1 2-1 2-1 1-2 1-4 1-4-1-8-1-12-1h-12c-21 0-33 1-54 0h-27c-2 0-4-1-4-1-1 0-1-2-1-3 0-6 0-11-1-16v-15c1-9 1-18 1-27 0-8 0-17 1-26v-4c0-2 1-3 4-3h104c2 0 3 1 4 1s1 1 1 3c1 7 1 14 1 21v12c-1 4-1 8-1 11v33zm0 107v12c0 1 0 2-1 2 0 0-2 1-3 0h-24c-22 0-33 1-55 0h-26c-3 0-4-1-5-1-1-1-1-2-1-3v-58c1-8 1-17 1-26v-5c0-1 1-2 4-2h104c2 0 4 0 4 1 1 0 1 1 2 3v77zm126-106v14c-1 1-2 1-4 1-4 0-8-1-12-1h-12c-22 0-33 1-54 0h-27c-2 0-4 0-5-1 0 0-1-1-1-3v-31c0-9 0-18 1-26v-31c0-2 2-3 4-3h105c2 0 3 1 4 1 0 1 1 2 1 3v77zm1 107v12c0 1 0 2-1 2 0 1-2 1-3 1-4 0-9-1-13-1h-12c-21 0-32 1-54 0h-26c-3 0-4 0-5-1-1 0-1-1-1-3v-57c1-9 1-18 1-27v-4c0-2 1-3 4-3h104c2 0 4 1 4 1 1 1 1 2 1 3 1 7 1 14 1 21v12c0 4 0 8-1 11v13c0 3 1 6 1 10v10z"/><path class="fil8 str0" d="M4629 3631c-22 30-44 60-65 90 22-30 44-59 65-90z"/><path fill="url(#id1)" d="M5728 2525l-3-120 368 1 3 407z"/><path class="fil10 str0" d="M6115 3789l1-480-978-765-886 753 4 487z"/><path class="fil10 str1" d="M4294 3281h1890v132H4294zm0-132h1890v132H4294zm0-132h1890v132H4294z"/><path class="fil10 str0" d="M4434 2886h1482v131H4434z"/><path class="fil23 str7" d="M4531 2881h1385v141H4531v-9h1377v-122H4531z"/><path class="fil10 str0" d="M4569 2754h1251v132H4569z"/><path class="fil23 str7" d="M4569 2749h1225v142H4569v-10h1219v-122H4569z"/><path class="fil10 str0" d="M4800 2622h837v132h-837zm728-83v80h-657v-80z"/><path class="fil10 str1" d="M4294 3412h1890v132H4294zm0 132h1890v132H4294z"/><path class="fil14" d="M4410 3356c0 10-2 20-6 30s-9 21-16 31-15 18-25 24c-9 7-20 12-31 16-3 1-7 2-10 3-4 1-8 2-12 2h-11c-4 0-7-1-10-1-4-1-9-3-14-5-6-2-12-5-19-9-6-3-12-8-19-12-6-5-12-11-17-17-5-5-9-11-11-18-2-6-4-13-4-21-1-10 0-21 1-32 2-10 5-20 10-31 2-5 5-10 9-16s9-11 16-17c6-5 13-10 22-14 9-5 19-8 31-11 6-1 12-2 20-1 7 0 15 1 22 3 6 1 12 3 18 7 5 3 11 6 16 9 5 4 9 8 13 12 4 3 7 7 9 9 6 8 11 17 14 26 2 10 4 21 4 33zm-107 52c6 0 11 0 15-1s9-2 13-5c10-6 17-14 22-23 4-10 5-21 3-33-1-5-3-11-6-16-3-4-7-9-12-12-4-3-10-6-15-8-6-1-11-2-17-1s-12 2-17 4-10 5-14 10c-7 8-12 17-15 27s-3 21 0 32c1 2 2 4 3 7l5 5c5 4 11 8 17 10 6 3 12 4 18 4z"/><path id="1" class="fil15 str2" d="M4410 3356c0 10-2 20-6 30s-9 21-16 31-15 18-25 24c-9 7-20 12-31 16-3 1-7 2-10 3-4 1-8 2-12 2h-11c-4 0-7-1-10-1-4-1-9-3-14-5-6-2-12-5-19-9-6-3-12-8-19-12-6-5-12-11-17-17-5-5-9-11-11-18-2-6-4-13-4-21-1-10 0-21 1-32 2-10 5-20 10-31 2-5 5-10 9-16s9-11 16-17c6-5 13-10 22-14 9-5 19-8 31-11 6-1 12-2 20-1 7 0 15 1 22 3 6 1 12 3 18 7 5 3 11 6 16 9 5 4 9 8 13 12 4 3 7 7 9 9 6 8 11 17 14 26 2 10 4 21 4 33zm-107 52c6 0 11 0 15-1s9-2 13-5c10-6 17-14 22-23 4-10 5-21 3-33-1-5-3-11-6-16-3-4-7-9-12-12-4-3-10-6-15-8-6-1-11-2-17-1s-12 2-17 4-10 5-14 10c-7 8-12 17-15 27s-3 21 0 32c1 2 2 4 3 7l5 5c5 4 11 8 17 10 6 3 12 4 18 4z"/><path class="fil14" d="M4410 3534c0 9-2 19-6 29-4 11-9 21-16 31s-15 18-25 25c-9 6-20 11-31 15-3 2-7 3-10 3-4 1-8 2-12 2h-11c-4 0-7 0-10-1-4-1-9-3-14-5-6-2-12-5-19-9-6-3-12-7-19-12-6-5-12-11-17-17-5-5-9-11-11-18-2-6-4-13-4-20-1-11 0-22 1-32 2-11 5-21 10-31 2-6 5-11 9-17s9-11 16-16c6-6 13-10 22-15 9-4 19-8 31-11 6-1 12-2 20-1 7 0 15 1 22 3 6 1 12 4 18 7 5 3 11 6 16 10 5 3 9 7 13 11 4 3 7 7 9 10 6 8 11 16 14 26 2 9 4 20 4 33zm-107 51c6 0 11 0 15-1s9-2 13-4c10-7 17-15 22-24 4-10 5-20 3-32-1-6-3-12-6-16-3-5-7-9-12-13-4-3-10-6-15-7-6-2-11-2-17-2-6 1-12 2-17 4s-10 5-14 10c-7 8-12 17-15 27s-3 21 0 33l3 6 5 5c5 4 11 8 17 10 6 3 12 4 18 4z"/><path id="1" class="fil15 str2" d="M4410 3534c0 9-2 19-6 29-4 11-9 21-16 31s-15 18-25 25c-9 6-20 11-31 15-3 2-7 3-10 3-4 1-8 2-12 2h-11c-4 0-7 0-10-1-4-1-9-3-14-5-6-2-12-5-19-9-6-3-12-7-19-12-6-5-12-11-17-17-5-5-9-11-11-18-2-6-4-13-4-20-1-11 0-22 1-32 2-11 5-21 10-31 2-6 5-11 9-17s9-11 16-16c6-6 13-10 22-15 9-4 19-8 31-11 6-1 12-2 20-1 7 0 15 1 22 3 6 1 12 4 18 7 5 3 11 6 16 10 5 3 9 7 13 11 4 3 7 7 9 10 6 8 11 16 14 26 2 9 4 20 4 33zm-107 51c6 0 11 0 15-1s9-2 13-4c10-7 17-15 22-24 4-10 5-20 3-32-1-6-3-12-6-16-3-5-7-9-12-13-4-3-10-6-15-7-6-2-11-2-17-2-6 1-12 2-17 4s-10 5-14 10c-7 8-12 17-15 27s-3 21 0 33l3 6 5 5c5 4 11 8 17 10 6 3 12 4 18 4z"/><path class="fil4 str3" d="M4304 3408c5 0 10 0 15-1 4 0 8-2 12-4 11-6 18-14 22-24 5-9 6-20 4-32-1-6-3-11-6-16-4-5-7-9-12-12-5-4-10-6-15-8-6-2-12-2-18-1-5 1-11 2-16 4-6 1-10 5-14 9-8 9-13 18-16 28-2 10-2 21 1 32 0 2 1 4 3 6 1 2 3 4 5 5 5 5 11 8 17 11s12 4 18 3z"/><path class="fil5 str3" d="M4304 3408c5 0 10 0 15-1 4 0 8-2 12-4 11-6 18-14 22-24 5-9 6-20 4-32-1-6-3-11-6-16-4-5-7-9-12-12-5-4-10-6-15-8-6-2-12-2-18-1-5 1-11 2-16 4-6 1-10 5-14 9-8 9-13 18-16 28-2 10-2 21 1 32 0 2 1 4 3 6 1 2 3 4 5 5 5 5 11 8 17 11s12 4 18 3zm-1 178c6 0 10 0 15-1 4-1 8-2 12-4 11-7 18-15 23-24 4-10 5-20 3-32-1-6-3-12-6-16-4-5-7-9-12-13-5-3-10-6-15-7-6-2-12-2-17-2-6 1-12 2-17 4-6 2-10 5-14 10-7 8-13 17-15 27-3 10-3 21 0 33 0 2 2 4 3 6l5 5c5 4 11 8 17 10 6 3 12 4 18 4z"/><path class="fil14" d="M4407 3716c0 9-2 19-6 29-3 11-8 21-15 31s-15 19-25 25-20 11-31 16c-4 1-7 2-11 3-4 0-7 1-11 1-4 1-8 1-12 0-3 0-7 0-10-1-4-1-8-2-14-5-6-2-12-5-18-9-6-3-13-7-19-12-7-5-13-10-18-16s-8-12-10-18c-3-7-4-14-5-21 0-11 0-22 2-32 1-11 4-21 9-31 3-5 6-11 10-17 4-5 9-11 15-16s14-10 23-15c8-4 19-8 31-11 5-1 12-1 19-1 8 0 15 1 23 3 6 2 11 4 17 7s11 6 16 10 10 7 14 11c3 4 6 7 9 10 6 8 10 17 13 26s4 20 4 33zm-106 51c5 0 10 0 15-1 4 0 8-2 12-4 10-7 18-15 22-24 5-10 6-20 4-32-1-6-4-11-7-16s-7-9-11-13c-5-3-10-6-16-7-5-2-11-2-17-1-6 0-11 2-16 3-6 2-10 5-14 10-8 8-13 18-16 28s-2 20 1 32c0 2 1 4 3 6 1 2 3 4 4 5 6 5 12 8 18 11 6 2 12 3 18 3z"/><path id="1" class="fil15 str2" d="M4407 3716c0 9-2 19-6 29-3 11-8 21-15 31s-15 19-25 25-20 11-31 16c-4 1-7 2-11 3-4 0-7 1-11 1-4 1-8 1-12 0-3 0-7 0-10-1-4-1-8-2-14-5-6-2-12-5-18-9-6-3-13-7-19-12-7-5-13-10-18-16s-8-12-10-18c-3-7-4-14-5-21 0-11 0-22 2-32 1-11 4-21 9-31 3-5 6-11 10-17 4-5 9-11 15-16s14-10 23-15c8-4 19-8 31-11 5-1 12-1 19-1 8 0 15 1 23 3 6 2 11 4 17 7s11 6 16 10 10 7 14 11c3 4 6 7 9 10 6 8 10 17 13 26s4 20 4 33zm-106 51c5 0 10 0 15-1 4 0 8-2 12-4 10-7 18-15 22-24 5-10 6-20 4-32-1-6-4-11-7-16s-7-9-11-13c-5-3-10-6-16-7-5-2-11-2-17-1-6 0-11 2-16 3-6 2-10 5-14 10-8 8-13 18-16 28s-2 20 1 32c0 2 1 4 3 6 1 2 3 4 4 5 6 5 12 8 18 11 6 2 12 3 18 3z"/><path class="fil5 str3" d="M4301 3768c5 0 10 0 14-1 5 0 9-2 13-4 10-7 18-15 22-24 4-10 6-20 3-32-1-6-3-11-6-16s-7-9-12-13c-4-3-9-6-15-7-5-2-11-2-17-1-6 0-11 2-17 3-5 2-10 5-14 10-7 8-12 18-15 28s-3 20 0 32l3 6 5 5c6 5 11 8 17 11 6 2 12 3 19 3z"/><path class="fil16" d="M6244 3315c-1 9-3 19-6 29-4 11-9 21-16 31s-15 19-25 25-20 11-31 16c-3 1-7 2-11 3-3 0-7 1-11 1-4 1-8 1-11 0-4 0-8 0-11-1s-8-3-14-5c-5-2-11-5-18-9-6-3-13-7-19-12-7-5-13-10-18-17-4-5-8-11-10-18-3-6-4-13-4-20-1-11 0-22 1-32 2-11 5-21 9-31 3-6 6-11 10-17s9-11 15-16c7-6 14-10 23-15 9-4 19-8 31-11 6-1 12-1 20-1 7 0 14 1 22 3 6 2 11 4 17 7s11 6 16 10c5 3 10 7 14 11s7 7 9 10c6 8 11 16 13 26 3 9 4 20 5 33zm-107 51c6 0 10 0 15-1 4-1 8-2 12-4 11-7 18-15 22-24 5-10 6-20 4-32-1-6-3-11-6-16-4-5-7-9-12-13-5-3-10-6-15-7-6-2-12-2-17-2-6 1-12 3-17 4-6 2-10 5-14 10-8 8-13 18-15 27-3 10-3 21 0 33 0 2 1 4 3 6 1 2 3 4 5 5 5 4 11 8 17 11 6 2 12 3 18 3z"/><path id="1" class="fil15 str4" d="M6244 3315c-1 9-3 19-6 29-4 11-9 21-16 31s-15 19-25 25-20 11-31 16c-3 1-7 2-11 3-3 0-7 1-11 1-4 1-8 1-11 0-4 0-8 0-11-1s-8-3-14-5c-5-2-11-5-18-9-6-3-13-7-19-12-7-5-13-10-18-17-4-5-8-11-10-18-3-6-4-13-4-20-1-11 0-22 1-32 2-11 5-21 9-31 3-6 6-11 10-17s9-11 15-16c7-6 14-10 23-15 9-4 19-8 31-11 6-1 12-1 20-1 7 0 14 1 22 3 6 2 11 4 17 7s11 6 16 10c5 3 10 7 14 11s7 7 9 10c6 8 11 16 13 26 3 9 4 20 5 33zm-107 51c6 0 10 0 15-1 4-1 8-2 12-4 11-7 18-15 22-24 5-10 6-20 4-32-1-6-3-11-6-16-4-5-7-9-12-13-5-3-10-6-15-7-6-2-12-2-17-2-6 1-12 3-17 4-6 2-10 5-14 10-8 8-13 18-15 27-3 10-3 21 0 33 0 2 1 4 3 6 1 2 3 4 5 5 5 4 11 8 17 11 6 2 12 3 18 3z"/><path class="fil16" d="M6244 3492c-1 9-3 19-6 29-4 11-9 21-16 31s-15 19-25 25-20 11-31 16c-3 1-7 2-11 3-3 1-7 1-11 1-4 1-8 1-11 1-4-1-8-1-11-2s-8-2-14-5c-5-2-11-5-18-8-6-4-13-8-19-13-7-5-13-10-18-16-4-6-8-12-10-18-3-7-4-14-4-21-1-11 0-22 1-32 2-11 5-21 9-31 3-5 6-11 10-17 4-5 9-11 15-16 7-5 14-10 23-15 9-4 19-8 31-11 6-1 12-1 20-1 7 0 14 1 22 3 6 2 11 4 17 7s11 6 16 10 10 7 14 11 7 7 9 10c6 8 11 17 13 26 3 9 4 20 5 33zm-107 51c6 0 10 0 15-1 4 0 8-2 12-4 11-7 18-15 22-24 5-10 6-20 4-32-1-6-3-11-6-16-4-5-7-9-12-13-5-3-10-6-15-7-6-2-12-2-17-1-6 0-12 2-17 3-6 2-10 5-14 10-8 8-13 18-15 28-3 10-3 20 0 32 0 2 1 4 3 6 1 2 3 4 5 5 5 5 11 8 17 11 6 2 12 3 18 3z"/><path id="1" class="fil15 str4" d="M6244 3492c-1 9-3 19-6 29-4 11-9 21-16 31s-15 19-25 25-20 11-31 16c-3 1-7 2-11 3-3 1-7 1-11 1-4 1-8 1-11 1-4-1-8-1-11-2s-8-2-14-5c-5-2-11-5-18-8-6-4-13-8-19-13-7-5-13-10-18-16-4-6-8-12-10-18-3-7-4-14-4-21-1-11 0-22 1-32 2-11 5-21 9-31 3-5 6-11 10-17 4-5 9-11 15-16 7-5 14-10 23-15 9-4 19-8 31-11 6-1 12-1 20-1 7 0 14 1 22 3 6 2 11 4 17 7s11 6 16 10 10 7 14 11 7 7 9 10c6 8 11 17 13 26 3 9 4 20 5 33zm-107 51c6 0 10 0 15-1 4 0 8-2 12-4 11-7 18-15 22-24 5-10 6-20 4-32-1-6-3-11-6-16-4-5-7-9-12-13-5-3-10-6-15-7-6-2-12-2-17-1-6 0-12 2-17 3-6 2-10 5-14 10-8 8-13 18-15 28-3 10-3 20 0 32 0 2 1 4 3 6 1 2 3 4 5 5 5 5 11 8 17 11 6 2 12 3 18 3z"/><path class="fil8 str0" d="M6138 3367c5 0 10-1 14-1 5-1 9-2 13-5 10-6 18-14 22-24 5-9 6-20 3-32-1-6-3-11-6-16s-7-9-11-12c-5-4-10-6-16-8-5-1-11-2-17-1s-11 2-17 4c-5 2-10 5-13 9-8 9-13 18-16 28s-3 21 0 32c1 2 2 4 4 6 1 2 3 4 4 6 6 4 11 8 17 10 6 3 12 4 19 4z"/><path class="fil5 str3" d="M6137 3544c5 0 10 0 15-1 4 0 8-2 12-4 10-7 18-14 22-24 5-9 6-20 4-32-1-6-4-11-7-16s-7-9-11-13c-5-3-10-5-16-7-5-2-11-2-17-1-6 0-11 2-17 3-5 2-10 5-13 10-8 8-13 18-16 28s-2 20 1 32c0 2 1 4 3 6 1 2 3 4 4 5 6 5 12 8 18 11 5 2 12 3 18 3zm1-177c5 0 10-1 14-1 5-1 9-2 13-5 10-6 18-14 22-24 5-9 6-20 3-32-1-6-3-11-6-16s-7-9-11-12c-5-4-10-6-16-8-5-1-11-2-17-1s-11 2-17 4c-5 2-10 5-13 9-8 9-13 18-16 28s-3 21 0 32c1 2 2 4 4 6 1 2 3 4 4 6 6 4 11 8 17 10 6 3 12 4 19 4z"/><path class="fil16" d="M6241 3674c0 9-2 19-6 30-4 10-9 20-15 30-7 11-16 19-25 25-10 6-21 12-32 16-3 1-6 2-10 3s-8 1-11 2h-12c-4 0-7-1-10-2-4-1-9-2-14-4l-18-9c-7-4-13-8-20-13-6-5-12-10-17-16s-8-12-11-18c-2-7-3-14-4-21 0-11 0-21 2-32 1-10 4-21 9-31 2-5 5-11 9-16 4-6 10-12 16-17s14-10 22-14c9-5 19-8 31-11 6-1 13-2 20-2s15 2 23 4c5 1 11 3 17 6 5 3 11 7 16 10 5 4 9 7 13 11s7 7 9 10c7 8 11 17 14 26 2 9 4 20 4 33zm-106 51h14c5-1 9-3 13-5 10-6 17-14 22-24 4-9 5-20 3-32-1-6-3-11-6-16s-7-9-12-12c-4-4-9-6-15-8-5-2-11-2-17-1s-11 2-17 4c-5 1-10 5-14 9-7 9-12 18-15 28s-3 21 0 32l3 6 5 5c6 5 11 8 17 11s12 4 19 3z"/><path id="1" class="fil15 str4" d="M6241 3674c0 9-2 19-6 30-4 10-9 20-15 30-7 11-16 19-25 25-10 6-21 12-32 16-3 1-6 2-10 3s-8 1-11 2h-12c-4 0-7-1-10-2-4-1-9-2-14-4l-18-9c-7-4-13-8-20-13-6-5-12-10-17-16s-8-12-11-18c-2-7-3-14-4-21 0-11 0-21 2-32 1-10 4-21 9-31 2-5 5-11 9-16 4-6 10-12 16-17s14-10 22-14c9-5 19-8 31-11 6-1 13-2 20-2s15 2 23 4c5 1 11 3 17 6 5 3 11 7 16 10 5 4 9 7 13 11s7 7 9 10c7 8 11 17 14 26 2 9 4 20 4 33zm-106 51h14c5-1 9-3 13-5 10-6 17-14 22-24 4-9 5-20 3-32-1-6-3-11-6-16s-7-9-12-12c-4-4-9-6-15-8-5-2-11-2-17-1s-11 2-17 4c-5 1-10 5-14 9-7 9-12 18-15 28s-3 21 0 32l3 6 5 5c6 5 11 8 17 11s12 4 19 3z"/><path class="fil5 str3" d="M6134 3726c6 1 11 0 15 0 4-1 9-3 13-5 10-6 17-14 22-24 4-9 5-20 3-32-1-6-3-11-6-16s-7-9-12-12c-5-4-10-6-15-8-6-1-11-2-17-1s-12 2-17 4c-5 1-10 5-14 9-7 9-12 18-15 28s-3 21 0 32l3 6c2 2 3 4 5 5 5 5 11 8 17 11s12 4 18 3z"/><path class="fil17 str0" d="M5468 3469c1 12 2 22 2 29v29c0 5-1 9-4 10-3 2-9 3-17 2-19 0-38-1-57-1h-57c-101 0-154 4-255 0-6 0-13-1-19-1-18-1-36-1-53 0-18 0-36 0-53-1-12-1-20-2-23-4s-5-7-5-15c0-27 0-51-1-74v-73c1-42 2-83 3-124s2-82 3-124v-22c0-9 6-13 19-13h28c9-1 19 0 29 0 13 1 25 1 38 1 95 2 169 0 260 0h137c10 1 16 3 19 5s5 7 5 14c2 34 3 68 3 101 0 18 0 36-1 54 0 18-1 36-2 55v57c0 15 1 32 1 50v45z"/><path class="fil18" d="M5194 3283v21c0 2 0 3-1 4h-48c-36 0-55 1-92 0-2 0-4 0-7-1h-19c-6 1-13 1-19 0-4 0-7-1-8-1-1-1-2-3-2-6v-53c0-15 0-30 1-45 0-14 0-29 1-44v-8c0-3 2-5 7-5h34c34 1 61 0 94 0h49c4 1 6 1 7 2s2 3 2 5c1 13 1 25 1 37v19c0 7-1 13-1 20v39c1 6 1 11 1 16zm-1 182v21c0 2 0 3-1 4-1 0-3 1-6 0h-42c-36 0-55 1-92 0h-7c-6-1-12-1-19 0-6 0-12 0-19-1-4 0-7 0-8-1s-2-3-2-6v-53c0-15 0-30 1-44 0-15 1-30 1-45v-8c0-3 2-5 7-5h20c5 0 10 0 14 1 34 0 61-1 94-1h44c2 0 4 1 5 1 4 0 6 1 7 1 1 1 2 3 2 6 1 12 1 24 1 36v19c0 7 0 13-1 20v39c1 6 1 11 1 16zm215-180v21c0 2 0 3-1 3-1 1-3 1-6 1h-41c-37 0-56 1-93 0-2 0-4 0-6-1h-39c-4 0-7-1-8-2-1 0-2-2-2-5v-53c0-15 0-30 1-45 0-15 1-29 1-44v-8c0-4 2-5 7-5h34c34 1 61 0 94 0h50c3 1 5 1 6 2s2 3 2 5c1 12 1 24 1 36v20c0 7 0 13-1 20v20c0 6 0 12 1 18v17zm1 182v11c0 2 1 6 1 10 0 2-1 3-2 4-1 0-3 1-6 0h-41c-37 0-56 1-92 0h-7c-7-1-13-1-20-1-6 1-12 1-19 0-4 0-7-1-8-1-1-1-2-3-2-6v-53c0-15 1-30 1-44 0-15 1-30 1-45v-8c0-3 2-5 7-5h34c35 1 61 0 94 0h44c3 0 4 0 6 1 3 0 5 0 7 1 1 1 1 3 1 5 1 13 2 25 2 37 0 6-1 13-1 19 0 7 0 13-1 20v21c0 5 1 11 1 18v16z"/><path fill="url(#id3)" d="M5217 2207L3844 3331l196 165 1168-955 1224 949 214-165z"/><path class="fil4" d="M5707 2138l60 98 56-98-55-124z"/><path class="fil5" d="M5827 2307l39 64 36-64-36-80z"/><path class="fil6" d="M5854 2110l84 138 79-138-78-174z"/><path class="fil4" d="M4938 1234l232 384 219-384-215-483z"/><path class="fil5" d="M5394 760l107 176 101-176-99-223z"/><path class="fil6" d="M4562 511l232 384 220-384-216-483zm1778 1121l203 335 192-335-189-423z"/></g></g></svg>