<?xml version="1.0" encoding="UTF-8"?>
<!DOCTYPE svg PUBLIC "-//W3C//DTD SVG 1.1//EN" "http://www.w3.org/Graphics/SVG/1.1/DTD/svg11.dtd">
<!-- Creator: CorelDRAW X7 -->
<svg xmlns="http://www.w3.org/2000/svg" xml:space="preserve" width="103.081mm" height="59.0283mm" version="1.1" style="shape-rendering:geometricPrecision; text-rendering:geometricPrecision; image-rendering:optimizeQuality; fill-rule:evenodd; clip-rule:evenodd"
viewBox="0 0 6735 3857"
 xmlns:xlink="http://www.w3.org/1999/xlink">
 <defs>
  <style type="text/css">
   <![CDATA[
    .str1 {stroke:#898989;stroke-width:13.0671}
    .str0 {stroke:#898989;stroke-width:4.97857}
    .str6 {stroke:#898989;stroke-width:4.97857}
    .str7 {stroke:#898989;stroke-width:4.97857}
    .str5 {stroke:#2870B7;stroke-width:4.97857}
    .str4 {stroke:#2A54A3;stroke-width:4.97857}
    .str3 {stroke:#2B4C9E;stroke-width:4.97857}
    .str2 {stroke:#2B4C9E;stroke-width:4.97857}
    .fil15 {fill:none;fill-rule:nonzero}
    .fil10 {fill:#C5C6C6}
    .fil3 {fill:#055CA7}
    .fil18 {fill:#FEFEFE;fill-rule:nonzero}
    .fil7 {fill:#EBECEC;fill-rule:nonzero}
    .fil0 {fill:#EBECEC;fill-rule:nonzero}
    .fil8 {fill:#C5C6C6;fill-rule:nonzero}
    .fil1 {fill:#C5C6C6;fill-rule:nonzero}
    .fil2 {fill:#9D9E9E;fill-rule:nonzero}
    .fil23 {fill:#898989;fill-rule:nonzero}
    .fil12 {fill:#727271;fill-rule:nonzero}
    .fil11 {fill:#5B5B5B;fill-rule:nonzero}
    .fil5 {fill:#2694CF;fill-rule:nonzero}
    .fil21 {fill:#2784C5;fill-rule:nonzero}
    .fil6 {fill:#2870B7;fill-rule:nonzero}
    .fil17 {fill:#2A54A3;fill-rule:nonzero}
    .fil16 {fill:#2A54A3;fill-rule:nonzero}
    .fil4 {fill:#2B4C9E;fill-rule:nonzero}
    .fil14 {fill:#2B4C9E;fill-rule:nonzero}
    .fil9 {fill:url(#id0)}
    .fil22 {fill:url(#id1)}
    .fil19 {fill:url(#id2)}
    .fil24 {fill:url(#id3)}
    .fil13 {fill:url(#id4)}
    .fil20 {fill:url(#id5)}
   ]]>
  </style>
  <linearGradient id="id0" gradientUnits="userSpaceOnUse" x1="5096.77" y1="1835.38" x2="5285.45" y2="1835.38">
   <stop offset="0" style="stop-opacity:1; stop-color:#2B3F95"/>
   <stop offset="1" style="stop-opacity:1; stop-color:#24AADF"/>
  </linearGradient>
  <linearGradient id="id1" gradientUnits="userSpaceOnUse" xlink:href="#id0" x1="5724.61" y1="2608.89" x2="6095.76" y2="2608.89">
  </linearGradient>
  <linearGradient id="id2" gradientUnits="userSpaceOnUse" xlink:href="#id0" x1="4221.06" y1="2615.56" x2="4477.6" y2="2615.56">
  </linearGradient>
  <linearGradient id="id3" gradientUnits="userSpaceOnUse" xlink:href="#id0" x1="3844.28" y1="2851.98" x2="6646.4" y2="2851.98">
  </linearGradient>
  <linearGradient id="id4" gradientUnits="userSpaceOnUse" xlink:href="#id0" x1="4201.19" y1="1958.75" x2="5579.68" y2="1958.75">
  </linearGradient>
  <linearGradient id="id5" gradientUnits="userSpaceOnUse" xlink:href="#id0" x1="3085.42" y1="2733.78" x2="4730.06" y2="2733.78">
  </linearGradient>
 </defs>
 <g id="Слой_x0020_1">
  <metadata id="CorelCorpID_0Corel-Layer"/>
  <g id="_851198486640">
   <path class="fil0" d="M2792 3128c4,-6 9,-11 14,-16 -1,-1 -1,-3 -2,-4 -5,6 -9,12 -14,18 1,1 1,1 2,2zm-1158 136c-14,7 -29,12 -43,18 1,1 3,2 4,3 13,-7 26,-14 39,-21zm-409 42c-2,-2 -4,-3 -5,-5 -7,4 -13,9 -19,13 8,-3 16,-6 24,-8zm435 -416c2,1 3,2 5,3 5,-9 11,-18 16,-27 -7,8 -14,16 -21,24zm1579 -370c-67,369 -368,693 -674,913 -3,2 -7,4 -10,5 -6,18 -21,32 -46,32 -104,2 -206,-18 -309,-31 -110,-12 -219,-25 -330,-34 -219,-17 -441,-18 -655,34 -218,54 -404,158 -603,253 -65,30 -128,64 -194,89 -46,18 -93,43 -144,34 -8,-1 -13,-5 -16,-10 -42,-5 -53,-73 -3,-89 16,-6 33,-12 49,-18 72,-53 146,-103 213,-163 76,-66 148,-136 224,-202 20,-17 57,-12 63,16 5,21 11,42 15,64 121,-29 232,-93 332,-162 117,-81 225,-173 324,-273 214,-218 385,-450 496,-730 15,-38 76,-34 77,10 3,183 -132,367 -223,521 -75,127 -153,272 -257,389 58,-17 117,-35 174,-56 33,-17 65,-36 95,-54 95,-58 181,-124 270,-190 32,-23 73,5 56,41 -10,20 -21,38 -32,57 0,7 -3,14 -10,19 -2,2 -5,4 -7,6 -85,118 -212,209 -344,287 167,-32 337,-111 431,-230 30,-38 90,-6 68,38 -35,68 -79,134 -136,188 80,-12 158,-46 227,-82 97,-49 190,-107 282,-164 217,-134 420,-308 525,-536 19,-42 79,-10 72,28z"/>
   <g>
    <path class="fil1" d="M5043 1344c1,-52 12,-108 36,-167 -184,-45 -196,-218 -200,-377 -47,72 -92,144 -129,222 -49,105 -93,214 -158,312 -160,236 -328,469 -517,686 -187,216 -388,420 -617,597 -211,162 -460,279 -659,456 -23,20 -51,-10 -33,-32 103,-123 205,-289 224,-452 -137,198 -277,404 -477,549 -192,138 -431,265 -677,283 -24,2 -27,-28 -11,-39 97,-64 169,-160 227,-260 -187,164 -434,310 -689,281 -20,-3 -35,-31 -11,-41 182,-78 342,-196 484,-329 71,-66 139,-136 204,-208 17,-19 171,-188 169,-192 -84,-107 -191,-227 -318,-290 -24,-12 -81,-41 -106,-14 -23,23 -29,58 -36,88 -8,38 -17,76 -35,110 -72,223 -269,397 -431,564 -188,194 -428,356 -685,460 -15,7 -30,-4 -27,-20 8,-49 19,-133 -56,-86 -45,28 -84,63 -122,99 -114,107 -238,203 -352,310 -10,9 -23,-5 -15,-14 4,-5 9,-10 13,-15 0,0 -1,0 -1,0 -4,3 -7,6 -11,9 -7,5 -16,2 -17,-7 -6,-48 41,-108 67,-146 36,-56 75,-109 115,-162 68,-89 131,-179 192,-272 48,-72 102,-158 189,-193 71,-29 140,4 192,51 83,-51 150,-124 212,-196 73,-84 139,-173 202,-264 65,-94 121,-187 164,-292 40,-100 75,-203 128,-297 28,-48 75,-150 150,-123 42,14 76,58 111,83 55,38 109,76 165,112 171,113 391,235 469,429 378,-196 541,-567 731,-911 31,-55 68,-124 129,-153 54,-24 99,19 119,63 27,60 28,126 20,191 127,66 264,131 374,223 -33,-68 -81,-126 -130,-188 -33,-42 -61,-84 -88,-130 -10,-18 -38,-46 -32,-69 18,-65 97,-121 151,-158 118,-81 228,-169 339,-258 108,-86 225,-171 322,-268 95,-96 175,-203 259,-308 38,-47 75,-96 118,-140 18,-19 36,-38 63,-47 49,-16 94,61 118,99 89,-75 166,-158 246,-242 44,-46 94,-80 156,-42 39,24 66,71 91,107 34,49 68,99 102,149l230 301c169,178 835,597 971,798l-216 224 -281 1134 -797 -573 -318 -1015z"/>
    <g>
     <path class="fil0" d="M4730 1207c11,-16 22,-32 33,-48 0,0 0,0 0,0 -1,-1 -2,-3 -2,-4 -12,19 -23,38 -35,57 1,-2 3,-3 4,-5zm-670 924c-24,14 -49,47 -70,68 11,-11 22,-21 33,-32 13,-12 25,-24 37,-36zm-156 146c-40,35 -82,67 -125,100 2,0 5,0 7,1 40,-33 79,-66 118,-101zm1573 -1353c-30,98 -79,195 -162,264 -545,547 372,-178 46,185 -68,113 470,1692 -1971,1315 -25,-4 -21,-35 -1,-43 -1,-34 51,-68 75,-85 13,-9 27,-19 42,-28 98,-107 235,-185 344,-279 166,-144 296,-313 422,-488 128,-178 250,-360 369,-543 51,-80 99,-161 134,-248 13,-33 25,-67 44,-97 15,-25 33,-44 43,-73 9,-25 58,-32 63,0 17,113 67,276 199,311 171,47 232,-98 300,-213 16,-27 62,-8 53,22z"/>
     <path class="fil2" d="M5826 1229c-153,-73 -314,-131 -450,-232l0 0 0 0c-1,-1 -3,-2 -4,-3 -20,-16 6,-41 26,-32 1,1 3,1 4,2 4,-4 9,-5 15,-4 82,28 159,71 241,99 47,17 97,34 147,37 8,1 17,1 27,1 4,-9 4,-19 0,-29 -57,-44 -124,-81 -180,-114 -82,-46 -163,-93 -250,-130 -94,-40 -190,-78 -278,-128 -42,-24 -119,-62 -115,-118 0,-11 9,-20 22,-21 106,-2 206,47 312,36 -12,-115 -53,-234 -118,-332 -126,109 -230,237 -356,346 -10,9 -30,9 -37,-5 -28,-53 -46,-111 -85,-159 -102,84 -148,206 -227,306 -94,119 -201,229 -309,337 -193,192 -461,301 -628,519 41,51 73,108 102,167 7,16 -10,39 -29,27 -81,-52 -154,-163 -251,-193 -20,267 -119,518 -348,688 -16,12 -46,-4 -31,-23 82,-111 150,-236 199,-363 44,-115 97,-273 31,-389 -83,62 -117,178 -161,263 -68,128 -149,251 -234,369 -144,203 -317,416 -575,492 -11,3 -20,-8 -18,-16 -2,-5 -1,-10 4,-13 18,-16 35,-31 53,-47 -123,-130 -238,-284 -397,-376 -64,-37 -145,-57 -204,-100 -46,-34 -85,-91 -142,-110 -175,462 -428,975 -888,1240 -14,8 -30,-5 -27,-20 8,-29 29,-127 -34,-124 -49,2 -93,28 -124,63 -51,57 -83,124 -123,187 -111,171 -227,340 -354,501 0,0 0,0 -1,1 -2,3 -4,7 -7,11 -8,14 -30,1 -22,-13 1,-1 2,-3 3,-5 0,-3 0,-5 2,-8 4,-6 8,-11 12,-17 92,-157 201,-305 297,-460 101,-161 188,-331 307,-482 6,-8 17,-10 25,-3 43,34 82,71 116,113 15,-39 49,-75 75,-107 39,-47 81,-92 116,-142 75,-105 141,-216 205,-326 65,-113 131,-228 186,-346 35,-75 55,-183 121,-242 1,0 2,-1 2,-1 4,-6 11,-8 18,-4 66,45 132,88 208,118 6,2 10,10 10,16 -3,54 103,90 145,109 52,23 108,43 155,75 72,50 133,124 192,187 65,67 128,136 192,205 156,-153 289,-329 414,-505 162,-228 288,-477 453,-703 7,-10 20,-14 31,-8 86,51 162,120 223,199 57,-48 122,-84 185,-125 68,-45 133,-96 194,-149 113,-99 222,-203 328,-308 111,-109 219,-222 317,-341 80,-98 142,-219 241,-302 12,-9 26,-7 35,5 29,37 59,74 88,111 138,-93 211,-247 312,-371 10,-12 29,-14 39,0 302,440 1076,1109 1390,1542 -175,-140 -608,-227 -813,-323z"/>
    </g>
   </g>
   <line class="fil3" x1="5623" y1="1230" x2="5623" y2= "1230" />
   <line class="fil3" x1="5255" y1="879" x2="5255" y2= "879" />
   <path class="fil1" d="M570 3106c-1,-2 -2,-3 -2,-5 -14,11 -28,21 -43,30 15,-8 30,-17 45,-25z"/>
   <path class="fil1" d="M5422 1398c-20,-13 -38,-26 -55,-38 -8,-6 -16,-13 -23,-19 20,23 46,43 78,57z"/>
   <path class="fil1" d="M6076 1037c-9,-11 -18,-22 -27,-33 8,12 16,23 23,34 2,0 3,-1 4,-1z"/>
   <path class="fil1" d="M6339 1363c13,19 25,39 36,58 2,0 4,1 6,1 -14,-19 -28,-39 -42,-59z"/>
   <path class="fil2" d="M5941 883c-8,-19 -18,-38 -27,-57 1,2 0,4 0,6 9,17 18,34 27,51z"/>
   <polygon class="fil4" points="2250,3293 2407,3552 2556,3293 2410,2966 "/>
   <polygon class="fil4" points="3968,2229 4077,2409 4180,2229 4079,2002 "/>
   <polygon class="fil5" points="2592,2913 2664,3033 2733,2913 2665,2763 "/>
   <polygon class="fil5" points="4206,1965 4256,2048 4303,1965 4257,1861 "/>
   <polygon class="fil6" points="2030,2746 2186,3005 2335,2746 2189,2419 "/>
   <polygon class="fil6" points="3815,1849 3924,2029 4027,1849 3926,1622 "/>
   <path class="fil1" d="M5340 1611c-1,-3 -3,-6 -5,-9 0,0 0,0 0,0 1,3 1,6 0,9 2,0 4,0 5,0z"/>
   <polygon class="fil7" points="5124,1749 5070,1809 5070,1702 5124,1702 "/>
   <path class="fil8 str0" d="M4587 2342c-11,15 -22,29 -32,44 11,-14 22,-29 32,-44z"/>
   <polygon class="fil9" points="5098,1793 5097,1732 5284,1732 5285,1939 "/>
   <polygon class="fil10 str0" points="5318,2414 5319,2178 4838,1802 4402,2173 4404,2412 "/>
   <rect class="fil10 str1" x="4422" y="2170" width="929.674" height="64.7821"/>
   <rect class="fil10 str1" x="4422" y="2105" width="929.674" height="64.7821"/>
   <rect class="fil10 str1" x="4422" y="2040" width="929.674" height="64.7821"/>
   <polygon class="fil10 str0" points="4491,1975 5220,1975 5220,2040 4491,2040 "/>
   <polygon class="fil11 str0" points="4539,1973 5218,1973 5220,1973 5220,1975 5220,2040 5220,2042 5218,2042 4539,2042 4539,2038 5217,2038 5217,1978 4539,1978 "/>
   <polygon class="fil10 str0" points="4558,1911 5173,1911 5173,1975 4558,1975 "/>
   <polygon class="fil12 str0" points="4558,1908 5159,1908 5161,1908 5161,1911 5161,1975 5161,1978 5159,1978 4558,1978 4558,1973 5157,1973 5157,1913 4558,1913 "/>
   <polygon class="fil10 str0" points="4671,1846 5083,1846 5083,1911 4671,1911 "/>
   <polygon class="fil10 str0" points="5029,1805 5029,1844 4706,1844 4706,1805 "/>
   <rect class="fil10 str1" x="4422" y="2234" width="929.674" height="64.7821"/>
   <rect class="fil10 str1" x="4422" y="2299" width="929.674" height="64.7821"/>
   <polygon class="fil13" points="4877,1642 4201,2195 4298,2276 4872,1806 5474,2273 5580,2192 "/>
   <path class="fil14" d="M4479 2207c0,4 -1,9 -3,14 -1,6 -4,11 -7,16 -4,5 -8,9 -12,12 -5,3 -10,5 -16,8 -1,0 -3,1 -5,1 -2,0 -4,1 -6,1 -1,0 -3,0 -5,0 -2,0 -4,0 -5,-1 -2,0 -4,-1 -7,-2 -3,-1 -6,-3 -9,-4 -3,-2 -6,-4 -10,-7 -3,-2 -6,-5 -8,-8 -2,-2 -4,-5 -5,-9 -1,-3 -2,-6 -2,-10 -1,-5 0,-10 0,-16 1,-5 3,-10 5,-15 1,-2 3,-5 5,-8 2,-3 4,-5 7,-8 3,-3 7,-5 11,-7 5,-2 10,-4 15,-5 3,-1 7,-1 10,-1 4,0 8,0 11,1 3,1 6,2 9,4 3,1 5,3 8,5 2,1 4,3 6,5 2,2 4,3 5,5 3,4 5,8 6,13 2,4 2,10 2,16zm-52 25c3,0 5,0 7,0 2,-1 4,-1 6,-2 6,-4 9,-8 11,-12 3,-5 3,-10 2,-16 -1,-3 -2,-6 -3,-8 -2,-2 -4,-4 -6,-6 -2,-2 -5,-3 -7,-4 -3,-1 -6,-1 -9,0 -3,0 -5,1 -8,2 -3,0 -5,2 -7,4 -3,4 -6,9 -7,14 -2,5 -2,10 0,16 0,1 1,2 1,3 1,1 2,2 3,2 2,2 5,4 8,5 3,2 6,2 9,2z"/>
   <path id="1" class="fil15 str2" d="M4479 2207c0,4 -1,9 -3,14 -1,6 -4,11 -7,16 -4,5 -8,9 -12,12 -5,3 -10,5 -16,8 -1,0 -3,1 -5,1 -2,0 -4,1 -6,1 -1,0 -3,0 -5,0 -2,0 -4,0 -5,-1 -2,0 -4,-1 -7,-2 -3,-1 -6,-3 -9,-4 -3,-2 -6,-4 -10,-7 -3,-2 -6,-5 -8,-8 -2,-2 -4,-5 -5,-9 -1,-3 -2,-6 -2,-10 -1,-5 0,-10 0,-16 1,-5 3,-10 5,-15 1,-2 3,-5 5,-8 2,-3 4,-5 7,-8 3,-3 7,-5 11,-7 5,-2 10,-4 15,-5 3,-1 7,-1 10,-1 4,0 8,0 11,1 3,1 6,2 9,4 3,1 5,3 8,5 2,1 4,3 6,5 2,2 4,3 5,5 3,4 5,8 6,13 2,4 2,10 2,16zm-52 25c3,0 5,0 7,0 2,-1 4,-1 6,-2 6,-4 9,-8 11,-12 3,-5 3,-10 2,-16 -1,-3 -2,-6 -3,-8 -2,-2 -4,-4 -6,-6 -2,-2 -5,-3 -7,-4 -3,-1 -6,-1 -9,0 -3,0 -5,1 -8,2 -3,0 -5,2 -7,4 -3,4 -6,9 -7,14 -2,5 -2,10 0,16 0,1 1,2 1,3 1,1 2,2 3,2 2,2 5,4 8,5 3,2 6,2 9,2z"/>
   <path class="fil14" d="M4479 2294c0,5 -1,9 -3,15 -1,5 -4,10 -7,15 -4,5 -8,9 -12,12 -5,3 -10,6 -16,8 -1,0 -3,1 -5,1 -2,1 -4,1 -6,1 -1,0 -3,0 -5,0 -2,0 -4,0 -5,-1 -2,0 -4,-1 -7,-2 -3,-1 -6,-3 -9,-4 -3,-2 -6,-4 -10,-7 -3,-2 -6,-5 -8,-8 -2,-2 -4,-5 -5,-8 -1,-4 -2,-7 -2,-11 -1,-5 0,-10 0,-15 1,-6 3,-11 5,-16 1,-2 3,-5 5,-8 2,-3 4,-5 7,-8 3,-2 7,-5 11,-7 5,-2 10,-4 15,-5 3,-1 7,-1 10,-1 4,0 8,1 11,2 3,0 6,1 9,3 3,1 5,3 8,5 2,2 4,3 6,5 2,2 4,4 5,5 3,4 5,8 6,13 2,4 2,10 2,16zm-52 25c3,0 5,0 7,0 2,0 4,-1 6,-2 6,-3 9,-7 11,-12 3,-5 3,-10 2,-16 -1,-3 -2,-5 -3,-8 -2,-2 -4,-4 -6,-6 -2,-2 -5,-3 -7,-4 -3,0 -6,-1 -9,0 -3,0 -5,1 -8,2 -3,1 -5,2 -7,4 -3,5 -6,9 -7,14 -2,5 -2,10 0,16 0,1 1,2 1,3 1,1 2,2 3,2 2,3 5,4 8,6 3,1 6,1 9,1z"/>
   <path id="1" class="fil15 str2" d="M4479 2294c0,5 -1,9 -3,15 -1,5 -4,10 -7,15 -4,5 -8,9 -12,12 -5,3 -10,6 -16,8 -1,0 -3,1 -5,1 -2,1 -4,1 -6,1 -1,0 -3,0 -5,0 -2,0 -4,0 -5,-1 -2,0 -4,-1 -7,-2 -3,-1 -6,-3 -9,-4 -3,-2 -6,-4 -10,-7 -3,-2 -6,-5 -8,-8 -2,-2 -4,-5 -5,-8 -1,-4 -2,-7 -2,-11 -1,-5 0,-10 0,-15 1,-6 3,-11 5,-16 1,-2 3,-5 5,-8 2,-3 4,-5 7,-8 3,-2 7,-5 11,-7 5,-2 10,-4 15,-5 3,-1 7,-1 10,-1 4,0 8,1 11,2 3,0 6,1 9,3 3,1 5,3 8,5 2,2 4,3 6,5 2,2 4,4 5,5 3,4 5,8 6,13 2,4 2,10 2,16zm-52 25c3,0 5,0 7,0 2,0 4,-1 6,-2 6,-3 9,-7 11,-12 3,-5 3,-10 2,-16 -1,-3 -2,-5 -3,-8 -2,-2 -4,-4 -6,-6 -2,-2 -5,-3 -7,-4 -3,0 -6,-1 -9,0 -3,0 -5,1 -8,2 -3,1 -5,2 -7,4 -3,5 -6,9 -7,14 -2,5 -2,10 0,16 0,1 1,2 1,3 1,1 2,2 3,2 2,3 5,4 8,6 3,1 6,1 9,1z"/>
   <path class="fil4 str3" d="M4427 2232c3,0 5,0 8,0 2,0 4,-1 6,-2 5,-3 8,-7 11,-12 2,-5 2,-10 1,-16 0,-3 -1,-5 -3,-8 -1,-2 -3,-4 -6,-6 -2,-1 -4,-3 -7,-3 -3,-1 -6,-1 -8,-1 -3,0 -6,1 -9,2 -2,1 -5,2 -6,5 -4,4 -7,8 -8,13 -1,5 -1,10 0,16 0,1 1,2 2,3 0,1 1,2 2,3 3,2 5,3 8,5 3,1 6,2 9,1z"/>
   <path class="fil5 str3" d="M4427 2232c3,0 5,0 8,0 2,0 4,-1 6,-2 5,-3 8,-7 11,-12 2,-5 2,-10 1,-16 0,-3 -1,-5 -3,-8 -1,-2 -3,-4 -6,-6 -2,-1 -4,-3 -7,-3 -3,-1 -6,-1 -8,-1 -3,0 -6,1 -9,2 -2,1 -5,2 -6,5 -4,4 -7,8 -8,13 -1,5 -1,10 0,16 0,1 1,2 2,3 0,1 1,2 2,3 3,2 5,3 8,5 3,1 6,2 9,1z"/>
   <path class="fil5 str3" d="M4427 2320c3,0 5,0 7,-1 2,0 4,-1 6,-2 5,-3 9,-7 11,-12 2,-4 3,-9 2,-15 -1,-3 -2,-6 -3,-8 -2,-3 -4,-5 -6,-6 -2,-2 -5,-3 -7,-4 -3,-1 -6,-1 -9,-1 -3,1 -6,1 -8,2 -3,1 -5,3 -7,5 -4,4 -6,9 -8,14 -1,4 -1,10 1,15 0,1 0,2 1,3 1,1 2,2 2,3 3,2 6,4 9,5 3,1 6,2 9,2z"/>
   <path class="fil14" d="M4478 2384c0,4 -1,9 -3,14 -2,5 -4,10 -7,15 -4,5 -8,9 -13,13 -4,3 -10,5 -15,7 -2,1 -3,1 -5,2 -2,0 -4,0 -6,1 -2,0 -4,0 -5,0 -2,0 -4,-1 -5,-1 -2,0 -5,-1 -7,-2 -3,-2 -6,-3 -9,-5 -3,-1 -7,-3 -10,-6 -3,-2 -6,-5 -8,-8 -3,-3 -4,-6 -6,-9 -1,-3 -1,-6 -2,-10 0,-5 0,-11 1,-16 1,-5 2,-10 5,-15 1,-3 2,-5 4,-8 2,-3 5,-6 8,-8 3,-3 7,-5 11,-7 4,-3 9,-4 15,-6 3,0 6,-1 10,0 4,0 7,0 11,1 3,1 6,2 8,3 3,2 6,4 8,5 3,2 5,4 7,6 2,2 3,3 4,5 4,4 6,8 7,12 1,5 2,10 2,17zm-52 25c2,0 5,0 7,0 2,-1 4,-2 6,-3 5,-3 9,-7 11,-11 2,-5 3,-10 2,-16 -1,-3 -2,-6 -3,-8 -2,-2 -4,-5 -6,-6 -2,-2 -5,-3 -8,-4 -2,-1 -5,-1 -8,-1 -3,1 -6,2 -8,2 -3,1 -5,3 -7,5 -4,4 -6,9 -8,14 -1,5 -1,10 1,16 0,1 0,2 1,3 1,0 2,1 2,2 3,2 6,4 9,5 3,2 6,2 9,2z"/>
   <path id="1" class="fil15 str2" d="M4478 2384c0,4 -1,9 -3,14 -2,5 -4,10 -7,15 -4,5 -8,9 -13,13 -4,3 -10,5 -15,7 -2,1 -3,1 -5,2 -2,0 -4,0 -6,1 -2,0 -4,0 -5,0 -2,0 -4,-1 -5,-1 -2,0 -5,-1 -7,-2 -3,-2 -6,-3 -9,-5 -3,-1 -7,-3 -10,-6 -3,-2 -6,-5 -8,-8 -3,-3 -4,-6 -6,-9 -1,-3 -1,-6 -2,-10 0,-5 0,-11 1,-16 1,-5 2,-10 5,-15 1,-3 2,-5 4,-8 2,-3 5,-6 8,-8 3,-3 7,-5 11,-7 4,-3 9,-4 15,-6 3,0 6,-1 10,0 4,0 7,0 11,1 3,1 6,2 8,3 3,2 6,4 8,5 3,2 5,4 7,6 2,2 3,3 4,5 4,4 6,8 7,12 1,5 2,10 2,17zm-52 25c2,0 5,0 7,0 2,-1 4,-2 6,-3 5,-3 9,-7 11,-11 2,-5 3,-10 2,-16 -1,-3 -2,-6 -3,-8 -2,-2 -4,-5 -6,-6 -2,-2 -5,-3 -8,-4 -2,-1 -5,-1 -8,-1 -3,1 -6,2 -8,2 -3,1 -5,3 -7,5 -4,4 -6,9 -8,14 -1,5 -1,10 1,16 0,1 0,2 1,3 1,0 2,1 2,2 3,2 6,4 9,5 3,2 6,2 9,2z"/>
   <path class="fil5 str3" d="M4426 2409c2,1 5,0 7,0 2,0 4,-1 6,-2 5,-3 9,-7 11,-12 2,-5 3,-10 2,-16 -1,-3 -2,-5 -3,-8 -2,-2 -4,-4 -6,-6 -2,-1 -5,-3 -8,-3 -2,-1 -5,-1 -8,-1 -3,0 -6,1 -8,2 -3,1 -5,2 -7,5 -4,4 -6,8 -8,13 -1,5 -1,10 0,16 1,1 1,2 2,3 1,1 1,2 2,3 3,2 6,3 9,5 3,1 6,2 9,1z"/>
   <path class="fil16" d="M5382 2186c-1,5 -2,10 -3,15 -2,5 -5,10 -8,15 -4,5 -8,9 -12,12 -5,3 -10,6 -16,8 -1,1 -3,1 -5,1 -2,1 -4,1 -5,1 -2,0 -4,0 -6,0 -2,0 -4,0 -5,0 -2,-1 -4,-2 -7,-3 -3,-1 -6,-2 -9,-4 -3,-2 -6,-4 -9,-6 -4,-3 -7,-5 -9,-8 -2,-3 -4,-6 -5,-9 -1,-3 -2,-7 -2,-10 -1,-6 0,-11 0,-16 1,-5 3,-10 5,-15 1,-3 3,-6 5,-8 2,-3 4,-6 7,-9 3,-2 7,-4 11,-7 5,-2 10,-4 16,-5 2,-1 6,-1 9,-1 4,0 8,1 11,2 3,1 6,2 9,3 3,2 5,3 8,5 2,2 4,4 6,6 2,1 4,3 5,4 3,4 5,9 6,13 2,5 2,10 3,16zm-53 26c3,0 5,0 7,-1 2,0 5,-1 7,-2 5,-3 8,-7 10,-12 3,-4 3,-10 2,-16 0,-2 -1,-5 -3,-7 -2,-3 -3,-5 -6,-7 -2,-1 -5,-2 -7,-3 -3,-1 -6,-1 -9,-1 -3,1 -5,1 -8,2 -3,1 -5,2 -7,5 -3,4 -6,8 -7,13 -2,5 -2,11 0,16 0,1 1,2 1,3 1,1 2,2 3,3 2,2 5,4 8,5 3,1 6,2 9,2z"/>
   <path id="1" class="fil15 str4" d="M5382 2186c-1,5 -2,10 -3,15 -2,5 -5,10 -8,15 -4,5 -8,9 -12,12 -5,3 -10,6 -16,8 -1,1 -3,1 -5,1 -2,1 -4,1 -5,1 -2,0 -4,0 -6,0 -2,0 -4,0 -5,0 -2,-1 -4,-2 -7,-3 -3,-1 -6,-2 -9,-4 -3,-2 -6,-4 -9,-6 -4,-3 -7,-5 -9,-8 -2,-3 -4,-6 -5,-9 -1,-3 -2,-7 -2,-10 -1,-6 0,-11 0,-16 1,-5 3,-10 5,-15 1,-3 3,-6 5,-8 2,-3 4,-6 7,-9 3,-2 7,-4 11,-7 5,-2 10,-4 16,-5 2,-1 6,-1 9,-1 4,0 8,1 11,2 3,1 6,2 9,3 3,2 5,3 8,5 2,2 4,4 6,6 2,1 4,3 5,4 3,4 5,9 6,13 2,5 2,10 3,16zm-53 26c3,0 5,0 7,-1 2,0 5,-1 7,-2 5,-3 8,-7 10,-12 3,-4 3,-10 2,-16 0,-2 -1,-5 -3,-7 -2,-3 -3,-5 -6,-7 -2,-1 -5,-2 -7,-3 -3,-1 -6,-1 -9,-1 -3,1 -5,1 -8,2 -3,1 -5,2 -7,5 -3,4 -6,8 -7,13 -2,5 -2,11 0,16 0,1 1,2 1,3 1,1 2,2 3,3 2,2 5,4 8,5 3,1 6,2 9,2z"/>
   <path class="fil16" d="M5382 2274c-1,4 -2,9 -3,14 -2,5 -5,10 -8,15 -4,5 -8,9 -12,12 -5,3 -10,6 -16,8 -1,1 -3,1 -5,2 -2,0 -4,0 -5,0 -2,1 -4,1 -6,1 -2,-1 -4,-1 -5,-1 -2,-1 -4,-1 -7,-3 -3,-1 -6,-2 -9,-4 -3,-2 -6,-4 -9,-6 -4,-2 -7,-5 -9,-8 -2,-3 -4,-6 -5,-9 -1,-3 -2,-7 -2,-10 -1,-5 0,-11 0,-16 1,-5 3,-10 5,-15 1,-3 3,-5 5,-8 2,-3 4,-6 7,-8 3,-3 7,-5 11,-7 5,-3 10,-4 16,-6 2,0 6,-1 9,-1 4,0 8,1 11,2 3,1 6,2 9,3 3,2 5,3 8,5 2,2 4,4 6,6 2,2 4,3 5,5 3,3 5,8 6,12 2,5 2,10 3,17zm-53 25c3,0 5,0 7,-1 2,0 5,-1 7,-2 5,-3 8,-7 10,-12 3,-4 3,-10 2,-15 0,-3 -1,-6 -3,-8 -2,-3 -3,-5 -6,-6 -2,-2 -5,-3 -7,-4 -3,-1 -6,-1 -9,-1 -3,1 -5,1 -8,2 -3,1 -5,3 -7,5 -3,4 -6,9 -7,13 -2,5 -2,11 0,16 0,1 1,2 1,3 1,1 2,2 3,3 2,2 5,4 8,5 3,1 6,2 9,2z"/>
   <path id="1" class="fil15 str4" d="M5382 2274c-1,4 -2,9 -3,14 -2,5 -5,10 -8,15 -4,5 -8,9 -12,12 -5,3 -10,6 -16,8 -1,1 -3,1 -5,2 -2,0 -4,0 -5,0 -2,1 -4,1 -6,1 -2,-1 -4,-1 -5,-1 -2,-1 -4,-1 -7,-3 -3,-1 -6,-2 -9,-4 -3,-2 -6,-4 -9,-6 -4,-2 -7,-5 -9,-8 -2,-3 -4,-6 -5,-9 -1,-3 -2,-7 -2,-10 -1,-5 0,-11 0,-16 1,-5 3,-10 5,-15 1,-3 3,-5 5,-8 2,-3 4,-6 7,-8 3,-3 7,-5 11,-7 5,-3 10,-4 16,-6 2,0 6,-1 9,-1 4,0 8,1 11,2 3,1 6,2 9,3 3,2 5,3 8,5 2,2 4,4 6,6 2,2 4,3 5,5 3,3 5,8 6,12 2,5 2,10 3,17zm-53 25c3,0 5,0 7,-1 2,0 5,-1 7,-2 5,-3 8,-7 10,-12 3,-4 3,-10 2,-15 0,-3 -1,-6 -3,-8 -2,-3 -3,-5 -6,-6 -2,-2 -5,-3 -7,-4 -3,-1 -6,-1 -9,-1 -3,1 -5,1 -8,2 -3,1 -5,3 -7,5 -3,4 -6,9 -7,13 -2,5 -2,11 0,16 0,1 1,2 1,3 1,1 2,2 3,3 2,2 5,4 8,5 3,1 6,2 9,2z"/>
   <path class="fil8 str0" d="M5329 2212c3,0 6,0 8,-1 2,0 4,-1 6,-2 5,-3 9,-7 11,-11 2,-5 2,-10 1,-16 0,-3 -1,-6 -3,-8 -1,-2 -3,-5 -5,-6 -3,-2 -5,-3 -8,-4 -3,-1 -5,-1 -8,-1 -3,1 -6,1 -9,2 -2,1 -5,3 -6,5 -4,4 -7,9 -8,14 -1,5 -1,10 0,16 0,1 1,1 2,2 0,1 1,2 2,3 3,2 5,4 8,5 3,2 6,2 9,2z"/>
   <path class="fil5 str5" d="M5329 2299c3,0 5,0 7,0 2,0 4,-1 6,-2 5,-3 9,-7 11,-12 2,-5 3,-10 2,-16 -1,-3 -2,-5 -3,-8 -2,-2 -4,-4 -6,-6 -2,-2 -5,-3 -7,-4 -3,0 -6,-1 -9,0 -3,0 -5,1 -8,2 -3,1 -5,2 -7,4 -4,5 -6,9 -7,14 -2,5 -2,10 0,16 0,1 1,2 1,3 1,1 2,2 3,2 2,3 5,4 8,6 3,1 6,1 9,1z"/>
   <path class="fil5 str5" d="M5329 2212c3,0 6,0 8,-1 2,0 4,-1 6,-2 5,-3 9,-7 11,-11 2,-5 2,-10 1,-16 0,-3 -1,-6 -3,-8 -1,-2 -3,-5 -5,-6 -3,-2 -5,-3 -8,-4 -3,-1 -5,-1 -8,-1 -3,1 -6,1 -9,2 -2,1 -5,3 -6,5 -4,4 -7,9 -8,14 -1,5 -1,10 0,16 0,1 1,1 2,2 0,1 1,2 2,3 3,2 5,4 8,5 3,2 6,2 9,2z"/>
   <path class="fil16" d="M5380 2363c0,5 -1,10 -3,15 -1,5 -4,10 -7,15 -4,5 -8,9 -13,12 -4,3 -10,6 -15,8 -2,0 -3,1 -5,1 -2,1 -4,1 -6,1 -2,0 -3,0 -5,0 -2,0 -4,0 -5,-1 -2,0 -4,-1 -7,-2 -3,-1 -6,-2 -9,-4 -3,-2 -7,-4 -10,-6 -3,-3 -6,-5 -8,-8 -3,-3 -4,-6 -6,-9 -1,-4 -1,-7 -2,-10 0,-6 0,-11 1,-16 1,-5 2,-11 5,-15 1,-3 2,-6 4,-9 2,-2 5,-5 8,-8 3,-2 7,-5 11,-7 4,-2 9,-4 15,-5 3,-1 6,-1 10,-1 4,0 7,1 11,2 3,0 6,1 9,3 2,1 5,3 7,5 3,2 5,3 7,5 2,2 3,4 5,5 3,4 5,8 6,13 1,5 2,10 2,16zm-52 25c3,0 5,0 7,0 2,0 4,-1 6,-2 5,-3 9,-7 11,-12 2,-5 3,-10 2,-16 -1,-3 -2,-5 -3,-8 -2,-2 -4,-4 -6,-6 -2,-1 -5,-3 -8,-3 -2,-1 -5,-1 -8,-1 -3,0 -6,1 -8,2 -3,1 -5,2 -7,5 -4,4 -6,8 -8,13 -1,5 -1,10 1,16 0,1 0,2 1,3 1,1 2,2 2,3 3,2 6,3 9,5 3,1 6,2 9,1z"/>
   <path id="1" class="fil15 str4" d="M5380 2363c0,5 -1,10 -3,15 -1,5 -4,10 -7,15 -4,5 -8,9 -13,12 -4,3 -10,6 -15,8 -2,0 -3,1 -5,1 -2,1 -4,1 -6,1 -2,0 -3,0 -5,0 -2,0 -4,0 -5,-1 -2,0 -4,-1 -7,-2 -3,-1 -6,-2 -9,-4 -3,-2 -7,-4 -10,-6 -3,-3 -6,-5 -8,-8 -3,-3 -4,-6 -6,-9 -1,-4 -1,-7 -2,-10 0,-6 0,-11 1,-16 1,-5 2,-11 5,-15 1,-3 2,-6 4,-9 2,-2 5,-5 8,-8 3,-2 7,-5 11,-7 4,-2 9,-4 15,-5 3,-1 6,-1 10,-1 4,0 7,1 11,2 3,0 6,1 9,3 2,1 5,3 7,5 3,2 5,3 7,5 2,2 3,4 5,5 3,4 5,8 6,13 1,5 2,10 2,16zm-52 25c3,0 5,0 7,0 2,0 4,-1 6,-2 5,-3 9,-7 11,-12 2,-5 3,-10 2,-16 -1,-3 -2,-5 -3,-8 -2,-2 -4,-4 -6,-6 -2,-1 -5,-3 -8,-3 -2,-1 -5,-1 -8,-1 -3,0 -6,1 -8,2 -3,1 -5,2 -7,5 -4,4 -6,8 -8,13 -1,5 -1,10 1,16 0,1 0,2 1,3 1,1 2,2 2,3 3,2 6,3 9,5 3,1 6,2 9,1z"/>
   <path class="fil5 str5" d="M5328 2389c2,0 5,0 7,0 2,-1 4,-2 6,-3 5,-3 9,-7 11,-11 2,-5 3,-10 2,-16 -1,-3 -2,-6 -3,-8 -2,-2 -4,-5 -6,-6 -2,-2 -5,-3 -8,-4 -2,-1 -5,-1 -8,-1 -3,1 -6,1 -8,2 -3,1 -5,3 -7,5 -4,4 -6,9 -8,14 -1,5 -1,10 0,16 1,1 1,2 2,2 1,1 2,2 2,3 3,2 6,4 9,5 3,2 6,2 9,2z"/>
   <path class="fil17 str0" d="M5000 2262c1,6 1,11 1,15 0,3 0,8 0,14 0,2 -1,4 -2,5 -1,1 -4,1 -8,1 -10,0 -19,-1 -29,-1 -9,0 -18,0 -28,0 -49,0 -75,2 -125,0 -3,0 -6,0 -9,0 -9,-1 -18,-1 -26,0 -9,0 -18,0 -27,-1 -5,0 -9,-1 -11,-2 -1,-1 -2,-3 -2,-7 0,-13 0,-25 -1,-36 0,-12 0,-24 0,-36 1,-21 1,-41 2,-61 0,-21 1,-41 1,-61l0 -11c0,-4 3,-7 10,-7 4,0 9,0 13,0 5,0 10,0 15,0 6,1 12,1 18,1 47,1 83,0 128,0l60 0c3,0 6,0 8,0 4,1 8,1 9,2 1,1 2,4 3,7 1,17 1,33 1,50 0,9 0,18 0,27 -1,8 -1,17 -1,26 0,0 0,3 0,9 0,5 0,12 0,19 0,8 0,16 0,25 0,9 0,16 0,22z"/>
   <path class="fil18" d="M4865 2171c0,2 0,4 0,5 0,1 0,3 0,5 0,1 0,2 0,2 -1,0 -2,0 -4,0 -3,0 -6,0 -10,0 -3,0 -6,0 -10,0 -18,0 -27,1 -45,0 -1,0 -2,0 -3,0 -4,0 -7,0 -10,0 -3,0 -6,0 -9,0 -2,0 -4,-1 -4,-1 -1,0 -1,-1 -1,-3 0,-4 0,-9 0,-13 0,-4 0,-8 0,-13 0,-7 0,-15 0,-22 0,-7 0,-14 1,-22l0 -4c0,-1 1,-2 3,-2 2,0 3,0 5,0 2,0 3,0 5,0 2,0 5,0 7,0 17,0 30,0 46,0l22 0c1,0 2,0 2,0 2,0 3,1 4,1 0,0 1,1 1,3 0,5 0,11 0,17 0,4 0,7 0,10 0,3 0,6 0,10 0,0 0,1 0,3 0,2 0,4 0,7 0,3 0,6 0,9 0,3 0,5 0,8z"/>
   <path class="fil18" d="M4865 2260c0,3 0,4 0,6 0,1 0,3 0,5 0,1 0,1 -1,2 0,0 -1,0 -3,0 -3,0 -7,0 -10,0 -3,0 -7,0 -10,0 -18,0 -28,0 -45,0 -2,0 -3,0 -4,-1 -3,0 -6,0 -9,0 -3,1 -7,0 -10,0 -2,0 -3,0 -4,0 0,-1 -1,-2 -1,-3 0,-5 0,-9 0,-13 0,-4 0,-9 0,-13 0,-8 0,-15 1,-22 0,-8 0,-15 0,-22l0 -4c0,-2 1,-2 4,-2 1,0 3,-1 5,-1 1,0 3,0 5,1 2,0 4,0 6,0 17,0 30,0 47,0l21 0c1,0 2,0 3,0 2,0 3,0 3,1 1,0 1,1 1,2 1,6 1,12 1,18 0,3 0,6 0,10 0,3 -1,6 -1,9 0,0 0,1 0,3 0,2 0,5 0,7 0,3 0,6 0,9 0,3 1,6 1,8z"/>
   <path class="fil18" d="M4970 2172c0,2 1,4 1,5 0,1 0,3 0,5 0,1 -1,2 -1,2 -1,0 -2,0 -3,0 -4,0 -7,0 -10,0 -4,0 -7,0 -10,0 -18,0 -28,1 -46,0 -1,0 -2,0 -3,0 -3,0 -6,0 -10,0 -3,0 -6,0 -9,0 -2,-1 -3,-1 -4,-1 -1,-1 -1,-1 -1,-3 0,-5 0,-9 0,-13 0,-4 0,-8 0,-13 0,-7 0,-15 0,-22 1,-7 1,-15 1,-22l0 -4c0,-1 1,-2 3,-2 2,0 4,0 5,0 2,0 4,0 5,0 3,0 5,0 7,0 17,0 30,0 47,0l21 0c1,0 2,0 3,0 2,0 3,1 3,1 1,0 1,1 1,2 0,6 1,12 1,18 0,4 0,7 -1,10 0,3 0,6 0,10 0,0 0,1 0,3 0,2 0,4 0,7 0,3 0,5 0,9 0,3 0,5 0,8z"/>
   <path class="fil18" d="M4971 2261c0,2 0,4 0,5 0,2 0,3 0,6 0,1 0,1 -1,1 0,1 -1,1 -3,1 -3,0 -6,0 -10,0 -3,0 -6,0 -10,0 -18,0 -27,0 -45,0 -1,0 -2,-1 -4,-1 -3,0 -6,0 -9,0 -3,0 -6,0 -9,0 -2,0 -4,0 -4,-1 -1,0 -1,-1 -1,-2 0,-5 0,-9 0,-13 -1,-4 -1,-9 0,-13 0,-8 0,-15 0,-22 0,-8 0,-15 1,-22l0 -4c0,-2 1,-3 3,-3 2,0 3,0 5,0 2,0 3,0 5,0 2,1 5,1 7,1 17,0 30,0 46,0l22 0c1,0 2,0 2,0 2,0 3,0 4,1 0,0 1,1 1,2 0,6 0,12 0,18 0,3 0,6 0,10 0,3 0,6 0,9 0,0 0,1 0,3 0,2 0,5 0,7 0,3 0,6 0,9 0,3 0,6 0,8z"/>
   <path class="fil8 str0" d="M3546 3191c-13,18 -26,35 -38,53 13,-18 26,-35 38,-53z"/>
   <polygon class="fil19" points="4223,2558 4221,2474 4476,2476 4478,2757 "/>
   <polygon class="fil10 str0" points="4418,3284 4419,3002 3845,2553 3325,2995 3327,3281 "/>
   <rect class="fil10 str1" x="3349" y="2985" width="1109.17" height="77.2899"/>
   <rect class="fil10 str1" x="3349" y="2908" width="1109.17" height="77.2899"/>
   <rect class="fil10 str1" x="3349" y="2831" width="1109.17" height="77.2899"/>
   <polygon class="fil10 str0" points="3431,2754 4301,2754 4301,2831 3431,2831 "/>
   <polygon class="fil11 str0" points="3488,2751 4299,2751 4301,2751 4301,2754 4301,2831 4301,2834 4299,2834 3488,2834 3488,2828 4297,2828 4297,2756 3488,2756 "/>
   <polygon class="fil10 str0" points="3511,2676 4245,2676 4245,2754 3511,2754 "/>
   <polygon class="fil12 str0" points="3511,2673 4228,2673 4230,2673 4230,2676 4230,2754 4230,2756 4228,2756 3511,2756 3511,2751 4226,2751 4226,2679 3511,2679 "/>
   <polygon class="fil10 str0" points="3646,2599 4138,2599 4138,2676 3646,2676 "/>
   <polygon class="fil10 str0" points="4074,2550 4074,2597 3688,2597 3688,2550 "/>
   <rect class="fil10 str1" x="3349" y="3063" width="1109.17" height="77.2899"/>
   <rect class="fil10 str1" x="3349" y="3140" width="1109.17" height="77.2899"/>
   <polygon class="fil20" points="3891,2356 3085,3015 3201,3112 3886,2551 4604,3108 4730,3012 "/>
   <path class="fil14" d="M3417 3030c0,5 -1,11 -3,17 -2,6 -5,12 -9,18 -4,6 -9,11 -15,15 -6,3 -12,7 -18,9 -2,1 -4,1 -6,2 -3,0 -5,1 -7,1 -2,0 -4,0 -7,0 -2,0 -4,-1 -6,-1 -2,-1 -5,-1 -8,-3 -3,-1 -7,-3 -11,-5 -3,-2 -7,-4 -11,-7 -4,-3 -7,-6 -10,-10 -3,-3 -5,-7 -6,-10 -2,-4 -3,-8 -3,-13 0,-6 0,-12 1,-18 1,-7 3,-13 5,-19 2,-3 4,-6 6,-9 2,-4 5,-7 9,-10 4,-3 8,-6 13,-8 5,-3 11,-5 18,-7 4,-1 8,-1 12,-1 4,0 9,1 13,2 4,1 7,2 10,4 4,2 7,4 10,6 3,2 5,4 8,6 2,3 4,5 5,6 4,5 6,10 8,15 1,6 2,12 2,20zm-62 30c3,0 6,0 9,-1 2,0 5,-1 7,-2 6,-4 10,-9 13,-14 2,-6 3,-12 2,-19 -1,-3 -2,-7 -4,-9 -2,-3 -4,-6 -7,-8 -2,-2 -5,-3 -9,-4 -3,-1 -6,-1 -10,-1 -3,1 -6,1 -10,2 -3,1 -5,3 -8,6 -4,5 -7,10 -9,16 -1,6 -1,12 0,19 1,1 1,2 2,4 1,1 2,2 3,3 3,2 7,4 10,6 4,1 7,2 11,2z"/>
   <path id="1" class="fil15 str2" d="M3417 3030c0,5 -1,11 -3,17 -2,6 -5,12 -9,18 -4,6 -9,11 -15,15 -6,3 -12,7 -18,9 -2,1 -4,1 -6,2 -3,0 -5,1 -7,1 -2,0 -4,0 -7,0 -2,0 -4,-1 -6,-1 -2,-1 -5,-1 -8,-3 -3,-1 -7,-3 -11,-5 -3,-2 -7,-4 -11,-7 -4,-3 -7,-6 -10,-10 -3,-3 -5,-7 -6,-10 -2,-4 -3,-8 -3,-13 0,-6 0,-12 1,-18 1,-7 3,-13 5,-19 2,-3 4,-6 6,-9 2,-4 5,-7 9,-10 4,-3 8,-6 13,-8 5,-3 11,-5 18,-7 4,-1 8,-1 12,-1 4,0 9,1 13,2 4,1 7,2 10,4 4,2 7,4 10,6 3,2 5,4 8,6 2,3 4,5 5,6 4,5 6,10 8,15 1,6 2,12 2,20zm-62 30c3,0 6,0 9,-1 2,0 5,-1 7,-2 6,-4 10,-9 13,-14 2,-6 3,-12 2,-19 -1,-3 -2,-7 -4,-9 -2,-3 -4,-6 -7,-8 -2,-2 -5,-3 -9,-4 -3,-1 -6,-1 -10,-1 -3,1 -6,1 -10,2 -3,1 -5,3 -8,6 -4,5 -7,10 -9,16 -1,6 -1,12 0,19 1,1 1,2 2,4 1,1 2,2 3,3 3,2 7,4 10,6 4,1 7,2 11,2z"/>
   <path class="fil14" d="M3417 3134c0,5 -1,11 -3,17 -2,6 -5,12 -9,18 -4,6 -9,11 -15,15 -6,3 -12,7 -18,9 -2,1 -4,1 -6,2 -3,0 -5,1 -7,1 -2,0 -4,0 -7,0 -2,0 -4,-1 -6,-1 -2,-1 -5,-1 -8,-3 -3,-1 -7,-3 -11,-5 -3,-2 -7,-4 -11,-7 -4,-3 -7,-6 -10,-10 -3,-3 -5,-7 -6,-10 -2,-4 -3,-8 -3,-13 0,-6 0,-12 1,-18 1,-7 3,-13 5,-19 2,-3 4,-6 6,-9 2,-4 5,-7 9,-10 4,-3 8,-6 13,-9 5,-2 11,-4 18,-6 4,-1 8,-1 12,-1 4,0 9,1 13,2 4,1 7,2 10,4 4,2 7,4 10,6 3,2 5,4 8,6 2,3 4,5 5,6 4,5 6,10 8,15 1,6 2,12 2,20zm-62 30c3,0 6,0 9,-1 2,0 5,-1 7,-2 6,-4 10,-9 13,-14 2,-6 3,-12 2,-19 -1,-3 -2,-7 -4,-9 -2,-3 -4,-6 -7,-8 -2,-2 -5,-3 -9,-4 -3,-1 -6,-1 -10,-1 -3,1 -6,1 -10,2 -3,1 -5,3 -8,6 -4,5 -7,10 -9,16 -1,6 -1,12 0,19 1,1 1,2 2,4 1,1 2,2 3,3 3,2 7,4 10,6 4,1 7,2 11,2z"/>
   <path id="1" class="fil15 str2" d="M3417 3134c0,5 -1,11 -3,17 -2,6 -5,12 -9,18 -4,6 -9,11 -15,15 -6,3 -12,7 -18,9 -2,1 -4,1 -6,2 -3,0 -5,1 -7,1 -2,0 -4,0 -7,0 -2,0 -4,-1 -6,-1 -2,-1 -5,-1 -8,-3 -3,-1 -7,-3 -11,-5 -3,-2 -7,-4 -11,-7 -4,-3 -7,-6 -10,-10 -3,-3 -5,-7 -6,-10 -2,-4 -3,-8 -3,-13 0,-6 0,-12 1,-18 1,-7 3,-13 5,-19 2,-3 4,-6 6,-9 2,-4 5,-7 9,-10 4,-3 8,-6 13,-9 5,-2 11,-4 18,-6 4,-1 8,-1 12,-1 4,0 9,1 13,2 4,1 7,2 10,4 4,2 7,4 10,6 3,2 5,4 8,6 2,3 4,5 5,6 4,5 6,10 8,15 1,6 2,12 2,20zm-62 30c3,0 6,0 9,-1 2,0 5,-1 7,-2 6,-4 10,-9 13,-14 2,-6 3,-12 2,-19 -1,-3 -2,-7 -4,-9 -2,-3 -4,-6 -7,-8 -2,-2 -5,-3 -9,-4 -3,-1 -6,-1 -10,-1 -3,1 -6,1 -10,2 -3,1 -5,3 -8,6 -4,5 -7,10 -9,16 -1,6 -1,12 0,19 1,1 1,2 2,4 1,1 2,2 3,3 3,2 7,4 10,6 4,1 7,2 11,2z"/>
   <path class="fil4 str3" d="M3355 3060c3,0 6,0 9,0 2,-1 5,-1 7,-3 6,-4 11,-8 13,-14 3,-5 3,-12 2,-19 0,-3 -2,-6 -3,-9 -2,-3 -5,-5 -7,-7 -3,-2 -6,-4 -9,-5 -4,-1 -7,-1 -10,0 -4,0 -7,1 -10,2 -3,1 -6,3 -8,5 -5,5 -8,11 -9,17 -2,5 -2,12 0,19 0,1 1,2 2,3 1,1 2,2 2,3 4,3 7,5 11,6 3,2 7,2 10,2z"/>
   <path class="fil5 str3" d="M3355 3060c3,0 6,0 9,0 2,-1 5,-1 7,-3 6,-4 11,-8 13,-14 3,-5 3,-12 2,-19 0,-3 -2,-6 -3,-9 -2,-3 -5,-5 -7,-7 -3,-2 -6,-4 -9,-5 -4,-1 -7,-1 -10,0 -4,0 -7,1 -10,2 -3,1 -6,3 -8,5 -5,5 -8,11 -9,17 -2,5 -2,12 0,19 0,1 1,2 2,3 1,1 2,2 2,3 4,3 7,5 11,6 3,2 7,2 10,2z"/>
   <path class="fil5 str3" d="M3355 3164c3,1 6,0 8,0 3,0 5,-1 8,-3 6,-3 10,-8 13,-14 2,-5 3,-11 2,-18 -1,-4 -2,-7 -4,-10 -2,-3 -4,-5 -7,-7 -3,-2 -6,-4 -9,-5 -3,-1 -6,-1 -10,0 -3,0 -7,1 -10,2 -3,1 -6,3 -8,6 -4,5 -7,10 -9,16 -2,6 -1,12 0,19 1,1 1,2 2,3 1,1 2,2 3,3 3,3 6,5 10,7 3,1 7,2 11,1z"/>
   <path class="fil14" d="M3416 3241c0,5 -1,11 -4,17 -2,6 -5,12 -9,18 -4,6 -9,11 -14,15 -6,3 -12,6 -19,9 -2,1 -4,1 -6,2 -2,0 -4,1 -7,1 -2,0 -4,0 -6,0 -2,0 -4,-1 -6,-1 -2,-1 -5,-1 -8,-3 -4,-1 -7,-3 -11,-5 -4,-2 -8,-5 -12,-7 -3,-3 -7,-6 -10,-10 -3,-3 -5,-7 -6,-11 -1,-3 -2,-7 -2,-12 -1,-6 0,-12 0,-19 1,-6 3,-12 6,-18 1,-3 3,-6 6,-9 2,-4 5,-7 9,-10 3,-3 8,-6 13,-9 5,-2 11,-4 18,-6 3,-1 7,-1 12,-1 4,0 8,1 13,2 3,1 6,2 10,4 3,2 6,4 9,6 3,2 6,4 8,6 2,3 4,4 5,6 4,5 7,10 8,15 2,6 3,12 3,20zm-63 30c4,0 6,0 9,-1 3,0 5,-1 7,-2 6,-4 11,-9 13,-14 3,-6 4,-12 2,-19 0,-3 -1,-7 -3,-9 -2,-3 -4,-6 -7,-8 -3,-2 -6,-3 -9,-4 -3,-1 -7,-1 -10,-1 -4,1 -7,1 -10,2 -3,1 -6,3 -8,6 -5,5 -8,10 -9,16 -2,6 -2,12 0,19 0,1 1,2 2,4 1,1 2,2 3,3 3,2 6,4 10,6 3,1 7,2 10,2z"/>
   <path id="1" class="fil15 str2" d="M3416 3241c0,5 -1,11 -4,17 -2,6 -5,12 -9,18 -4,6 -9,11 -14,15 -6,3 -12,6 -19,9 -2,1 -4,1 -6,2 -2,0 -4,1 -7,1 -2,0 -4,0 -6,0 -2,0 -4,-1 -6,-1 -2,-1 -5,-1 -8,-3 -4,-1 -7,-3 -11,-5 -4,-2 -8,-5 -12,-7 -3,-3 -7,-6 -10,-10 -3,-3 -5,-7 -6,-11 -1,-3 -2,-7 -2,-12 -1,-6 0,-12 0,-19 1,-6 3,-12 6,-18 1,-3 3,-6 6,-9 2,-4 5,-7 9,-10 3,-3 8,-6 13,-9 5,-2 11,-4 18,-6 3,-1 7,-1 12,-1 4,0 8,1 13,2 3,1 6,2 10,4 3,2 6,4 9,6 3,2 6,4 8,6 2,3 4,4 5,6 4,5 7,10 8,15 2,6 3,12 3,20zm-63 30c4,0 6,0 9,-1 3,0 5,-1 7,-2 6,-4 11,-9 13,-14 3,-6 4,-12 2,-19 0,-3 -1,-7 -3,-9 -2,-3 -4,-6 -7,-8 -3,-2 -6,-3 -9,-4 -3,-1 -7,-1 -10,-1 -4,1 -7,1 -10,2 -3,1 -6,3 -8,6 -5,5 -8,10 -9,16 -2,6 -2,12 0,19 0,1 1,2 2,4 1,1 2,2 3,3 3,2 6,4 10,6 3,1 7,2 10,2z"/>
   <path class="fil5 str3" d="M3353 3271c3,1 6,0 9,0 2,0 5,-1 7,-3 6,-3 11,-8 13,-14 3,-5 3,-11 2,-18 0,-4 -2,-7 -3,-10 -2,-3 -5,-5 -7,-7 -3,-2 -6,-4 -9,-5 -4,-1 -7,-1 -10,0 -4,0 -7,1 -10,2 -3,1 -6,3 -8,5 -5,5 -8,11 -9,17 -2,6 -2,12 0,19 0,1 1,2 2,3 1,1 2,2 2,3 4,3 7,5 11,6 3,2 7,3 10,2z"/>
   <path class="fil21" d="M4494 3005c-1,6 -2,12 -4,18 -2,6 -5,12 -9,18 -4,6 -9,11 -15,14 -5,4 -11,7 -18,10 -2,0 -4,1 -6,1 -2,1 -5,1 -7,1 -2,0 -4,0 -6,0 -3,0 -5,0 -7,-1 -2,0 -4,-1 -8,-2 -3,-2 -7,-3 -10,-5 -4,-2 -8,-5 -12,-8 -4,-3 -7,-6 -10,-9 -3,-4 -5,-7 -6,-11 -2,-4 -2,-8 -3,-12 0,-7 0,-13 1,-19 1,-6 3,-12 6,-18 1,-3 3,-6 5,-10 3,-3 6,-6 9,-9 4,-4 8,-6 13,-9 6,-3 12,-5 19,-6 3,-1 7,-1 11,-1 5,0 9,1 13,2 4,1 7,2 11,4 3,1 6,3 9,5 3,3 6,5 8,7 2,2 4,4 5,6 4,4 6,10 8,15 2,5 3,12 3,19zm-63 30c3,1 6,0 9,0 2,0 5,-1 7,-3 6,-3 10,-8 13,-14 3,-5 3,-12 2,-18 -1,-4 -2,-7 -4,-10 -1,-3 -4,-5 -6,-7 -3,-2 -6,-4 -9,-5 -4,-1 -7,-1 -10,0 -4,0 -7,1 -10,2 -3,1 -6,3 -8,5 -5,5 -8,11 -9,17 -2,6 -2,12 0,19 0,1 1,2 2,3 0,1 1,2 2,3 4,3 7,5 10,6 4,2 7,3 11,2z"/>
   <path id="1" class="fil15 str6" d="M4494 3005c-1,6 -2,12 -4,18 -2,6 -5,12 -9,18 -4,6 -9,11 -15,14 -5,4 -11,7 -18,10 -2,0 -4,1 -6,1 -2,1 -5,1 -7,1 -2,0 -4,0 -6,0 -3,0 -5,0 -7,-1 -2,0 -4,-1 -8,-2 -3,-2 -7,-3 -10,-5 -4,-2 -8,-5 -12,-8 -4,-3 -7,-6 -10,-9 -3,-4 -5,-7 -6,-11 -2,-4 -2,-8 -3,-12 0,-7 0,-13 1,-19 1,-6 3,-12 6,-18 1,-3 3,-6 5,-10 3,-3 6,-6 9,-9 4,-4 8,-6 13,-9 6,-3 12,-5 19,-6 3,-1 7,-1 11,-1 5,0 9,1 13,2 4,1 7,2 11,4 3,1 6,3 9,5 3,3 6,5 8,7 2,2 4,4 5,6 4,4 6,10 8,15 2,5 3,12 3,19zm-63 30c3,1 6,0 9,0 2,0 5,-1 7,-3 6,-3 10,-8 13,-14 3,-5 3,-12 2,-18 -1,-4 -2,-7 -4,-10 -1,-3 -4,-5 -6,-7 -3,-2 -6,-4 -9,-5 -4,-1 -7,-1 -10,0 -4,0 -7,1 -10,2 -3,1 -6,3 -8,5 -5,5 -8,11 -9,17 -2,6 -2,12 0,19 0,1 1,2 2,3 0,1 1,2 2,3 4,3 7,5 10,6 4,2 7,3 11,2z"/>
   <path class="fil21" d="M4494 3109c-1,6 -2,12 -4,18 -2,6 -5,12 -9,18 -4,6 -9,11 -15,14 -5,4 -11,7 -18,10 -2,0 -4,1 -6,1 -2,1 -5,1 -7,1 -2,0 -4,0 -6,0 -3,0 -5,0 -7,-1 -2,0 -4,-1 -8,-2 -3,-2 -7,-3 -10,-5 -4,-3 -8,-5 -12,-8 -4,-3 -7,-6 -10,-9 -3,-4 -5,-7 -6,-11 -2,-4 -2,-8 -3,-12 0,-7 0,-13 1,-19 1,-6 3,-12 6,-18 1,-3 3,-6 5,-10 3,-3 6,-6 9,-9 4,-4 8,-6 13,-9 6,-3 12,-5 19,-6 3,-1 7,-1 11,-1 5,0 9,0 13,2 4,1 7,2 11,4 3,1 6,3 9,5 3,3 6,5 8,7 2,2 4,4 5,6 4,4 6,10 8,15 2,5 3,12 3,19zm-63 30c3,0 6,0 9,0 2,0 5,-1 7,-3 6,-3 10,-8 13,-14 3,-5 3,-12 2,-19 -1,-3 -2,-6 -4,-9 -1,-3 -4,-5 -6,-7 -3,-2 -6,-4 -9,-5 -4,-1 -7,-1 -10,0 -4,0 -7,1 -10,2 -3,1 -6,3 -8,5 -5,5 -8,11 -9,17 -2,6 -2,12 0,19 0,1 1,2 2,3 0,1 1,2 2,3 4,3 7,5 10,6 4,2 7,3 11,2z"/>
   <path id="1" class="fil15 str6" d="M4494 3109c-1,6 -2,12 -4,18 -2,6 -5,12 -9,18 -4,6 -9,11 -15,14 -5,4 -11,7 -18,10 -2,0 -4,1 -6,1 -2,1 -5,1 -7,1 -2,0 -4,0 -6,0 -3,0 -5,0 -7,-1 -2,0 -4,-1 -8,-2 -3,-2 -7,-3 -10,-5 -4,-3 -8,-5 -12,-8 -4,-3 -7,-6 -10,-9 -3,-4 -5,-7 -6,-11 -2,-4 -2,-8 -3,-12 0,-7 0,-13 1,-19 1,-6 3,-12 6,-18 1,-3 3,-6 5,-10 3,-3 6,-6 9,-9 4,-4 8,-6 13,-9 6,-3 12,-5 19,-6 3,-1 7,-1 11,-1 5,0 9,0 13,2 4,1 7,2 11,4 3,1 6,3 9,5 3,3 6,5 8,7 2,2 4,4 5,6 4,4 6,10 8,15 2,5 3,12 3,19zm-63 30c3,0 6,0 9,0 2,0 5,-1 7,-3 6,-3 10,-8 13,-14 3,-5 3,-12 2,-19 -1,-3 -2,-6 -4,-9 -1,-3 -4,-5 -6,-7 -3,-2 -6,-4 -9,-5 -4,-1 -7,-1 -10,0 -4,0 -7,1 -10,2 -3,1 -6,3 -8,5 -5,5 -8,11 -9,17 -2,6 -2,12 0,19 0,1 1,2 2,3 0,1 1,2 2,3 4,3 7,5 10,6 4,2 7,3 11,2z"/>
   <path class="fil8 str0" d="M4432 3036c3,0 6,0 8,-1 3,0 5,-1 7,-2 7,-4 11,-9 13,-14 3,-6 4,-12 2,-19 0,-4 -1,-7 -3,-10 -2,-2 -4,-5 -7,-7 -3,-2 -6,-3 -9,-4 -3,-1 -7,-1 -10,-1 -4,0 -7,1 -10,2 -3,1 -6,3 -8,6 -4,5 -7,10 -9,16 -2,6 -2,12 0,19 0,1 1,2 2,4 1,1 2,2 3,3 3,2 6,4 10,6 3,1 7,2 11,2z"/>
   <path class="fil5 str0" d="M4431 3140c3,0 6,0 9,0 2,-1 5,-2 7,-3 6,-4 10,-8 13,-14 3,-6 3,-12 2,-19 -1,-3 -2,-6 -4,-9 -2,-3 -4,-6 -7,-8 -2,-2 -5,-3 -9,-4 -3,-1 -6,-1 -10,-1 -3,1 -6,1 -9,2 -4,1 -6,3 -9,6 -4,5 -7,10 -9,16 -1,6 -1,12 1,19 0,1 1,3 1,4 1,1 2,2 3,3 3,2 7,4 10,6 4,2 7,2 11,2z"/>
   <path class="fil5 str0" d="M4432 3036c3,0 6,0 8,-1 3,0 5,-1 7,-2 7,-4 11,-9 13,-14 3,-6 4,-12 2,-19 0,-4 -1,-7 -3,-10 -2,-2 -4,-5 -7,-7 -3,-2 -6,-3 -9,-4 -3,-1 -7,-1 -10,-1 -4,0 -7,1 -10,2 -3,1 -6,3 -8,6 -4,5 -7,10 -9,16 -2,6 -2,12 0,19 0,1 1,2 2,4 1,1 2,2 3,3 3,2 6,4 10,6 3,1 7,2 11,2z"/>
   <path class="fil21" d="M4492 3216c0,6 -1,12 -3,18 -3,6 -6,12 -9,18 -5,6 -9,11 -15,14 -6,4 -12,7 -18,9 -2,1 -4,2 -7,2 -2,1 -4,1 -6,1 -3,0 -5,0 -7,0 -2,0 -4,0 -6,-1 -2,0 -5,-1 -8,-2 -4,-2 -7,-3 -11,-5 -4,-3 -7,-5 -11,-8 -4,-3 -7,-6 -11,-9 -2,-4 -4,-7 -6,-11 -1,-4 -2,-8 -2,-12 0,-7 0,-13 1,-19 1,-6 2,-12 5,-18 2,-3 3,-6 6,-10 2,-3 5,-6 9,-10 4,-3 8,-5 13,-8 5,-3 11,-5 18,-6 4,-1 7,-1 12,-1 4,0 9,0 13,2 3,0 7,2 10,4 3,1 7,3 10,5 3,3 5,5 7,7 3,2 4,4 6,6 3,4 6,10 8,15 1,5 2,12 2,19zm-62 30c3,0 6,0 8,0 3,-1 5,-1 8,-3 6,-3 10,-8 13,-14 2,-5 3,-12 2,-19 -1,-3 -2,-6 -4,-9 -2,-3 -4,-5 -7,-7 -3,-2 -6,-4 -9,-5 -3,-1 -6,-1 -10,0 -3,0 -7,1 -10,2 -3,1 -6,3 -8,5 -4,5 -7,11 -9,17 -2,6 -2,12 0,19 1,1 1,2 2,3 1,1 2,2 3,3 3,3 6,5 10,6 3,2 7,3 11,2z"/>
   <path id="1" class="fil15 str6" d="M4492 3216c0,6 -1,12 -3,18 -3,6 -6,12 -9,18 -5,6 -9,11 -15,14 -6,4 -12,7 -18,9 -2,1 -4,2 -7,2 -2,1 -4,1 -6,1 -3,0 -5,0 -7,0 -2,0 -4,0 -6,-1 -2,0 -5,-1 -8,-2 -4,-2 -7,-3 -11,-5 -4,-3 -7,-5 -11,-8 -4,-3 -7,-6 -11,-9 -2,-4 -4,-7 -6,-11 -1,-4 -2,-8 -2,-12 0,-7 0,-13 1,-19 1,-6 2,-12 5,-18 2,-3 3,-6 6,-10 2,-3 5,-6 9,-10 4,-3 8,-5 13,-8 5,-3 11,-5 18,-6 4,-1 7,-1 12,-1 4,0 9,0 13,2 3,0 7,2 10,4 3,1 7,3 10,5 3,3 5,5 7,7 3,2 4,4 6,6 3,4 6,10 8,15 1,5 2,12 2,19zm-62 30c3,0 6,0 8,0 3,-1 5,-1 8,-3 6,-3 10,-8 13,-14 2,-5 3,-12 2,-19 -1,-3 -2,-6 -4,-9 -2,-3 -4,-5 -7,-7 -3,-2 -6,-4 -9,-5 -3,-1 -6,-1 -10,0 -3,0 -7,1 -10,2 -3,1 -6,3 -8,5 -4,5 -7,11 -9,17 -2,6 -2,12 0,19 1,1 1,2 2,3 1,1 2,2 3,3 3,3 6,5 10,6 3,2 7,3 11,2z"/>
   <path class="fil5 str0" d="M4429 3247c4,0 7,0 9,0 3,-1 5,-2 7,-3 7,-4 11,-9 13,-14 3,-6 4,-12 2,-19 0,-3 -1,-7 -3,-9 -2,-3 -4,-6 -7,-8 -3,-2 -6,-3 -9,-4 -3,-1 -7,-1 -10,-1 -4,1 -7,1 -10,2 -3,1 -6,3 -8,6 -4,5 -7,10 -9,16 -2,6 -2,12 0,19 0,1 1,3 2,4 1,1 2,2 3,3 3,2 6,4 10,6 3,2 7,2 10,2z"/>
   <path class="fil17 str0" d="M4039 3096c0,7 0,13 1,17 0,4 0,10 0,17 0,3 -1,5 -3,6 -1,1 -5,1 -10,1 -11,0 -22,0 -33,-1 -11,0 -23,0 -34,0 -59,0 -90,3 -149,0 -4,0 -8,0 -12,0 -10,-1 -20,-1 -31,0 -10,0 -20,0 -31,-1 -7,0 -11,-1 -13,-2 -2,-2 -3,-4 -3,-9 0,-16 0,-30 -1,-43 0,-14 0,-28 0,-43 1,-25 1,-49 2,-73 0,-24 1,-48 2,-73l0 -12c0,-6 4,-8 11,-8 5,0 11,0 16,0 6,-1 12,-1 17,0 8,0 15,0 23,0 55,1 99,0 153,0l70 0c5,0 8,0 10,1 5,0 9,1 11,2 2,1 3,4 3,9 1,19 2,39 2,59 0,10 0,21 -1,32 0,10 -1,21 -1,31 0,0 0,4 0,10 0,7 0,15 0,24 0,9 0,19 0,29 1,11 1,19 1,27z"/>
   <path class="fil18" d="M3877 2987c0,2 1,4 1,6 0,1 0,3 0,6 0,1 -1,2 -1,2 -1,1 -2,1 -4,1 -4,-1 -8,-1 -12,-1 -4,0 -8,0 -12,0 -21,0 -33,1 -54,0 -1,0 -3,0 -4,0 -4,0 -8,0 -11,0 -4,0 -8,0 -12,0 -2,0 -4,-1 -4,-1 -1,0 -1,-2 -1,-3 0,-6 0,-11 -1,-16 0,-5 0,-10 0,-15 1,-9 1,-18 1,-27 0,-8 0,-17 1,-26l0 -4c0,-2 1,-3 4,-3 2,0 4,0 6,0 2,0 4,0 6,0 2,0 5,0 8,0 20,0 36,0 55,0l26 0c1,0 2,0 3,0 2,0 3,1 4,1 1,0 1,1 1,3 1,7 1,14 1,21 0,4 0,8 0,12 -1,4 -1,8 -1,11 0,0 0,2 0,4 0,2 0,5 0,9 0,3 0,6 0,10 0,4 0,7 0,10z"/>
   <path class="fil18" d="M3877 3094c0,2 0,4 0,6 0,1 0,3 0,6 0,1 0,2 -1,2 0,0 -2,1 -3,0 -4,0 -8,0 -12,0 -4,0 -8,0 -12,0 -22,0 -33,1 -55,0 -1,0 -2,0 -4,0 -3,0 -7,0 -11,0 -4,0 -7,0 -11,0 -3,0 -4,-1 -5,-1 -1,-1 -1,-2 -1,-3 0,-6 0,-11 0,-16 0,-5 0,-10 0,-15 0,-9 0,-18 0,-27 1,-8 1,-17 1,-26l0 -5c0,-1 1,-2 4,-2 2,0 4,0 6,0 2,0 4,0 6,0 3,0 6,0 8,0 20,0 36,0 55,0l26 0c2,0 3,0 3,0 2,0 4,0 4,1 1,0 1,1 2,3 0,7 0,14 0,21 0,4 0,8 0,12 0,4 0,7 0,11 0,0 0,2 0,4 0,2 0,5 0,8 0,4 0,7 0,11 0,4 0,7 0,10z"/>
   <path class="fil18" d="M4003 2988c0,2 0,4 0,6 0,1 0,4 0,6 0,1 0,2 0,2 -1,1 -2,1 -4,1 -4,0 -8,-1 -12,-1 -4,0 -8,0 -12,0 -22,0 -33,1 -54,0 -2,0 -3,0 -4,0 -4,0 -8,0 -12,0 -3,0 -7,0 -11,0 -2,0 -4,0 -5,-1 0,0 -1,-1 -1,-3 0,-6 0,-11 0,-16 0,-4 0,-10 0,-15 0,-9 0,-18 1,-26 0,-9 0,-18 0,-27l0 -4c0,-2 2,-3 4,-3 2,0 4,0 6,0 2,0 4,0 6,0 3,0 6,0 8,0 21,0 36,0 56,0l25 0c2,0 3,0 4,0 2,0 3,1 4,1 0,1 1,2 1,3 0,7 0,14 0,21 0,4 0,8 0,12 0,4 0,8 0,11 0,0 0,2 0,4 0,2 0,5 0,9 0,3 0,6 0,10 0,4 0,7 0,10z"/>
   <path class="fil18" d="M4004 3095c0,2 0,4 0,6 0,1 0,4 0,6 0,1 0,2 -1,2 0,1 -2,1 -3,1 -4,0 -9,-1 -13,-1 -4,0 -8,0 -12,0 -21,0 -32,1 -54,0 -1,0 -2,0 -4,0 -3,0 -7,0 -11,0 -4,0 -7,0 -11,0 -3,0 -4,0 -5,-1 -1,0 -1,-1 -1,-3 0,-6 0,-11 0,-16 0,-5 0,-10 0,-15 0,-9 0,-18 0,-26 1,-9 1,-18 1,-27l0 -4c0,-2 1,-3 4,-3 2,0 4,0 6,0 2,0 4,0 6,0 3,0 6,0 8,0 20,0 36,0 55,0l26 0c1,0 3,0 3,0 2,0 4,1 4,1 1,1 1,2 1,3 1,7 1,14 1,21 0,4 0,8 0,12 0,4 0,8 -1,11 0,0 0,2 0,4 0,2 0,5 0,9 0,3 1,6 1,10 0,4 0,7 0,10z"/>
   <path class="fil8 str0" d="M4629 3631c-22,30 -44,60 -65,90 22,-30 44,-59 65,-90z"/>
   <polygon class="fil22" points="5728,2525 5725,2405 6093,2406 6096,2813 "/>
   <polygon class="fil10 str0" points="6115,3789 6116,3309 5138,2544 4252,3297 4256,3784 "/>
   <rect class="fil10 str1" x="4294" y="3281" width="1890" height="132"/>
   <rect class="fil10 str1" x="4294" y="3149" width="1890" height="132"/>
   <rect class="fil10 str1" x="4294" y="3017" width="1890" height="132"/>
   <polygon class="fil10 str0" points="4434,2886 5916,2886 5916,3017 4434,3017 "/>
   <polygon class="fil23 str7" points="4531,2881 5912,2881 5916,2881 5916,2886 5916,3017 5916,3022 5912,3022 4531,3022 4531,3013 5908,3013 5908,2891 4531,2891 "/>
   <polygon class="fil10 str0" points="4569,2754 5820,2754 5820,2886 4569,2886 "/>
   <polygon class="fil23 str7" points="4569,2749 5791,2749 5794,2749 5794,2754 5794,2886 5794,2891 5791,2891 4569,2891 4569,2881 5788,2881 5788,2759 4569,2759 "/>
   <polygon class="fil10 str0" points="4800,2622 5637,2622 5637,2754 4800,2754 "/>
   <polygon class="fil10 str0" points="5528,2539 5528,2619 4871,2619 4871,2539 "/>
   <rect class="fil10 str1" x="4294" y="3412" width="1890" height="132"/>
   <rect class="fil10 str1" x="4294" y="3544" width="1890" height="132"/>
   <path class="fil14" d="M4410 3356c0,10 -2,20 -6,30 -4,10 -9,21 -16,31 -7,10 -15,18 -25,24 -9,7 -20,12 -31,16 -3,1 -7,2 -10,3 -4,1 -8,2 -12,2 -3,0 -7,0 -11,0 -4,0 -7,-1 -10,-1 -4,-1 -9,-3 -14,-5 -6,-2 -12,-5 -19,-9 -6,-3 -12,-8 -19,-12 -6,-5 -12,-11 -17,-17 -5,-5 -9,-11 -11,-18 -2,-6 -4,-13 -4,-21 -1,-10 0,-21 1,-32 2,-10 5,-20 10,-31 2,-5 5,-10 9,-16 4,-6 9,-11 16,-17 6,-5 13,-10 22,-14 9,-5 19,-8 31,-11 6,-1 12,-2 20,-1 7,0 15,1 22,3 6,1 12,3 18,7 5,3 11,6 16,9 5,4 9,8 13,12 4,3 7,7 9,9 6,8 11,17 14,26 2,10 4,21 4,33zm-107 52c6,0 11,0 15,-1 4,-1 9,-2 13,-5 10,-6 17,-14 22,-23 4,-10 5,-21 3,-33 -1,-5 -3,-11 -6,-16 -3,-4 -7,-9 -12,-12 -4,-3 -10,-6 -15,-8 -6,-1 -11,-2 -17,-1 -6,1 -12,2 -17,4 -5,2 -10,5 -14,10 -7,8 -12,17 -15,27 -3,10 -3,21 0,32 1,2 2,4 3,7 2,2 3,3 5,5 5,4 11,8 17,10 6,3 12,4 18,4z"/>
   <path id="1" class="fil15 str2" d="M4410 3356c0,10 -2,20 -6,30 -4,10 -9,21 -16,31 -7,10 -15,18 -25,24 -9,7 -20,12 -31,16 -3,1 -7,2 -10,3 -4,1 -8,2 -12,2 -3,0 -7,0 -11,0 -4,0 -7,-1 -10,-1 -4,-1 -9,-3 -14,-5 -6,-2 -12,-5 -19,-9 -6,-3 -12,-8 -19,-12 -6,-5 -12,-11 -17,-17 -5,-5 -9,-11 -11,-18 -2,-6 -4,-13 -4,-21 -1,-10 0,-21 1,-32 2,-10 5,-20 10,-31 2,-5 5,-10 9,-16 4,-6 9,-11 16,-17 6,-5 13,-10 22,-14 9,-5 19,-8 31,-11 6,-1 12,-2 20,-1 7,0 15,1 22,3 6,1 12,3 18,7 5,3 11,6 16,9 5,4 9,8 13,12 4,3 7,7 9,9 6,8 11,17 14,26 2,10 4,21 4,33zm-107 52c6,0 11,0 15,-1 4,-1 9,-2 13,-5 10,-6 17,-14 22,-23 4,-10 5,-21 3,-33 -1,-5 -3,-11 -6,-16 -3,-4 -7,-9 -12,-12 -4,-3 -10,-6 -15,-8 -6,-1 -11,-2 -17,-1 -6,1 -12,2 -17,4 -5,2 -10,5 -14,10 -7,8 -12,17 -15,27 -3,10 -3,21 0,32 1,2 2,4 3,7 2,2 3,3 5,5 5,4 11,8 17,10 6,3 12,4 18,4z"/>
   <path class="fil14" d="M4410 3534c0,9 -2,19 -6,29 -4,11 -9,21 -16,31 -7,10 -15,18 -25,25 -9,6 -20,11 -31,15 -3,2 -7,3 -10,3 -4,1 -8,2 -12,2 -3,0 -7,0 -11,0 -4,0 -7,0 -10,-1 -4,-1 -9,-3 -14,-5 -6,-2 -12,-5 -19,-9 -6,-3 -12,-7 -19,-12 -6,-5 -12,-11 -17,-17 -5,-5 -9,-11 -11,-18 -2,-6 -4,-13 -4,-20 -1,-11 0,-22 1,-32 2,-11 5,-21 10,-31 2,-6 5,-11 9,-17 4,-6 9,-11 16,-16 6,-6 13,-10 22,-15 9,-4 19,-8 31,-11 6,-1 12,-2 20,-1 7,0 15,1 22,3 6,1 12,4 18,7 5,3 11,6 16,10 5,3 9,7 13,11 4,3 7,7 9,10 6,8 11,16 14,26 2,9 4,20 4,33zm-107 51c6,0 11,0 15,-1 4,-1 9,-2 13,-4 10,-7 17,-15 22,-24 4,-10 5,-20 3,-32 -1,-6 -3,-12 -6,-16 -3,-5 -7,-9 -12,-13 -4,-3 -10,-6 -15,-7 -6,-2 -11,-2 -17,-2 -6,1 -12,2 -17,4 -5,2 -10,5 -14,10 -7,8 -12,17 -15,27 -3,10 -3,21 0,33 1,2 2,4 3,6 2,2 3,3 5,5 5,4 11,8 17,10 6,3 12,4 18,4z"/>
   <path id="1" class="fil15 str2" d="M4410 3534c0,9 -2,19 -6,29 -4,11 -9,21 -16,31 -7,10 -15,18 -25,25 -9,6 -20,11 -31,15 -3,2 -7,3 -10,3 -4,1 -8,2 -12,2 -3,0 -7,0 -11,0 -4,0 -7,0 -10,-1 -4,-1 -9,-3 -14,-5 -6,-2 -12,-5 -19,-9 -6,-3 -12,-7 -19,-12 -6,-5 -12,-11 -17,-17 -5,-5 -9,-11 -11,-18 -2,-6 -4,-13 -4,-20 -1,-11 0,-22 1,-32 2,-11 5,-21 10,-31 2,-6 5,-11 9,-17 4,-6 9,-11 16,-16 6,-6 13,-10 22,-15 9,-4 19,-8 31,-11 6,-1 12,-2 20,-1 7,0 15,1 22,3 6,1 12,4 18,7 5,3 11,6 16,10 5,3 9,7 13,11 4,3 7,7 9,10 6,8 11,16 14,26 2,9 4,20 4,33zm-107 51c6,0 11,0 15,-1 4,-1 9,-2 13,-4 10,-7 17,-15 22,-24 4,-10 5,-20 3,-32 -1,-6 -3,-12 -6,-16 -3,-5 -7,-9 -12,-13 -4,-3 -10,-6 -15,-7 -6,-2 -11,-2 -17,-2 -6,1 -12,2 -17,4 -5,2 -10,5 -14,10 -7,8 -12,17 -15,27 -3,10 -3,21 0,33 1,2 2,4 3,6 2,2 3,3 5,5 5,4 11,8 17,10 6,3 12,4 18,4z"/>
   <path class="fil4 str3" d="M4304 3408c5,0 10,0 15,-1 4,0 8,-2 12,-4 11,-6 18,-14 22,-24 5,-9 6,-20 4,-32 -1,-6 -3,-11 -6,-16 -4,-5 -7,-9 -12,-12 -5,-4 -10,-6 -15,-8 -6,-2 -12,-2 -18,-1 -5,1 -11,2 -16,4 -6,1 -10,5 -14,9 -8,9 -13,18 -16,28 -2,10 -2,21 1,32 0,2 1,4 3,6 1,2 3,4 5,5 5,5 11,8 17,11 6,3 12,4 18,3z"/>
   <path class="fil5 str3" d="M4304 3408c5,0 10,0 15,-1 4,0 8,-2 12,-4 11,-6 18,-14 22,-24 5,-9 6,-20 4,-32 -1,-6 -3,-11 -6,-16 -4,-5 -7,-9 -12,-12 -5,-4 -10,-6 -15,-8 -6,-2 -12,-2 -18,-1 -5,1 -11,2 -16,4 -6,1 -10,5 -14,9 -8,9 -13,18 -16,28 -2,10 -2,21 1,32 0,2 1,4 3,6 1,2 3,4 5,5 5,5 11,8 17,11 6,3 12,4 18,3z"/>
   <path class="fil5 str3" d="M4303 3586c6,0 10,0 15,-1 4,-1 8,-2 12,-4 11,-7 18,-15 23,-24 4,-10 5,-20 3,-32 -1,-6 -3,-12 -6,-16 -4,-5 -7,-9 -12,-13 -5,-3 -10,-6 -15,-7 -6,-2 -12,-2 -17,-2 -6,1 -12,2 -17,4 -6,2 -10,5 -14,10 -7,8 -13,17 -15,27 -3,10 -3,21 0,33 0,2 2,4 3,6 2,2 3,3 5,5 5,4 11,8 17,10 6,3 12,4 18,4z"/>
   <path class="fil14" d="M4407 3716c0,9 -2,19 -6,29 -3,11 -8,21 -15,31 -7,10 -15,19 -25,25 -10,6 -20,11 -31,16 -4,1 -7,2 -11,3 -4,0 -7,1 -11,1 -4,1 -8,1 -12,0 -3,0 -7,0 -10,-1 -4,-1 -8,-2 -14,-5 -6,-2 -12,-5 -18,-9 -6,-3 -13,-7 -19,-12 -7,-5 -13,-10 -18,-16 -5,-6 -8,-12 -10,-18 -3,-7 -4,-14 -5,-21 0,-11 0,-22 2,-32 1,-11 4,-21 9,-31 3,-5 6,-11 10,-17 4,-5 9,-11 15,-16 6,-5 14,-10 23,-15 8,-4 19,-8 31,-11 5,-1 12,-1 19,-1 8,0 15,1 23,3 6,2 11,4 17,7 6,3 11,6 16,10 5,4 10,7 14,11 3,4 6,7 9,10 6,8 10,17 13,26 3,9 4,20 4,33zm-106 51c5,0 10,0 15,-1 4,0 8,-2 12,-4 10,-7 18,-15 22,-24 5,-10 6,-20 4,-32 -1,-6 -4,-11 -7,-16 -3,-5 -7,-9 -11,-13 -5,-3 -10,-6 -16,-7 -5,-2 -11,-2 -17,-1 -6,0 -11,2 -16,3 -6,2 -10,5 -14,10 -8,8 -13,18 -16,28 -3,10 -2,20 1,32 0,2 1,4 3,6 1,2 3,4 4,5 6,5 12,8 18,11 6,2 12,3 18,3z"/>
   <path id="1" class="fil15 str2" d="M4407 3716c0,9 -2,19 -6,29 -3,11 -8,21 -15,31 -7,10 -15,19 -25,25 -10,6 -20,11 -31,16 -4,1 -7,2 -11,3 -4,0 -7,1 -11,1 -4,1 -8,1 -12,0 -3,0 -7,0 -10,-1 -4,-1 -8,-2 -14,-5 -6,-2 -12,-5 -18,-9 -6,-3 -13,-7 -19,-12 -7,-5 -13,-10 -18,-16 -5,-6 -8,-12 -10,-18 -3,-7 -4,-14 -5,-21 0,-11 0,-22 2,-32 1,-11 4,-21 9,-31 3,-5 6,-11 10,-17 4,-5 9,-11 15,-16 6,-5 14,-10 23,-15 8,-4 19,-8 31,-11 5,-1 12,-1 19,-1 8,0 15,1 23,3 6,2 11,4 17,7 6,3 11,6 16,10 5,4 10,7 14,11 3,4 6,7 9,10 6,8 10,17 13,26 3,9 4,20 4,33zm-106 51c5,0 10,0 15,-1 4,0 8,-2 12,-4 10,-7 18,-15 22,-24 5,-10 6,-20 4,-32 -1,-6 -4,-11 -7,-16 -3,-5 -7,-9 -11,-13 -5,-3 -10,-6 -16,-7 -5,-2 -11,-2 -17,-1 -6,0 -11,2 -16,3 -6,2 -10,5 -14,10 -8,8 -13,18 -16,28 -3,10 -2,20 1,32 0,2 1,4 3,6 1,2 3,4 4,5 6,5 12,8 18,11 6,2 12,3 18,3z"/>
   <path class="fil5 str3" d="M4301 3768c5,0 10,0 14,-1 5,0 9,-2 13,-4 10,-7 18,-15 22,-24 4,-10 6,-20 3,-32 -1,-6 -3,-11 -6,-16 -3,-5 -7,-9 -12,-13 -4,-3 -9,-6 -15,-7 -5,-2 -11,-2 -17,-1 -6,0 -11,2 -17,3 -5,2 -10,5 -14,10 -7,8 -12,18 -15,28 -3,10 -3,20 0,32 1,2 2,4 3,6 2,2 4,4 5,5 6,5 11,8 17,11 6,2 12,3 19,3z"/>
   <path class="fil16" d="M6244 3315c-1,9 -3,19 -6,29 -4,11 -9,21 -16,31 -7,10 -15,19 -25,25 -10,6 -20,11 -31,16 -3,1 -7,2 -11,3 -3,0 -7,1 -11,1 -4,1 -8,1 -11,0 -4,0 -8,0 -11,-1 -3,-1 -8,-3 -14,-5 -5,-2 -11,-5 -18,-9 -6,-3 -13,-7 -19,-12 -7,-5 -13,-10 -18,-17 -4,-5 -8,-11 -10,-18 -3,-6 -4,-13 -4,-20 -1,-11 0,-22 1,-32 2,-11 5,-21 9,-31 3,-6 6,-11 10,-17 4,-6 9,-11 15,-16 7,-6 14,-10 23,-15 9,-4 19,-8 31,-11 6,-1 12,-1 20,-1 7,0 14,1 22,3 6,2 11,4 17,7 6,3 11,6 16,10 5,3 10,7 14,11 4,4 7,7 9,10 6,8 11,16 13,26 3,9 4,20 5,33zm-107 51c6,0 10,0 15,-1 4,-1 8,-2 12,-4 11,-7 18,-15 22,-24 5,-10 6,-20 4,-32 -1,-6 -3,-11 -6,-16 -4,-5 -7,-9 -12,-13 -5,-3 -10,-6 -15,-7 -6,-2 -12,-2 -17,-2 -6,1 -12,3 -17,4 -6,2 -10,5 -14,10 -8,8 -13,18 -15,27 -3,10 -3,21 0,33 0,2 1,4 3,6 1,2 3,4 5,5 5,4 11,8 17,11 6,2 12,3 18,3z"/>
   <path id="1" class="fil15 str4" d="M6244 3315c-1,9 -3,19 -6,29 -4,11 -9,21 -16,31 -7,10 -15,19 -25,25 -10,6 -20,11 -31,16 -3,1 -7,2 -11,3 -3,0 -7,1 -11,1 -4,1 -8,1 -11,0 -4,0 -8,0 -11,-1 -3,-1 -8,-3 -14,-5 -5,-2 -11,-5 -18,-9 -6,-3 -13,-7 -19,-12 -7,-5 -13,-10 -18,-17 -4,-5 -8,-11 -10,-18 -3,-6 -4,-13 -4,-20 -1,-11 0,-22 1,-32 2,-11 5,-21 9,-31 3,-6 6,-11 10,-17 4,-6 9,-11 15,-16 7,-6 14,-10 23,-15 9,-4 19,-8 31,-11 6,-1 12,-1 20,-1 7,0 14,1 22,3 6,2 11,4 17,7 6,3 11,6 16,10 5,3 10,7 14,11 4,4 7,7 9,10 6,8 11,16 13,26 3,9 4,20 5,33zm-107 51c6,0 10,0 15,-1 4,-1 8,-2 12,-4 11,-7 18,-15 22,-24 5,-10 6,-20 4,-32 -1,-6 -3,-11 -6,-16 -4,-5 -7,-9 -12,-13 -5,-3 -10,-6 -15,-7 -6,-2 -12,-2 -17,-2 -6,1 -12,3 -17,4 -6,2 -10,5 -14,10 -8,8 -13,18 -15,27 -3,10 -3,21 0,33 0,2 1,4 3,6 1,2 3,4 5,5 5,4 11,8 17,11 6,2 12,3 18,3z"/>
   <path class="fil16" d="M6244 3492c-1,9 -3,19 -6,29 -4,11 -9,21 -16,31 -7,10 -15,19 -25,25 -10,6 -20,11 -31,16 -3,1 -7,2 -11,3 -3,1 -7,1 -11,1 -4,1 -8,1 -11,1 -4,-1 -8,-1 -11,-2 -3,-1 -8,-2 -14,-5 -5,-2 -11,-5 -18,-8 -6,-4 -13,-8 -19,-13 -7,-5 -13,-10 -18,-16 -4,-6 -8,-12 -10,-18 -3,-7 -4,-14 -4,-21 -1,-11 0,-22 1,-32 2,-11 5,-21 9,-31 3,-5 6,-11 10,-17 4,-5 9,-11 15,-16 7,-5 14,-10 23,-15 9,-4 19,-8 31,-11 6,-1 12,-1 20,-1 7,0 14,1 22,3 6,2 11,4 17,7 6,3 11,6 16,10 5,4 10,7 14,11 4,4 7,7 9,10 6,8 11,17 13,26 3,9 4,20 5,33zm-107 51c6,0 10,0 15,-1 4,0 8,-2 12,-4 11,-7 18,-15 22,-24 5,-10 6,-20 4,-32 -1,-6 -3,-11 -6,-16 -4,-5 -7,-9 -12,-13 -5,-3 -10,-6 -15,-7 -6,-2 -12,-2 -17,-1 -6,0 -12,2 -17,3 -6,2 -10,5 -14,10 -8,8 -13,18 -15,28 -3,10 -3,20 0,32 0,2 1,4 3,6 1,2 3,4 5,5 5,5 11,8 17,11 6,2 12,3 18,3z"/>
   <path id="1" class="fil15 str4" d="M6244 3492c-1,9 -3,19 -6,29 -4,11 -9,21 -16,31 -7,10 -15,19 -25,25 -10,6 -20,11 -31,16 -3,1 -7,2 -11,3 -3,1 -7,1 -11,1 -4,1 -8,1 -11,1 -4,-1 -8,-1 -11,-2 -3,-1 -8,-2 -14,-5 -5,-2 -11,-5 -18,-8 -6,-4 -13,-8 -19,-13 -7,-5 -13,-10 -18,-16 -4,-6 -8,-12 -10,-18 -3,-7 -4,-14 -4,-21 -1,-11 0,-22 1,-32 2,-11 5,-21 9,-31 3,-5 6,-11 10,-17 4,-5 9,-11 15,-16 7,-5 14,-10 23,-15 9,-4 19,-8 31,-11 6,-1 12,-1 20,-1 7,0 14,1 22,3 6,2 11,4 17,7 6,3 11,6 16,10 5,4 10,7 14,11 4,4 7,7 9,10 6,8 11,17 13,26 3,9 4,20 5,33zm-107 51c6,0 10,0 15,-1 4,0 8,-2 12,-4 11,-7 18,-15 22,-24 5,-10 6,-20 4,-32 -1,-6 -3,-11 -6,-16 -4,-5 -7,-9 -12,-13 -5,-3 -10,-6 -15,-7 -6,-2 -12,-2 -17,-1 -6,0 -12,2 -17,3 -6,2 -10,5 -14,10 -8,8 -13,18 -15,28 -3,10 -3,20 0,32 0,2 1,4 3,6 1,2 3,4 5,5 5,5 11,8 17,11 6,2 12,3 18,3z"/>
   <path class="fil8 str0" d="M6138 3367c5,0 10,-1 14,-1 5,-1 9,-2 13,-5 10,-6 18,-14 22,-24 5,-9 6,-20 3,-32 -1,-6 -3,-11 -6,-16 -3,-5 -7,-9 -11,-12 -5,-4 -10,-6 -16,-8 -5,-1 -11,-2 -17,-1 -6,1 -11,2 -17,4 -5,2 -10,5 -13,9 -8,9 -13,18 -16,28 -3,10 -3,21 0,32 1,2 2,4 4,6 1,2 3,4 4,6 6,4 11,8 17,10 6,3 12,4 19,4z"/>
   <path class="fil5 str3" d="M6137 3544c5,0 10,0 15,-1 4,0 8,-2 12,-4 10,-7 18,-14 22,-24 5,-9 6,-20 4,-32 -1,-6 -4,-11 -7,-16 -3,-5 -7,-9 -11,-13 -5,-3 -10,-5 -16,-7 -5,-2 -11,-2 -17,-1 -6,0 -11,2 -17,3 -5,2 -10,5 -13,10 -8,8 -13,18 -16,28 -3,10 -2,20 1,32 0,2 1,4 3,6 1,2 3,4 4,5 6,5 12,8 18,11 5,2 12,3 18,3z"/>
   <path class="fil5 str3" d="M6138 3367c5,0 10,-1 14,-1 5,-1 9,-2 13,-5 10,-6 18,-14 22,-24 5,-9 6,-20 3,-32 -1,-6 -3,-11 -6,-16 -3,-5 -7,-9 -11,-12 -5,-4 -10,-6 -16,-8 -5,-1 -11,-2 -17,-1 -6,1 -11,2 -17,4 -5,2 -10,5 -13,9 -8,9 -13,18 -16,28 -3,10 -3,21 0,32 1,2 2,4 4,6 1,2 3,4 4,6 6,4 11,8 17,10 6,3 12,4 19,4z"/>
   <path class="fil16" d="M6241 3674c0,9 -2,19 -6,30 -4,10 -9,20 -15,30 -7,11 -16,19 -25,25 -10,6 -21,12 -32,16 -3,1 -6,2 -10,3 -4,1 -8,1 -11,2 -4,0 -8,0 -12,0 -4,0 -7,-1 -10,-2 -4,-1 -9,-2 -14,-4 -6,-3 -12,-6 -18,-9 -7,-4 -13,-8 -20,-13 -6,-5 -12,-10 -17,-16 -5,-6 -8,-12 -11,-18 -2,-7 -3,-14 -4,-21 0,-11 0,-21 2,-32 1,-10 4,-21 9,-31 2,-5 5,-11 9,-16 4,-6 10,-12 16,-17 6,-5 14,-10 22,-14 9,-5 19,-8 31,-11 6,-1 13,-2 20,-2 7,0 15,2 23,4 5,1 11,3 17,6 5,3 11,7 16,10 5,4 9,7 13,11 4,4 7,7 9,10 7,8 11,17 14,26 2,9 4,20 4,33zm-106 51c5,0 10,0 14,0 5,-1 9,-3 13,-5 10,-6 17,-14 22,-24 4,-9 5,-20 3,-32 -1,-6 -3,-11 -6,-16 -3,-5 -7,-9 -12,-12 -4,-4 -9,-6 -15,-8 -5,-2 -11,-2 -17,-1 -6,1 -11,2 -17,4 -5,1 -10,5 -14,9 -7,9 -12,18 -15,28 -3,10 -3,21 0,32 1,2 2,4 3,6 2,2 4,4 5,5 6,5 11,8 17,11 6,3 12,4 19,3z"/>
   <path id="1" class="fil15 str4" d="M6241 3674c0,9 -2,19 -6,30 -4,10 -9,20 -15,30 -7,11 -16,19 -25,25 -10,6 -21,12 -32,16 -3,1 -6,2 -10,3 -4,1 -8,1 -11,2 -4,0 -8,0 -12,0 -4,0 -7,-1 -10,-2 -4,-1 -9,-2 -14,-4 -6,-3 -12,-6 -18,-9 -7,-4 -13,-8 -20,-13 -6,-5 -12,-10 -17,-16 -5,-6 -8,-12 -11,-18 -2,-7 -3,-14 -4,-21 0,-11 0,-21 2,-32 1,-10 4,-21 9,-31 2,-5 5,-11 9,-16 4,-6 10,-12 16,-17 6,-5 14,-10 22,-14 9,-5 19,-8 31,-11 6,-1 13,-2 20,-2 7,0 15,2 23,4 5,1 11,3 17,6 5,3 11,7 16,10 5,4 9,7 13,11 4,4 7,7 9,10 7,8 11,17 14,26 2,9 4,20 4,33zm-106 51c5,0 10,0 14,0 5,-1 9,-3 13,-5 10,-6 17,-14 22,-24 4,-9 5,-20 3,-32 -1,-6 -3,-11 -6,-16 -3,-5 -7,-9 -12,-12 -4,-4 -9,-6 -15,-8 -5,-2 -11,-2 -17,-1 -6,1 -11,2 -17,4 -5,1 -10,5 -14,9 -7,9 -12,18 -15,28 -3,10 -3,21 0,32 1,2 2,4 3,6 2,2 4,4 5,5 6,5 11,8 17,11 6,3 12,4 19,3z"/>
   <path class="fil5 str3" d="M6134 3726c6,1 11,0 15,0 4,-1 9,-3 13,-5 10,-6 17,-14 22,-24 4,-9 5,-20 3,-32 -1,-6 -3,-11 -6,-16 -3,-5 -7,-9 -12,-12 -5,-4 -10,-6 -15,-8 -6,-1 -11,-2 -17,-1 -6,1 -12,2 -17,4 -5,1 -10,5 -14,9 -7,9 -12,18 -15,28 -3,10 -3,21 0,32 1,2 2,4 3,6 2,2 3,4 5,5 5,5 11,8 17,11 6,3 12,4 18,3z"/>
   <path class="fil17 str0" d="M5468 3469c1,12 2,22 2,29 0,7 0,17 0,29 0,5 -1,9 -4,10 -3,2 -9,3 -17,2 -19,0 -38,-1 -57,-1 -19,0 -38,0 -57,0 -101,0 -154,4 -255,0 -6,0 -13,-1 -19,-1 -18,-1 -36,-1 -53,0 -18,0 -36,0 -53,-1 -12,-1 -20,-2 -23,-4 -3,-2 -5,-7 -5,-15 0,-27 0,-51 -1,-74 0,-22 0,-47 0,-73 1,-42 2,-83 3,-124 1,-41 2,-82 3,-124l0 -22c0,-9 6,-13 19,-13 9,0 18,0 28,0 9,-1 19,0 29,0 13,1 25,1 38,1 95,2 169,0 260,0l121 0c7,0 13,0 16,0 10,1 16,3 19,5 3,2 5,7 5,14 2,34 3,68 3,101 0,18 0,36 -1,54 0,18 -1,36 -2,55 0,0 0,5 0,16 0,12 0,25 0,41 0,15 1,32 1,50 0,17 0,32 0,45z"/>
   <path class="fil18" d="M5194 3283c0,4 0,8 0,10 0,3 0,7 0,11 0,2 0,3 -1,4 -1,0 -3,0 -7,0 -6,0 -13,0 -20,0 -7,0 -14,0 -21,0 -36,0 -55,1 -92,0 -2,0 -4,0 -7,-1 -6,0 -12,0 -19,0 -6,1 -13,1 -19,0 -4,0 -7,-1 -8,-1 -1,-1 -2,-3 -2,-6 0,-9 0,-18 0,-26 0,-9 0,-17 0,-27 0,-15 0,-30 1,-45 0,-14 0,-29 1,-44l0 -8c0,-3 2,-5 7,-5 3,0 6,0 10,0 3,0 7,0 10,0 5,0 9,0 14,0 34,1 61,0 94,0l44 0c2,0 4,0 5,0 4,1 6,1 7,2 1,1 2,3 2,5 1,13 1,25 1,37 0,6 0,13 0,19 0,7 -1,13 -1,20 0,0 0,2 0,6 0,4 0,9 0,15 0,5 0,11 0,18 1,6 1,11 1,16z"/>
   <path class="fil18" d="M5193 3465c0,4 0,8 0,11 0,2 0,6 0,10 0,2 0,3 -1,4 -1,0 -3,1 -6,0 -7,0 -14,0 -21,0 -7,0 -14,0 -21,0 -36,0 -55,1 -92,0 -2,0 -4,0 -7,0 -6,-1 -12,-1 -19,0 -6,0 -12,0 -19,-1 -4,0 -7,0 -8,-1 -1,-1 -2,-3 -2,-6 0,-9 0,-18 0,-26 0,-8 0,-17 0,-27 0,-15 0,-30 1,-44 0,-15 1,-30 1,-45l0 -8c0,-3 2,-5 7,-5 3,0 6,0 10,0 3,0 7,0 10,0 5,0 10,0 14,1 34,0 61,-1 94,-1l44 0c2,0 4,1 5,1 4,0 6,1 7,1 1,1 2,3 2,6 1,12 1,24 1,36 0,6 0,13 0,19 0,7 0,13 -1,20 0,0 0,2 0,6 0,4 0,9 0,15 0,5 0,11 0,18 1,6 1,11 1,16z"/>
   <path class="fil18" d="M5408 3285c0,4 0,8 0,10 0,3 0,6 0,11 0,2 0,3 -1,3 -1,1 -3,1 -6,1 -7,0 -14,0 -21,0 -7,0 -14,0 -20,0 -37,0 -56,1 -93,0 -2,0 -4,0 -6,-1 -7,0 -13,0 -20,0 -6,0 -12,0 -19,0 -4,0 -7,-1 -8,-2 -1,0 -2,-2 -2,-5 0,-9 0,-18 0,-26 0,-9 0,-18 0,-27 0,-15 0,-30 1,-45 0,-15 1,-29 1,-44l0 -8c0,-4 2,-5 7,-5 3,0 6,0 10,0 3,0 7,0 10,0 5,0 10,0 14,0 34,1 61,0 94,0l44 0c2,0 4,0 6,0 3,1 5,1 6,2 1,1 2,3 2,5 1,12 1,24 1,36 0,7 0,14 0,20 0,7 0,13 -1,20 0,0 0,2 0,6 0,4 0,9 0,14 0,6 0,12 1,18 0,7 0,12 0,17z"/>
   <path class="fil18" d="M5409 3467c0,4 0,8 0,11 0,2 1,6 1,10 0,2 -1,3 -2,4 -1,0 -3,1 -6,0 -7,0 -14,0 -21,0 -7,0 -14,0 -20,0 -37,0 -56,1 -92,0 -3,0 -5,0 -7,0 -7,-1 -13,-1 -20,-1 -6,1 -12,1 -19,0 -4,0 -7,-1 -8,-1 -1,-1 -2,-3 -2,-6 0,-9 0,-18 0,-26 0,-8 0,-17 0,-27 0,-15 1,-30 1,-44 0,-15 1,-30 1,-45l0 -8c0,-3 2,-5 7,-5 3,0 7,0 10,0 3,0 7,0 10,0 5,0 10,0 14,0 35,1 61,0 94,0l44 0c3,0 4,0 6,1 3,0 5,0 7,1 1,1 1,3 1,5 1,13 2,25 2,37 0,6 -1,13 -1,19 0,7 0,13 -1,20 0,0 0,2 0,6 0,4 0,9 0,15 0,5 1,11 1,18 0,6 0,11 0,16z"/>
   <polygon class="fil24" points="5217,2207 3844,3331 4040,3496 5208,2541 6432,3490 6646,3325 "/>
   <polygon class="fil4" points="5707,2138 5767,2236 5823,2138 5768,2014 "/>
   <polygon class="fil5" points="5827,2307 5866,2371 5902,2307 5866,2227 "/>
   <polygon class="fil6" points="5854,2110 5938,2248 6017,2110 5939,1936 "/>
   <polygon class="fil4" points="4938,1234 5170,1618 5389,1234 5174,751 "/>
   <polygon class="fil5" points="5394,760 5501,936 5602,760 5503,537 "/>
   <polygon class="fil6" points="4562,511 4794,895 5014,511 4798,28 "/>
   <polygon class="fil6" points="6340,1632 6543,1967 6735,1632 6546,1209 "/>
  </g>
 </g>
</svg>
